<svg xmlns="http://www.w3.org/2000/svg" width="460" height="110" viewBox="0 0 460 110">
  <path d="M83.920 34.224L83.920 34.224Q79.384 34.224 77.332 36.384Q75.280 38.544 74.488 44.088L74.488 44.088Q74.488 44.232 74.056 44.232Q73.624 44.232 73.624 44.088L73.624 44.088Q73.768 43.224 73.948 41.568Q74.128 39.912 74.272 38.004Q74.416 36.096 74.524 34.332Q74.632 32.568 74.632 31.416L74.632 31.416Q74.632 31.056 75.064 31.056Q75.496 31.056 75.496 31.416L75.496 31.416Q75.496 32.136 76.180 32.460Q76.864 32.784 77.764 32.892Q78.664 33.000 79.312 33.000L79.312 33.000Q85.504 33.216 93.784 33.216L93.784 33.216Q98.896 33.216 101.884 33.108Q104.872 33.000 107.680 33.000L107.680 33.000Q110.056 33.000 111.388 32.676Q112.720 32.352 113.080 31.200L113.080 31.200Q113.152 30.912 113.512 30.912Q113.872 30.912 113.872 31.200L113.872 31.200Q113.800 32.280 113.656 34.080Q113.512 35.880 113.440 37.860Q113.368 39.840 113.296 41.532Q113.224 43.224 113.224 44.088L113.224 44.088Q113.224 44.232 112.792 44.232Q112.360 44.232 112.360 44.088L112.360 44.088Q112.360 38.544 110.488 36.384Q108.616 34.224 103.648 34.224L103.648 34.224Q100.264 34.224 98.572 34.476Q96.880 34.728 96.340 35.700Q95.800 36.672 95.800 38.976L95.800 38.976L95.800 72.168Q95.800 74.256 96.304 75.336Q96.808 76.416 98.356 76.776Q99.904 77.136 103.072 77.136L103.072 77.136Q103.216 77.136 103.216 77.568Q103.216 78 103.072 78L103.072 78Q101.200 78 98.860 77.928Q96.520 77.856 93.784 77.856L93.784 77.856Q91.192 77.856 88.852 77.928Q86.512 78 84.568 78L84.568 78Q84.424 78 84.424 77.568Q84.424 77.136 84.568 77.136L84.568 77.136Q87.664 77.136 89.248 76.776Q90.832 76.416 91.372 75.336Q91.912 74.256 91.912 72.168L91.912 72.168L91.912 38.832Q91.912 36.528 91.336 35.556Q90.760 34.584 89.032 34.404Q87.304 34.224 83.920 34.224Z M125.772 58.488L125.772 58.488L125.484 57.768Q128.148 54.456 129.840 52.692Q131.532 50.928 132.756 50.244Q133.980 49.560 135.132 49.560L135.132 49.560Q136.644 49.560 138.084 50.352Q139.524 51.144 139.524 52.296L139.524 52.296Q139.524 53.016 138.984 53.592Q138.444 54.168 137.436 54.168L137.436 54.168Q136.572 54.168 135.960 53.664Q135.348 53.160 134.628 52.692Q133.908 52.224 132.684 52.224L132.684 52.224Q132.036 52.224 131.280 52.620Q130.524 53.016 129.264 54.348Q128.004 55.680 125.772 58.488ZM119.076 78L119.076 78Q118.860 78 118.860 77.568Q118.860 77.136 119.076 77.136L119.076 77.136Q122.028 77.136 122.892 76.200Q123.756 75.264 123.756 72.168L123.756 72.168L123.756 57.768Q123.756 55.320 123.180 54.204Q122.604 53.088 121.164 53.088L121.164 53.088Q120.444 53.088 119.436 53.376Q118.428 53.664 117.132 54.168L117.132 54.168Q116.844 54.240 116.664 53.880Q116.484 53.520 116.772 53.376L116.772 53.376L124.764 49.632Q124.908 49.560 125.124 49.560L125.124 49.560Q125.628 49.560 126.384 51.036Q127.140 52.512 127.140 55.320L127.140 55.320L127.140 72.168Q127.140 74.256 127.644 75.336Q128.148 76.416 129.696 76.776Q131.244 77.136 134.340 77.136L134.340 77.136Q134.556 77.136 134.556 77.568Q134.556 78 134.340 78L134.340 78Q132.612 78 130.308 77.928Q128.004 77.856 125.484 77.856L125.484 77.856Q123.684 77.856 121.992 77.928Q120.300 78 119.076 78Z M153.944 78.504L153.944 78.504Q150.488 78.504 148.472 76.308Q146.456 74.112 146.456 69.720L146.456 69.720L146.456 58.560Q146.456 55.608 146.024 54.348Q145.592 53.088 144.368 53.088L144.368 53.088Q143.288 53.088 141.776 53.808L141.776 53.808Q141.488 53.952 141.308 53.520Q141.128 53.088 141.416 53.016L141.416 53.016L148.976 49.632Q149.120 49.560 149.264 49.560L149.264 49.560Q149.408 49.560 149.624 49.704Q149.840 49.848 149.840 50.064L149.840 50.064L149.840 67.560Q149.840 71.952 151.352 74.004Q152.864 76.056 155.888 76.056L155.888 76.056Q158.840 76.056 161.792 74.292Q164.744 72.528 166.976 69.432L166.976 69.432L167.336 70.224Q163.808 74.688 160.568 76.596Q157.328 78.504 153.944 78.504ZM168.992 50.064L168.992 50.064L168.992 70.440Q168.992 72.888 169.604 74.004Q170.216 75.120 171.656 75.120L171.656 75.120Q172.448 75.120 173.384 74.832Q174.320 74.544 175.688 74.040L175.688 74.040Q176.048 73.896 176.192 74.292Q176.336 74.688 176.048 74.832L176.048 74.832L167.984 78.576Q167.840 78.648 167.696 78.648L167.696 78.648Q167.192 78.648 166.436 77.172Q165.680 75.696 165.680 72.888L165.680 72.888L165.680 58.560Q165.680 55.608 165.212 54.348Q164.744 53.088 163.520 53.088L163.520 53.088Q162.440 53.088 160.928 53.808L160.928 53.808Q160.640 53.952 160.496 53.520Q160.352 53.088 160.640 53.016L160.640 53.016L168.200 49.632Q168.344 49.560 168.416 49.560L168.416 49.560Q168.560 49.560 168.776 49.704Q168.992 49.848 168.992 50.064Z M191.044 78.864L191.044 78.864Q186.796 78.864 183.952 76.884Q181.108 74.904 179.668 71.736Q178.228 68.568 178.228 65.040L178.228 65.040Q178.228 60.648 180.244 57.156Q182.260 53.664 185.680 51.612Q189.100 49.560 193.132 49.560L193.132 49.560Q197.236 49.560 199.252 51.792Q201.268 54.024 201.268 57.768L201.268 57.768Q201.268 58.704 201.088 59.136Q200.908 59.568 200.404 59.568L200.404 59.568L197.020 59.568Q197.380 55.104 195.616 53.052Q193.852 51 190.828 51L190.828 51Q186.796 51 184.564 54.060Q182.332 57.120 182.332 62.448L182.332 62.448Q182.332 66.480 183.628 69.684Q184.924 72.888 187.444 74.724Q189.964 76.560 193.564 76.560L193.564 76.560Q196.084 76.560 197.704 75.804Q199.324 75.048 200.836 74.112L200.836 74.112Q200.980 73.968 201.232 74.292Q201.484 74.616 201.340 74.832L201.340 74.832Q198.820 76.992 196.264 77.928Q193.708 78.864 191.044 78.864ZM197.740 59.568L181.396 59.640L181.324 58.776L197.740 58.488L197.740 59.568Z M230.108 41.712L230.108 41.712Q230.108 44.736 231.584 46.860Q233.060 48.984 235.400 50.568Q237.740 52.152 240.332 53.664L240.332 53.664Q242.996 55.176 245.444 56.868Q247.892 58.560 249.512 60.900Q251.132 63.240 251.132 66.696L251.132 66.696Q251.132 70.008 249.512 72.780Q247.892 75.552 244.652 77.208Q241.412 78.864 236.516 78.864L236.516 78.864Q234.932 78.864 233.384 78.648Q231.836 78.432 230.216 77.892Q228.596 77.352 226.724 76.416L226.724 76.416Q226.364 76.200 226.256 75.876Q226.148 75.552 226.076 75.048L226.076 75.048L224.996 65.688Q224.924 65.328 225.320 65.292Q225.716 65.256 225.788 65.544L225.788 65.544Q226.076 67.704 226.940 69.864Q227.804 72.024 229.280 73.824Q230.756 75.624 232.952 76.740Q235.148 77.856 238.100 77.856L238.100 77.856Q240.332 77.856 242.420 77.028Q244.508 76.200 245.840 74.328Q247.172 72.456 247.172 69.216L247.172 69.216Q247.172 65.688 245.624 63.348Q244.076 61.008 241.700 59.316Q239.324 57.624 236.660 56.112L236.660 56.112Q234.140 54.600 231.764 52.944Q229.388 51.288 227.912 49.020Q226.436 46.752 226.436 43.368L226.436 43.368Q226.436 39.624 228.308 37.140Q230.180 34.656 233.168 33.432Q236.156 32.208 239.396 32.208L239.396 32.208Q241.268 32.208 243.320 32.604Q245.372 33.000 247.604 33.936L247.604 33.936Q248.180 34.152 248.432 34.476Q248.684 34.800 248.684 35.160L248.684 35.160L249.332 42.792Q249.332 43.080 248.936 43.080Q248.540 43.080 248.468 42.792L248.468 42.792Q248.324 41.208 247.712 39.516Q247.100 37.824 245.912 36.384Q244.724 34.944 242.888 34.044Q241.052 33.144 238.460 33.144L238.460 33.144Q235.364 33.144 233.528 34.440Q231.692 35.736 230.900 37.680Q230.108 39.624 230.108 41.712Z" fill="#F7F5F2"/><path d="M258.496 78L258.496 78Q258.352 78 258.352 77.568Q258.352 77.136 258.496 77.136L258.496 77.136Q261.448 77.136 262.348 76.200Q263.248 75.264 263.248 72.168L263.248 72.168L263.248 58.560Q263.248 55.968 262.744 54.780Q262.240 53.592 260.872 53.592L260.872 53.592Q260.224 53.592 259.396 53.844Q258.568 54.096 257.416 54.672L257.416 54.672Q257.128 54.744 256.948 54.348Q256.768 53.952 257.056 53.808L257.056 53.808L265.984 49.632Q266.200 49.560 266.272 49.560L266.272 49.560Q266.416 49.560 266.596 49.704Q266.776 49.848 266.776 50.064L266.776 50.064Q266.776 50.568 266.704 52.836Q266.632 55.104 266.632 58.488L266.632 58.488L266.632 72.168Q266.632 75.264 267.460 76.200Q268.288 77.136 271.312 77.136L271.312 77.136Q271.528 77.136 271.528 77.568Q271.528 78 271.312 78L271.312 78Q270.088 78 268.432 77.928Q266.776 77.856 264.904 77.856L264.904 77.856Q263.104 77.856 261.448 77.928Q259.792 78 258.496 78ZM264.328 40.848L264.328 40.848Q262.960 40.848 262.204 40.128Q261.448 39.408 261.448 38.112L261.448 38.112Q261.448 36.816 262.204 36.096Q262.960 35.376 264.328 35.376L264.328 35.376Q265.624 35.376 266.344 36.096Q267.064 36.816 267.064 38.112L267.064 38.112Q267.064 40.848 264.328 40.848Z" fill="#C4622D"/><path d="M286.380 98.160L286.380 98.160Q281.340 98.160 278.640 95.892Q275.940 93.624 275.940 90.312L275.940 90.312Q275.940 86.568 279.072 83.292Q282.204 80.016 287.532 76.992L287.532 76.992L288.324 77.928Q285.948 79.080 283.932 80.412Q281.916 81.744 280.692 83.580Q279.468 85.416 279.468 88.224L279.468 88.224Q279.468 90.528 280.512 92.292Q281.556 94.056 283.680 95.028Q285.804 96 289.044 96L289.044 96Q294.300 96 297.720 93.336Q301.140 90.672 301.140 86.064L301.140 86.064Q301.140 83.112 299.664 81.816Q298.188 80.520 295.596 80.196Q293.004 79.872 289.548 79.872L289.548 79.872Q286.236 79.872 283.536 79.620Q280.836 79.368 279.252 78.288Q277.668 77.208 277.668 74.832L277.668 74.832Q277.668 72.384 279.180 70.692Q280.692 69 283.284 66.768L283.284 66.768L284.076 67.488Q282.276 69 281.556 70.188Q280.836 71.376 280.836 72.672L280.836 72.672Q280.836 74.112 281.808 74.976Q282.780 75.840 285.156 76.236Q287.532 76.632 291.708 76.632L291.708 76.632Q293.292 76.632 295.380 76.704Q297.468 76.776 299.484 77.352Q301.500 77.928 302.832 79.440Q304.164 80.952 304.164 83.832L304.164 83.832Q304.164 86.784 302.688 89.376Q301.212 91.968 298.692 93.948Q296.172 95.928 292.968 97.044Q289.764 98.160 286.380 98.160ZM288.684 68.424L288.684 68.424Q285.228 68.424 282.816 67.164Q280.404 65.904 279.108 63.780Q277.812 61.656 277.812 59.136L277.812 59.136Q277.812 56.544 279.144 54.420Q280.476 52.296 282.996 51Q285.516 49.704 289.044 49.704L289.044 49.704Q293.004 49.704 295.344 51.144Q297.684 52.584 298.692 54.744Q299.700 56.904 299.700 58.992L299.700 58.992Q299.700 61.368 298.440 63.528Q297.180 65.688 294.732 67.056Q292.284 68.424 288.684 68.424ZM289.980 67.416L289.980 67.416Q292.500 67.416 294.156 65.796Q295.812 64.176 295.812 60.432L295.812 60.432Q295.812 57.408 294.696 55.248Q293.580 53.088 291.708 51.900Q289.836 50.712 287.460 50.712L287.460 50.712Q284.940 50.712 283.284 52.260Q281.628 53.808 281.628 57.552L281.628 57.552Q281.628 61.008 282.924 63.204Q284.220 65.400 286.128 66.408Q288.036 67.416 289.980 67.416ZM295.812 52.872L295.164 55.032L295.164 52.584Q297.396 51.288 299.484 50.460Q301.572 49.632 304.092 49.632L304.092 49.632Q304.236 49.632 304.344 50.136Q304.452 50.640 304.452 51.144L304.452 51.144Q304.452 51.864 304.272 52.692Q304.092 53.520 303.804 53.376L303.804 53.376Q303.300 53.160 302.076 52.764Q300.852 52.368 299.124 52.368L299.124 52.368Q298.188 52.368 297.396 52.512Q296.604 52.656 295.812 52.872L295.812 52.872Z M327.440 78L327.440 78Q327.224 78 327.224 77.568Q327.224 77.136 327.440 77.136L327.440 77.136Q330.392 77.136 331.256 76.200Q332.120 75.264 332.120 72.168L332.120 72.168L332.120 60.144Q332.120 55.752 330.464 53.736Q328.808 51.720 325.280 51.720L325.280 51.720Q322.544 51.720 319.700 53.520Q316.856 55.320 314.768 58.488L314.768 58.488L314.480 57.624Q317.864 53.160 320.960 51.216Q324.056 49.272 327.224 49.272L327.224 49.272Q331.184 49.272 333.344 51.396Q335.504 53.520 335.504 57.984L335.504 57.984L335.504 72.168Q335.504 75.264 336.332 76.200Q337.160 77.136 340.184 77.136L340.184 77.136Q340.400 77.136 340.400 77.568Q340.400 78 340.184 78L340.184 78Q338.960 78 337.304 77.928Q335.648 77.856 333.848 77.856L333.848 77.856Q332.048 77.856 330.356 77.928Q328.664 78 327.440 78ZM308.072 78L308.072 78Q307.856 78 307.856 77.568Q307.856 77.136 308.072 77.136L308.072 77.136Q311.024 77.136 311.888 76.200Q312.752 75.264 312.752 72.168L312.752 72.168L312.752 57.768Q312.752 55.320 312.176 54.204Q311.600 53.088 310.160 53.088L310.160 53.088Q309.440 53.088 308.432 53.376Q307.424 53.664 306.128 54.168L306.128 54.168Q305.840 54.240 305.660 53.880Q305.480 53.520 305.768 53.376L305.768 53.376L313.760 49.632Q313.904 49.560 314.120 49.560L314.120 49.560Q314.624 49.560 315.380 51.036Q316.136 52.512 316.136 55.320L316.136 55.320L316.136 72.168Q316.136 75.264 316.964 76.200Q317.792 77.136 320.816 77.136L320.816 77.136Q321.032 77.136 321.032 77.568Q321.032 78 320.816 78L320.816 78Q319.592 78 317.936 77.928Q316.280 77.856 314.480 77.856L314.480 77.856Q312.680 77.856 310.988 77.928Q309.296 78 308.072 78Z M371.092 74.904L363.676 78.432Q363.388 78.576 363.100 78.576L363.100 78.576Q362.236 78.576 361.516 77.064Q360.796 75.552 360.796 72.672L360.796 72.672L360.796 58.776Q360.796 54.312 359.392 52.584Q357.988 50.856 355.900 50.856L355.900 50.856Q354.100 50.856 352.912 51.684Q351.724 52.512 351.112 53.736Q350.500 54.960 350.212 56.040L350.212 56.040Q350.068 56.760 349.708 57.732Q349.348 58.704 347.908 58.704L347.908 58.704Q346.828 58.704 346.288 58.056Q345.748 57.408 345.748 56.688L345.748 56.688Q345.748 55.464 347.044 54.204Q348.340 52.944 350.320 51.864Q352.300 50.784 354.460 50.136Q356.620 49.488 358.420 49.488L358.420 49.488Q361.372 49.488 362.740 51.396Q364.108 53.304 364.108 56.616L364.108 56.616L364.108 70.224Q364.108 72.816 364.720 74.004Q365.332 75.192 366.844 75.192L366.844 75.192Q368.212 75.192 370.804 74.112L370.804 74.112Q371.164 73.968 371.308 74.364Q371.452 74.760 371.092 74.904L371.092 74.904ZM350.932 78.504L350.932 78.504Q348.268 78.504 346.864 77.028Q345.460 75.552 345.460 73.608L345.460 73.608Q345.460 72.384 346.072 71.232Q346.684 70.080 348.232 69Q349.780 67.920 352.516 66.912L352.516 66.912L361.516 63.528L361.660 64.464L353.164 67.704Q351.652 68.280 350.860 68.964Q350.068 69.648 349.780 70.404Q349.492 71.160 349.492 71.952L349.492 71.952Q349.492 73.536 350.536 74.832Q351.580 76.128 353.596 76.128L353.596 76.128Q354.388 76.128 355.252 75.876Q356.116 75.624 357.340 74.904L357.340 74.904L362.164 72.096L362.308 72.960L356.908 76.344Q355.108 77.496 353.740 78Q352.372 78.504 350.932 78.504Z M373.560 78L373.560 78Q373.344 78 373.344 77.568Q373.344 77.136 373.560 77.136L373.560 77.136Q376.512 77.136 377.376 76.200Q378.240 75.264 378.240 72.168L378.240 72.168L378.240 34.800Q378.240 32.208 377.736 31.020Q377.232 29.832 375.936 29.832L375.936 29.832Q374.784 29.832 372.480 30.912L372.480 30.912Q372.192 31.056 372.012 30.624Q371.832 30.192 372.120 30.120L372.120 30.120L380.976 25.872Q381.120 25.800 381.336 25.800L381.336 25.800Q381.480 25.800 381.660 25.944Q381.840 26.088 381.840 26.304L381.840 26.304L381.840 72.168Q381.840 75.192 382.668 76.164Q383.496 77.136 386.520 77.136L386.520 77.136Q386.736 77.136 386.736 77.568Q386.736 78 386.520 78L386.520 78Q385.296 78 383.604 77.928Q381.912 77.856 380.040 77.856L380.040 77.856Q378.240 77.856 376.512 77.928Q374.784 78 373.560 78Z" fill="#F7F5F2"/>
</svg>