<svg xmlns="http://www.w3.org/2000/svg" width="360" height="220" viewBox="0 0 360 220">
  <g transform="translate(180,40) scale(0.32)"><path d="M 0 -92 L 15 -15 L 92 0 L 15 15 L 0 92 L -15 15 L -92 0 L -15 -15 Z" fill="#C4622D"></path></g>
  <path d="M61.005 89.736L61.005 89.736Q57.351 89.736 55.698 91.476Q54.045 93.216 53.407 97.682L53.407 97.682Q53.407 97.798 53.059 97.798Q52.711 97.798 52.711 97.682L52.711 97.682Q52.827 96.986 52.972 95.652Q53.117 94.318 53.233 92.781Q53.349 91.244 53.436 89.823Q53.523 88.402 53.523 87.474L53.523 87.474Q53.523 87.184 53.871 87.184Q54.219 87.184 54.219 87.474L54.219 87.474Q54.219 88.054 54.770 88.315Q55.321 88.576 56.046 88.663Q56.771 88.750 57.293 88.750L57.293 88.750Q62.281 88.924 68.951 88.924L68.951 88.924Q73.069 88.924 75.476 88.837Q77.883 88.750 80.145 88.750L80.145 88.750Q82.059 88.750 83.132 88.489Q84.205 88.228 84.495 87.300L84.495 87.300Q84.553 87.068 84.843 87.068Q85.133 87.068 85.133 87.300L85.133 87.300Q85.075 88.170 84.959 89.620Q84.843 91.070 84.785 92.665Q84.727 94.260 84.669 95.623Q84.611 96.986 84.611 97.682L84.611 97.682Q84.611 97.798 84.263 97.798Q83.915 97.798 83.915 97.682L83.915 97.682Q83.915 93.216 82.407 91.476Q80.899 89.736 76.897 89.736L76.897 89.736Q74.171 89.736 72.808 89.939Q71.445 90.142 71.010 90.925Q70.575 91.708 70.575 93.564L70.575 93.564L70.575 120.302Q70.575 121.984 70.981 122.854Q71.387 123.724 72.634 124.014Q73.881 124.304 76.433 124.304L76.433 124.304Q76.549 124.304 76.549 124.652Q76.549 125 76.433 125L76.433 125Q74.925 125 73.040 124.942Q71.155 124.884 68.951 124.884L68.951 124.884Q66.863 124.884 64.978 124.942Q63.093 125 61.527 125L61.527 125Q61.411 125 61.411 124.652Q61.411 124.304 61.527 124.304L61.527 124.304Q64.021 124.304 65.297 124.014Q66.573 123.724 67.008 122.854Q67.443 121.984 67.443 120.302L67.443 120.302L67.443 93.448Q67.443 91.592 66.979 90.809Q66.515 90.026 65.123 89.881Q63.731 89.736 61.005 89.736Z M94.983 109.282L94.983 109.282L94.751 108.702Q96.897 106.034 98.260 104.613Q99.623 103.192 100.609 102.641Q101.595 102.090 102.523 102.090L102.523 102.090Q103.741 102.090 104.901 102.728Q106.061 103.366 106.061 104.294L106.061 104.294Q106.061 104.874 105.626 105.338Q105.191 105.802 104.379 105.802L104.379 105.802Q103.683 105.802 103.190 105.396Q102.697 104.990 102.117 104.613Q101.537 104.236 100.551 104.236L100.551 104.236Q100.029 104.236 99.420 104.555Q98.811 104.874 97.796 105.947Q96.781 107.020 94.983 109.282ZM89.589 125L89.589 125Q89.415 125 89.415 124.652Q89.415 124.304 89.589 124.304L89.589 124.304Q91.967 124.304 92.663 123.550Q93.359 122.796 93.359 120.302L93.359 120.302L93.359 108.702Q93.359 106.730 92.895 105.831Q92.431 104.932 91.271 104.932L91.271 104.932Q90.691 104.932 89.879 105.164Q89.067 105.396 88.023 105.802L88.023 105.802Q87.791 105.860 87.646 105.570Q87.501 105.280 87.733 105.164L87.733 105.164L94.171 102.148Q94.287 102.090 94.461 102.090L94.461 102.090Q94.867 102.090 95.476 103.279Q96.085 104.468 96.085 106.730L96.085 106.730L96.085 120.302Q96.085 121.984 96.491 122.854Q96.897 123.724 98.144 124.014Q99.391 124.304 101.885 124.304L101.885 124.304Q102.059 124.304 102.059 124.652Q102.059 125 101.885 125L101.885 125Q100.493 125 98.637 124.942Q96.781 124.884 94.751 124.884L94.751 124.884Q93.301 124.884 91.938 124.942Q90.575 125 89.589 125Z M117.941 125.406L117.941 125.406Q115.157 125.406 113.533 123.637Q111.909 121.868 111.909 118.330L111.909 118.330L111.909 109.340Q111.909 106.962 111.561 105.947Q111.213 104.932 110.227 104.932L110.227 104.932Q109.357 104.932 108.139 105.512L108.139 105.512Q107.907 105.628 107.762 105.280Q107.617 104.932 107.849 104.874L107.849 104.874L113.939 102.148Q114.055 102.090 114.171 102.090L114.171 102.090Q114.287 102.090 114.461 102.206Q114.635 102.322 114.635 102.496L114.635 102.496L114.635 116.590Q114.635 120.128 115.853 121.781Q117.071 123.434 119.507 123.434L119.507 123.434Q121.885 123.434 124.263 122.013Q126.641 120.592 128.439 118.098L128.439 118.098L128.729 118.736Q125.887 122.332 123.277 123.869Q120.667 125.406 117.941 125.406ZM130.063 102.496L130.063 102.496L130.063 118.910Q130.063 120.882 130.556 121.781Q131.049 122.680 132.209 122.680L132.209 122.680Q132.847 122.680 133.601 122.448Q134.355 122.216 135.457 121.810L135.457 121.810Q135.747 121.694 135.863 122.013Q135.979 122.332 135.747 122.448L135.747 122.448L129.251 125.464Q129.135 125.522 129.019 125.522L129.019 125.522Q128.613 125.522 128.004 124.333Q127.395 123.144 127.395 120.882L127.395 120.882L127.395 109.340Q127.395 106.962 127.018 105.947Q126.641 104.932 125.655 104.932L125.655 104.932Q124.785 104.932 123.567 105.512L123.567 105.512Q123.335 105.628 123.219 105.280Q123.103 104.932 123.335 104.874L123.335 104.874L129.425 102.148Q129.541 102.090 129.599 102.090L129.599 102.090Q129.715 102.090 129.889 102.206Q130.063 102.322 130.063 102.496Z M148.091 125.696L148.091 125.696Q144.669 125.696 142.378 124.101Q140.087 122.506 138.927 119.954Q137.767 117.402 137.767 114.560L137.767 114.560Q137.767 111.022 139.391 108.209Q141.015 105.396 143.770 103.743Q146.525 102.090 149.773 102.090L149.773 102.090Q153.079 102.090 154.703 103.888Q156.327 105.686 156.327 108.702L156.327 108.702Q156.327 109.456 156.182 109.804Q156.037 110.152 155.631 110.152L155.631 110.152L152.905 110.152Q153.195 106.556 151.774 104.903Q150.353 103.250 147.917 103.250L147.917 103.250Q144.669 103.250 142.871 105.715Q141.073 108.180 141.073 112.472L141.073 112.472Q141.073 115.720 142.117 118.301Q143.161 120.882 145.191 122.361Q147.221 123.840 150.121 123.840L150.121 123.840Q152.151 123.840 153.456 123.231Q154.761 122.622 155.979 121.868L155.979 121.868Q156.095 121.752 156.298 122.013Q156.501 122.274 156.385 122.448L156.385 122.448Q154.355 124.188 152.296 124.942Q150.237 125.696 148.091 125.696ZM153.485 110.152L140.319 110.210L140.261 109.514L153.485 109.282L153.485 110.152Z M180.087 95.768L180.087 95.768Q180.087 98.204 181.276 99.915Q182.465 101.626 184.350 102.902Q186.235 104.178 188.323 105.396L188.323 105.396Q190.469 106.614 192.441 107.977Q194.413 109.340 195.718 111.225Q197.023 113.110 197.023 115.894L197.023 115.894Q197.023 118.562 195.718 120.795Q194.413 123.028 191.803 124.362Q189.193 125.696 185.249 125.696L185.249 125.696Q183.973 125.696 182.726 125.522Q181.479 125.348 180.174 124.913Q178.869 124.478 177.361 123.724L177.361 123.724Q177.071 123.550 176.984 123.289Q176.897 123.028 176.839 122.622L176.839 122.622L175.969 115.082Q175.911 114.792 176.230 114.763Q176.549 114.734 176.607 114.966L176.607 114.966Q176.839 116.706 177.535 118.446Q178.231 120.186 179.420 121.636Q180.609 123.086 182.378 123.985Q184.147 124.884 186.525 124.884L186.525 124.884Q188.323 124.884 190.005 124.217Q191.687 123.550 192.760 122.042Q193.833 120.534 193.833 117.924L193.833 117.924Q193.833 115.082 192.586 113.197Q191.339 111.312 189.425 109.949Q187.511 108.586 185.365 107.368L185.365 107.368Q183.335 106.150 181.421 104.816Q179.507 103.482 178.318 101.655Q177.129 99.828 177.129 97.102L177.129 97.102Q177.129 94.086 178.637 92.085Q180.145 90.084 182.552 89.098Q184.959 88.112 187.569 88.112L187.569 88.112Q189.077 88.112 190.730 88.431Q192.383 88.750 194.181 89.504L194.181 89.504Q194.645 89.678 194.848 89.939Q195.051 90.200 195.051 90.490L195.051 90.490L195.573 96.638Q195.573 96.870 195.254 96.870Q194.935 96.870 194.877 96.638L194.877 96.638Q194.761 95.362 194.268 93.999Q193.775 92.636 192.818 91.476Q191.861 90.316 190.382 89.591Q188.903 88.866 186.815 88.866L186.815 88.866Q184.321 88.866 182.842 89.910Q181.363 90.954 180.725 92.520Q180.087 94.086 180.087 95.768Z M203.219 125L203.219 125Q203.103 125 203.103 124.652Q203.103 124.304 203.219 124.304L203.219 124.304Q205.597 124.304 206.322 123.550Q207.047 122.796 207.047 120.302L207.047 120.302L207.047 109.340Q207.047 107.252 206.641 106.295Q206.235 105.338 205.133 105.338L205.133 105.338Q204.611 105.338 203.944 105.541Q203.277 105.744 202.349 106.208L202.349 106.208Q202.117 106.266 201.972 105.947Q201.827 105.628 202.059 105.512L202.059 105.512L209.251 102.148Q209.425 102.090 209.483 102.090L209.483 102.090Q209.599 102.090 209.744 102.206Q209.889 102.322 209.889 102.496L209.889 102.496Q209.889 102.902 209.831 104.729Q209.773 106.556 209.773 109.282L209.773 109.282L209.773 120.302Q209.773 122.796 210.440 123.550Q211.107 124.304 213.543 124.304L213.543 124.304Q213.717 124.304 213.717 124.652Q213.717 125 213.543 125L213.543 125Q212.557 125 211.223 124.942Q209.889 124.884 208.381 124.884L208.381 124.884Q206.931 124.884 205.597 124.942Q204.263 125 203.219 125ZM207.917 95.072L207.917 95.072Q206.815 95.072 206.206 94.492Q205.597 93.912 205.597 92.868L205.597 92.868Q205.597 91.824 206.206 91.244Q206.815 90.664 207.917 90.664L207.917 90.664Q208.961 90.664 209.541 91.244Q210.121 91.824 210.121 92.868L210.121 92.868Q210.121 95.072 207.917 95.072Z M225.945 141.240L225.945 141.240Q221.885 141.240 219.710 139.413Q217.535 137.586 217.535 134.918L217.535 134.918Q217.535 131.902 220.058 129.263Q222.581 126.624 226.873 124.188L226.873 124.188L227.511 124.942Q225.597 125.870 223.973 126.943Q222.349 128.016 221.363 129.495Q220.377 130.974 220.377 133.236L220.377 133.236Q220.377 135.092 221.218 136.513Q222.059 137.934 223.770 138.717Q225.481 139.500 228.091 139.500L228.091 139.500Q232.325 139.500 235.080 137.354Q237.835 135.208 237.835 131.496L237.835 131.496Q237.835 129.118 236.646 128.074Q235.457 127.030 233.369 126.769Q231.281 126.508 228.497 126.508L228.497 126.508Q225.829 126.508 223.654 126.305Q221.479 126.102 220.203 125.232Q218.927 124.362 218.927 122.448L218.927 122.448Q218.927 120.476 220.145 119.113Q221.363 117.750 223.451 115.952L223.451 115.952L224.089 116.532Q222.639 117.750 222.059 118.707Q221.479 119.664 221.479 120.708L221.479 120.708Q221.479 121.868 222.262 122.564Q223.045 123.260 224.959 123.579Q226.873 123.898 230.237 123.898L230.237 123.898Q231.513 123.898 233.195 123.956Q234.877 124.014 236.501 124.478Q238.125 124.942 239.198 126.160Q240.271 127.378 240.271 129.698L240.271 129.698Q240.271 132.076 239.082 134.164Q237.893 136.252 235.863 137.847Q233.833 139.442 231.252 140.341Q228.671 141.240 225.945 141.240ZM227.801 117.286L227.801 117.286Q225.017 117.286 223.074 116.271Q221.131 115.256 220.087 113.545Q219.043 111.834 219.043 109.804L219.043 109.804Q219.043 107.716 220.116 106.005Q221.189 104.294 223.219 103.250Q225.249 102.206 228.091 102.206L228.091 102.206Q231.281 102.206 233.166 103.366Q235.051 104.526 235.863 106.266Q236.675 108.006 236.675 109.688L236.675 109.688Q236.675 111.602 235.660 113.342Q234.645 115.082 232.673 116.184Q230.701 117.286 227.801 117.286ZM228.845 116.474L228.845 116.474Q230.875 116.474 232.209 115.169Q233.543 113.864 233.543 110.848L233.543 110.848Q233.543 108.412 232.644 106.672Q231.745 104.932 230.237 103.975Q228.729 103.018 226.815 103.018L226.815 103.018Q224.785 103.018 223.451 104.265Q222.117 105.512 222.117 108.528L222.117 108.528Q222.117 111.312 223.161 113.081Q224.205 114.850 225.742 115.662Q227.279 116.474 228.845 116.474ZM233.543 104.758L233.021 106.498L233.021 104.526Q234.819 103.482 236.501 102.815Q238.183 102.148 240.213 102.148L240.213 102.148Q240.329 102.148 240.416 102.554Q240.503 102.960 240.503 103.366L240.503 103.366Q240.503 103.946 240.358 104.613Q240.213 105.280 239.981 105.164L239.981 105.164Q239.575 104.990 238.589 104.671Q237.603 104.352 236.211 104.352L236.211 104.352Q235.457 104.352 234.819 104.468Q234.181 104.584 233.543 104.758L233.543 104.758Z M259.285 125L259.285 125Q259.111 125 259.111 124.652Q259.111 124.304 259.285 124.304L259.285 124.304Q261.663 124.304 262.359 123.550Q263.055 122.796 263.055 120.302L263.055 120.302L263.055 110.616Q263.055 107.078 261.721 105.454Q260.387 103.830 257.545 103.830L257.545 103.830Q255.341 103.830 253.050 105.280Q250.759 106.730 249.077 109.282L249.077 109.282L248.845 108.586Q251.571 104.990 254.065 103.424Q256.559 101.858 259.111 101.858L259.111 101.858Q262.301 101.858 264.041 103.569Q265.781 105.280 265.781 108.876L265.781 108.876L265.781 120.302Q265.781 122.796 266.448 123.550Q267.115 124.304 269.551 124.304L269.551 124.304Q269.725 124.304 269.725 124.652Q269.725 125 269.551 125L269.551 125Q268.565 125 267.231 124.942Q265.897 124.884 264.447 124.884L264.447 124.884Q262.997 124.884 261.634 124.942Q260.271 125 259.285 125ZM243.683 125L243.683 125Q243.509 125 243.509 124.652Q243.509 124.304 243.683 124.304L243.683 124.304Q246.061 124.304 246.757 123.550Q247.453 122.796 247.453 120.302L247.453 120.302L247.453 108.702Q247.453 106.730 246.989 105.831Q246.525 104.932 245.365 104.932L245.365 104.932Q244.785 104.932 243.973 105.164Q243.161 105.396 242.117 105.802L242.117 105.802Q241.885 105.860 241.740 105.570Q241.595 105.280 241.827 105.164L241.827 105.164L248.265 102.148Q248.381 102.090 248.555 102.090L248.555 102.090Q248.961 102.090 249.570 103.279Q250.179 104.468 250.179 106.730L250.179 106.730L250.179 120.302Q250.179 122.796 250.846 123.550Q251.513 124.304 253.949 124.304L253.949 124.304Q254.123 124.304 254.123 124.652Q254.123 125 253.949 125L253.949 125Q252.963 125 251.629 124.942Q250.295 124.884 248.845 124.884L248.845 124.884Q247.395 124.884 246.032 124.942Q244.669 125 243.683 125Z M294.713 122.506L288.739 125.348Q288.507 125.464 288.275 125.464L288.275 125.464Q287.579 125.464 286.999 124.246Q286.419 123.028 286.419 120.708L286.419 120.708L286.419 109.514Q286.419 105.918 285.288 104.526Q284.157 103.134 282.475 103.134L282.475 103.134Q281.025 103.134 280.068 103.801Q279.111 104.468 278.618 105.454Q278.125 106.440 277.893 107.310L277.893 107.310Q277.777 107.890 277.487 108.673Q277.197 109.456 276.037 109.456L276.037 109.456Q275.167 109.456 274.732 108.934Q274.297 108.412 274.297 107.832L274.297 107.832Q274.297 106.846 275.341 105.831Q276.385 104.816 277.980 103.946Q279.575 103.076 281.315 102.554Q283.055 102.032 284.505 102.032L284.505 102.032Q286.883 102.032 287.985 103.569Q289.087 105.106 289.087 107.774L289.087 107.774L289.087 118.736Q289.087 120.824 289.580 121.781Q290.073 122.738 291.291 122.738L291.291 122.738Q292.393 122.738 294.481 121.868L294.481 121.868Q294.771 121.752 294.887 122.071Q295.003 122.390 294.713 122.506L294.713 122.506ZM278.473 125.406L278.473 125.406Q276.327 125.406 275.196 124.217Q274.065 123.028 274.065 121.462L274.065 121.462Q274.065 120.476 274.558 119.548Q275.051 118.620 276.298 117.750Q277.545 116.880 279.749 116.068L279.749 116.068L286.999 113.342L287.115 114.096L280.271 116.706Q279.053 117.170 278.415 117.721Q277.777 118.272 277.545 118.881Q277.313 119.490 277.313 120.128L277.313 120.128Q277.313 121.404 278.154 122.448Q278.995 123.492 280.619 123.492L280.619 123.492Q281.257 123.492 281.953 123.289Q282.649 123.086 283.635 122.506L283.635 122.506L287.521 120.244L287.637 120.940L283.287 123.666Q281.837 124.594 280.735 125Q279.633 125.406 278.473 125.406Z M296.965 125L296.965 125Q296.791 125 296.791 124.652Q296.791 124.304 296.965 124.304L296.965 124.304Q299.343 124.304 300.039 123.550Q300.735 122.796 300.735 120.302L300.735 120.302L300.735 90.200Q300.735 88.112 300.329 87.155Q299.923 86.198 298.879 86.198L298.879 86.198Q297.951 86.198 296.095 87.068L296.095 87.068Q295.863 87.184 295.718 86.836Q295.573 86.488 295.805 86.430L295.805 86.430L302.939 83.008Q303.055 82.950 303.229 82.950L303.229 82.950Q303.345 82.950 303.490 83.066Q303.635 83.182 303.635 83.356L303.635 83.356L303.635 120.302Q303.635 122.738 304.302 123.521Q304.969 124.304 307.405 124.304L307.405 124.304Q307.579 124.304 307.579 124.652Q307.579 125 307.405 125L307.405 125Q306.419 125 305.056 124.942Q303.693 124.884 302.185 124.884L302.185 124.884Q300.735 124.884 299.343 124.942Q297.951 125 296.965 125Z" fill="#F7F5F2"></path>
  <path d="M91.049 165.004L91.049 165.004Q91.543 165.004 91.901 165.048Q92.258 165.092 92.567 165.197Q92.874 165.301 93.216 165.477L93.216 165.477Q93.281 165.521 93.298 165.548Q93.314 165.576 93.326 165.719L93.326 165.719L93.457 166.973Q93.457 166.995 93.397 167.012Q93.337 167.028 93.326 166.984L93.326 166.984Q93.084 166.071 92.528 165.614Q91.972 165.158 91.049 165.158L91.049 165.158Q90.070 165.158 89.344 165.565Q88.618 165.972 88.216 166.720Q87.814 167.468 87.814 168.480L87.814 168.480Q87.814 169.195 88.073 169.833Q88.332 170.471 88.788 170.955Q89.245 171.439 89.828 171.714Q90.410 171.989 91.070 171.989L91.070 171.989Q92.016 171.989 92.588 171.532Q93.160 171.076 93.403 170.196L93.403 170.196Q93.413 170.163 93.474 170.174Q93.534 170.185 93.534 170.207L93.534 170.207L93.447 171.373Q93.436 171.505 93.413 171.538Q93.391 171.571 93.326 171.615L93.326 171.615Q92.743 171.923 92.242 172.033Q91.742 172.143 91.059 172.143L91.059 172.143Q89.904 172.143 89.013 171.686Q88.123 171.230 87.617 170.405Q87.111 169.580 87.111 168.491L87.111 168.491Q87.111 167.699 87.402 167.061Q87.694 166.423 88.227 165.961Q88.761 165.499 89.475 165.251Q90.191 165.004 91.049 165.004Z M102.555 172.132L102.555 172.132Q101.763 172.132 101.119 171.851Q100.476 171.571 100.019 171.076Q99.563 170.581 99.315 169.938Q99.068 169.294 99.068 168.568L99.068 168.568Q99.068 167.677 99.414 167.006Q99.761 166.335 100.333 165.889Q100.905 165.444 101.587 165.224Q102.269 165.004 102.940 165.004L102.940 165.004Q103.754 165.004 104.397 165.296Q105.041 165.587 105.492 166.082Q105.943 166.577 106.179 167.204Q106.416 167.831 106.416 168.491L106.416 168.491Q106.416 169.261 106.108 169.921Q105.800 170.581 105.266 171.076Q104.733 171.571 104.034 171.851Q103.336 172.132 102.555 172.132ZM102.951 171.912L102.951 171.912Q103.721 171.912 104.348 171.554Q104.975 171.197 105.343 170.499Q105.712 169.800 105.712 168.799L105.712 168.799Q105.712 167.754 105.310 166.957Q104.909 166.159 104.183 165.702Q103.457 165.246 102.478 165.246L102.478 165.246Q101.202 165.246 100.487 166.038Q99.772 166.830 99.772 168.194L99.772 168.194Q99.772 168.964 99.997 169.641Q100.223 170.317 100.646 170.828Q101.070 171.340 101.653 171.626Q102.236 171.912 102.951 171.912Z M112.653 170.856L112.653 170.856L112.653 165.378L112.895 165.400L112.895 170.856Q112.895 171.417 113.082 171.643Q113.269 171.868 113.731 171.868L113.731 171.868Q113.764 171.868 113.764 171.934Q113.764 172 113.731 172L113.731 172Q113.522 172 113.296 171.989Q113.070 171.978 112.796 171.978L112.796 171.978Q112.532 171.978 112.290 171.989Q112.047 172 111.828 172L111.828 172Q111.805 172 111.805 171.934Q111.805 171.868 111.828 171.868L111.828 171.868Q112.311 171.868 112.482 171.643Q112.653 171.417 112.653 170.856ZM118.097 171.285L118.186 172.121Q118.186 172.143 118.130 172.149Q118.076 172.154 118.053 172.143L118.053 172.143L113.082 166.027Q112.707 165.576 112.416 165.417Q112.124 165.257 111.861 165.257L111.861 165.257Q111.828 165.257 111.828 165.191Q111.828 165.125 111.861 165.125L111.861 165.125Q112.047 165.125 112.246 165.136Q112.444 165.147 112.597 165.147L112.597 165.147Q112.752 165.147 112.889 165.136Q113.026 165.125 113.093 165.125L113.093 165.125Q113.236 165.125 113.291 165.251Q113.346 165.378 113.599 165.697L113.599 165.697L118.097 171.285ZM118.186 166.280L118.186 166.280L118.186 172.121L117.944 171.780L117.944 166.280Q117.944 165.719 117.767 165.488Q117.591 165.257 117.130 165.257L117.130 165.257Q117.108 165.257 117.108 165.191Q117.108 165.125 117.130 165.125L117.130 165.125Q117.350 165.125 117.575 165.142Q117.800 165.158 118.076 165.158L118.076 165.158Q118.329 165.158 118.582 165.142Q118.835 165.125 119.043 165.125L119.043 165.125Q119.076 165.125 119.076 165.191Q119.076 165.257 119.043 165.257L119.043 165.257Q118.570 165.257 118.378 165.488Q118.186 165.719 118.186 166.280Z M125.248 166.456L125.248 166.456Q125.248 166.918 125.473 167.243Q125.698 167.567 126.056 167.809Q126.413 168.051 126.809 168.282L126.809 168.282Q127.216 168.513 127.591 168.772Q127.965 169.030 128.212 169.387Q128.459 169.745 128.459 170.273L128.459 170.273Q128.459 170.779 128.212 171.202Q127.965 171.626 127.469 171.879Q126.975 172.132 126.227 172.132L126.227 172.132Q125.984 172.132 125.748 172.099Q125.511 172.066 125.264 171.983Q125.017 171.901 124.731 171.758L124.731 171.758Q124.675 171.725 124.659 171.675Q124.642 171.626 124.632 171.549L124.632 171.549L124.466 170.119Q124.456 170.064 124.516 170.059Q124.576 170.053 124.588 170.097L124.588 170.097Q124.632 170.427 124.764 170.757Q124.895 171.087 125.121 171.362Q125.347 171.637 125.682 171.808Q126.017 171.978 126.469 171.978L126.469 171.978Q126.809 171.978 127.129 171.851Q127.448 171.725 127.651 171.439Q127.855 171.153 127.855 170.658L127.855 170.658Q127.855 170.119 127.618 169.762Q127.382 169.404 127.019 169.145Q126.656 168.887 126.249 168.656L126.249 168.656Q125.864 168.425 125.501 168.172Q125.138 167.919 124.912 167.572Q124.686 167.226 124.686 166.709L124.686 166.709Q124.686 166.137 124.972 165.757Q125.258 165.378 125.715 165.191Q126.171 165.004 126.666 165.004L126.666 165.004Q126.953 165.004 127.266 165.065Q127.579 165.125 127.921 165.268L127.921 165.268Q128.008 165.301 128.047 165.351Q128.085 165.400 128.085 165.455L128.085 165.455L128.185 166.621Q128.185 166.665 128.124 166.665Q128.064 166.665 128.053 166.621L128.053 166.621Q128.030 166.379 127.937 166.120Q127.844 165.862 127.662 165.642Q127.481 165.422 127.200 165.285Q126.919 165.147 126.523 165.147L126.523 165.147Q126.050 165.147 125.770 165.345Q125.490 165.543 125.368 165.840Q125.248 166.137 125.248 166.456Z M139.756 169.437L139.756 166.280Q139.756 165.752 139.531 165.505Q139.305 165.257 138.821 165.257L138.821 165.257Q138.788 165.257 138.788 165.191Q138.788 165.125 138.821 165.125L138.821 165.125Q139.063 165.125 139.322 165.142Q139.580 165.158 139.888 165.158L139.888 165.158Q140.141 165.158 140.400 165.142Q140.658 165.125 140.867 165.125L140.867 165.125Q140.889 165.125 140.889 165.191Q140.889 165.257 140.867 165.257L140.867 165.257Q140.427 165.257 140.213 165.505Q139.998 165.752 139.998 166.280L139.998 166.280L139.998 169.426Q139.998 170.295 139.679 170.900Q139.360 171.505 138.783 171.824Q138.205 172.143 137.435 172.143L137.435 172.143Q136.621 172.143 136.016 171.819Q135.411 171.494 135.081 170.905Q134.751 170.317 134.751 169.525L134.751 169.525L134.751 166.016Q134.751 165.697 134.680 165.537Q134.608 165.378 134.399 165.317Q134.190 165.257 133.772 165.257L133.772 165.257Q133.750 165.257 133.750 165.191Q133.750 165.125 133.772 165.125L133.772 165.125Q134.036 165.125 134.355 165.142Q134.674 165.158 135.037 165.158L135.037 165.158Q135.411 165.158 135.736 165.142Q136.060 165.125 136.302 165.125L136.302 165.125Q136.335 165.125 136.335 165.191Q136.335 165.257 136.302 165.257L136.302 165.257Q135.884 165.257 135.675 165.323Q135.466 165.389 135.400 165.554Q135.334 165.719 135.334 166.038L135.334 166.038L135.334 169.140Q135.334 170.438 135.939 171.131Q136.544 171.824 137.633 171.824L137.633 171.824Q138.645 171.824 139.201 171.186Q139.756 170.548 139.756 169.437L139.756 169.437Z M146.851 170.856L146.851 170.856L146.962 165.378L147.203 165.400L147.105 170.856Q147.094 171.417 147.286 171.643Q147.478 171.868 148.029 171.868L148.029 171.868Q148.050 171.868 148.050 171.934Q148.050 172 148.029 172L148.029 172Q147.786 172 147.528 171.989Q147.269 171.978 146.962 171.978L146.962 171.978Q146.697 171.978 146.456 171.989Q146.213 172 145.993 172L145.993 172Q145.971 172 145.971 171.934Q145.971 171.868 145.993 171.868L145.993 171.868Q146.456 171.868 146.648 171.643Q146.840 171.417 146.851 170.856ZM154.409 171.868L154.409 171.868Q154.441 171.868 154.441 171.934Q154.441 172 154.409 172L154.409 172Q154.144 172 153.820 171.989Q153.495 171.978 153.132 171.978L153.132 171.978Q152.791 171.978 152.505 171.989Q152.219 172 151.988 172L151.988 172Q151.966 172 151.966 171.934Q151.966 171.868 151.988 171.868L151.988 171.868Q152.538 171.868 152.698 171.725Q152.857 171.582 152.835 171.109L152.835 171.109L152.637 165.686L152.957 165.279L150.075 171.923Q150.064 171.967 149.987 171.967Q149.909 171.967 149.887 171.923L149.887 171.923L147.203 166.038Q146.851 165.257 146.070 165.257L146.070 165.257Q146.048 165.257 146.048 165.191Q146.048 165.125 146.070 165.125L146.070 165.125Q146.236 165.125 146.422 165.136Q146.609 165.147 146.731 165.147L146.731 165.147Q146.885 165.147 147.017 165.136Q147.148 165.125 147.214 165.125L147.214 165.125Q147.368 165.125 147.457 165.224Q147.544 165.323 147.720 165.697L147.720 165.697L150.239 171.142L149.953 171.604L152.659 165.400Q152.714 165.279 152.808 165.202Q152.901 165.125 152.989 165.125L152.989 165.125Q153.044 165.125 153.154 165.136Q153.264 165.147 153.407 165.147L153.407 165.147Q153.694 165.147 153.869 165.136Q154.046 165.125 154.243 165.125L154.243 165.125Q154.266 165.125 154.266 165.191Q154.266 165.257 154.243 165.257L154.243 165.257Q153.704 165.257 153.451 165.394Q153.198 165.532 153.209 165.994L153.209 165.994L153.418 171.109Q153.429 171.428 153.501 171.593Q153.572 171.758 153.781 171.813Q153.990 171.868 154.409 171.868Z M164.088 172L164.088 172L159.546 172Q159.523 172 159.523 171.934Q159.523 171.868 159.546 171.868L159.546 171.868Q159.963 171.868 160.172 171.813Q160.381 171.758 160.453 171.593Q160.524 171.428 160.524 171.109L160.524 171.109L160.524 166.016Q160.524 165.697 160.453 165.537Q160.381 165.378 160.172 165.317Q159.963 165.257 159.546 165.257L159.546 165.257Q159.523 165.257 159.523 165.191Q159.523 165.125 159.546 165.125L159.546 165.125L163.901 165.125Q164.000 165.125 164.000 165.224L164.000 165.224L164.023 166.555Q164.023 166.588 163.962 166.588Q163.901 166.588 163.901 166.555L163.901 166.555Q163.901 165.983 163.605 165.659Q163.308 165.334 162.823 165.334L162.823 165.334L162.064 165.334Q161.657 165.334 161.454 165.389Q161.250 165.444 161.179 165.603Q161.107 165.763 161.107 166.082L161.107 166.082L161.107 171.065Q161.107 171.373 161.179 171.527Q161.250 171.681 161.454 171.736Q161.657 171.791 162.064 171.791L162.064 171.791L163.076 171.791Q163.517 171.791 163.835 171.406Q164.154 171.021 164.231 170.394L164.231 170.394Q164.231 170.361 164.297 170.367Q164.363 170.372 164.363 170.405L164.363 170.405Q164.320 170.691 164.292 171.093Q164.264 171.494 164.264 171.835L164.264 171.835Q164.264 172 164.088 172ZM163.472 169.415L163.472 169.415Q163.472 168.920 163.263 168.722Q163.054 168.524 162.526 168.524L162.526 168.524L160.832 168.524L160.832 168.315L162.559 168.315Q163.065 168.315 163.263 168.144Q163.462 167.974 163.462 167.556L163.462 167.556Q163.462 167.534 163.528 167.534Q163.594 167.534 163.594 167.556L163.594 167.556Q163.594 167.875 163.588 168.051Q163.582 168.227 163.582 168.425L163.582 168.425Q163.582 168.667 163.594 168.904Q163.605 169.140 163.605 169.415L163.605 169.415Q163.605 169.437 163.538 169.437Q163.472 169.437 163.472 169.415Z M175.484 172L175.484 172Q175.298 172 174.869 171.571Q174.440 171.142 173.834 170.345Q173.230 169.547 172.482 168.458L172.482 168.458L173.010 168.293Q173.956 169.624 174.615 170.411Q175.275 171.197 175.781 171.532Q176.287 171.868 176.761 171.868L176.761 171.868Q176.793 171.868 176.793 171.934Q176.793 172 176.761 172L176.761 172Q176.266 172 175.952 172Q175.638 172 175.484 172ZM172.613 165.092L172.613 165.092Q173.460 165.092 173.906 165.499Q174.351 165.906 174.351 166.555L174.351 166.555Q174.351 167.138 174.011 167.611Q173.669 168.084 173.103 168.359Q172.536 168.634 171.855 168.634L171.855 168.634Q171.756 168.634 171.624 168.623Q171.492 168.612 171.381 168.601L171.381 168.601L171.381 171.109Q171.381 171.428 171.447 171.593Q171.513 171.758 171.728 171.813Q171.942 171.868 172.361 171.868L172.361 171.868Q172.393 171.868 172.393 171.934Q172.393 172 172.361 172L172.361 172Q172.096 172 171.783 171.989Q171.470 171.978 171.084 171.978L171.084 171.978Q170.732 171.978 170.403 171.989Q170.072 172 169.809 172L169.809 172Q169.786 172 169.786 171.934Q169.786 171.868 169.809 171.868L169.809 171.868Q170.226 171.868 170.441 171.813Q170.655 171.758 170.732 171.593Q170.810 171.428 170.810 171.109L170.810 171.109L170.810 166.016Q170.810 165.697 170.738 165.537Q170.667 165.378 170.458 165.317Q170.249 165.257 169.831 165.257L169.831 165.257Q169.798 165.257 169.798 165.191Q169.798 165.125 169.831 165.125L169.831 165.125Q170.083 165.125 170.408 165.142Q170.732 165.158 171.084 165.158L171.084 165.158Q171.425 165.158 171.876 165.125Q172.327 165.092 172.613 165.092ZM173.736 166.852L173.736 166.852Q173.736 166.258 173.543 165.906Q173.351 165.554 172.993 165.394Q172.636 165.235 172.130 165.235L172.130 165.235Q171.733 165.235 171.558 165.378Q171.381 165.521 171.381 166.038L171.381 166.038L171.381 168.348Q171.536 168.359 171.717 168.370Q171.899 168.381 172.042 168.381L172.042 168.381Q172.988 168.381 173.362 167.985Q173.736 167.589 173.736 166.852Z M189.553 166.456L189.553 166.456Q189.553 166.918 189.779 167.243Q190.004 167.567 190.362 167.809Q190.719 168.051 191.115 168.282L191.115 168.282Q191.522 168.513 191.896 168.772Q192.270 169.030 192.518 169.387Q192.765 169.745 192.765 170.273L192.765 170.273Q192.765 170.779 192.518 171.202Q192.270 171.626 191.775 171.879Q191.280 172.132 190.532 172.132L190.532 172.132Q190.290 172.132 190.054 172.099Q189.817 172.066 189.570 171.983Q189.322 171.901 189.036 171.758L189.036 171.758Q188.981 171.725 188.965 171.675Q188.948 171.626 188.937 171.549L188.937 171.549L188.772 170.119Q188.761 170.064 188.822 170.059Q188.882 170.053 188.893 170.097L188.893 170.097Q188.937 170.427 189.069 170.757Q189.201 171.087 189.427 171.362Q189.652 171.637 189.988 171.808Q190.323 171.978 190.774 171.978L190.774 171.978Q191.115 171.978 191.434 171.851Q191.753 171.725 191.957 171.439Q192.160 171.153 192.160 170.658L192.160 170.658Q192.160 170.119 191.924 169.762Q191.687 169.404 191.324 169.145Q190.961 168.887 190.554 168.656L190.554 168.656Q190.169 168.425 189.806 168.172Q189.443 167.919 189.218 167.572Q188.992 167.226 188.992 166.709L188.992 166.709Q188.992 166.137 189.278 165.757Q189.564 165.378 190.021 165.191Q190.477 165.004 190.972 165.004L190.972 165.004Q191.258 165.004 191.572 165.065Q191.885 165.125 192.226 165.268L192.226 165.268Q192.314 165.301 192.353 165.351Q192.391 165.400 192.391 165.455L192.391 165.455L192.490 166.621Q192.490 166.665 192.430 166.665Q192.369 166.665 192.358 166.621L192.358 166.621Q192.336 166.379 192.243 166.120Q192.149 165.862 191.968 165.642Q191.786 165.422 191.506 165.285Q191.225 165.147 190.829 165.147L190.829 165.147Q190.356 165.147 190.076 165.345Q189.795 165.543 189.674 165.840Q189.553 166.137 189.553 166.456Z M199.750 165.312L199.750 165.312Q199.057 165.312 198.744 165.642Q198.430 165.972 198.309 166.819L198.309 166.819Q198.309 166.841 198.243 166.841Q198.177 166.841 198.177 166.819L198.177 166.819Q198.199 166.687 198.227 166.434Q198.254 166.181 198.276 165.889Q198.298 165.598 198.315 165.328Q198.331 165.059 198.331 164.883L198.331 164.883Q198.331 164.828 198.397 164.828Q198.463 164.828 198.463 164.883L198.463 164.883Q198.463 164.993 198.568 165.042Q198.672 165.092 198.810 165.108Q198.947 165.125 199.046 165.125L199.046 165.125Q199.992 165.158 201.257 165.158L201.257 165.158Q202.038 165.158 202.495 165.142Q202.951 165.125 203.380 165.125L203.380 165.125Q203.743 165.125 203.947 165.076Q204.150 165.026 204.205 164.850L204.205 164.850Q204.216 164.806 204.271 164.806Q204.326 164.806 204.326 164.850L204.326 164.850Q204.315 165.015 204.293 165.290Q204.271 165.565 204.260 165.868Q204.249 166.170 204.238 166.429Q204.227 166.687 204.227 166.819L204.227 166.819Q204.227 166.841 204.161 166.841Q204.095 166.841 204.095 166.819L204.095 166.819Q204.095 165.972 203.809 165.642Q203.523 165.312 202.764 165.312L202.764 165.312Q202.247 165.312 201.989 165.351Q201.730 165.389 201.648 165.537Q201.565 165.686 201.565 166.038L201.565 166.038L201.565 171.109Q201.565 171.428 201.642 171.593Q201.719 171.758 201.956 171.813Q202.192 171.868 202.676 171.868L202.676 171.868Q202.698 171.868 202.698 171.934Q202.698 172 202.676 172L202.676 172Q202.390 172 202.033 171.989Q201.675 171.978 201.257 171.978L201.257 171.978Q200.861 171.978 200.504 171.989Q200.146 172 199.849 172L199.849 172Q199.827 172 199.827 171.934Q199.827 171.868 199.849 171.868L199.849 171.868Q200.322 171.868 200.564 171.813Q200.806 171.758 200.889 171.593Q200.971 171.428 200.971 171.109L200.971 171.109L200.971 166.016Q200.971 165.664 200.883 165.516Q200.795 165.367 200.531 165.339Q200.267 165.312 199.750 165.312Z M215.282 172L215.282 172Q215.095 172 214.666 171.571Q214.237 171.142 213.632 170.345Q213.027 169.547 212.279 168.458L212.279 168.458L212.807 168.293Q213.753 169.624 214.413 170.411Q215.073 171.197 215.579 171.532Q216.085 171.868 216.558 171.868L216.558 171.868Q216.591 171.868 216.591 171.934Q216.591 172 216.558 172L216.558 172Q216.063 172 215.750 172Q215.436 172 215.282 172ZM212.411 165.092L212.411 165.092Q213.258 165.092 213.704 165.499Q214.149 165.906 214.149 166.555L214.149 166.555Q214.149 167.138 213.808 167.611Q213.467 168.084 212.901 168.359Q212.334 168.634 211.652 168.634L211.652 168.634Q211.553 168.634 211.421 168.623Q211.289 168.612 211.179 168.601L211.179 168.601L211.179 171.109Q211.179 171.428 211.245 171.593Q211.311 171.758 211.526 171.813Q211.740 171.868 212.158 171.868L212.158 171.868Q212.191 171.868 212.191 171.934Q212.191 172 212.158 172L212.158 172Q211.894 172 211.581 171.989Q211.267 171.978 210.882 171.978L210.882 171.978Q210.530 171.978 210.200 171.989Q209.870 172 209.606 172L209.606 172Q209.584 172 209.584 171.934Q209.584 171.868 209.606 171.868L209.606 171.868Q210.024 171.868 210.239 171.813Q210.453 171.758 210.530 171.593Q210.607 171.428 210.607 171.109L210.607 171.109L210.607 166.016Q210.607 165.697 210.536 165.537Q210.464 165.378 210.255 165.317Q210.046 165.257 209.628 165.257L209.628 165.257Q209.595 165.257 209.595 165.191Q209.595 165.125 209.628 165.125L209.628 165.125Q209.881 165.125 210.206 165.142Q210.530 165.158 210.882 165.158L210.882 165.158Q211.223 165.158 211.674 165.125Q212.125 165.092 212.411 165.092ZM213.533 166.852L213.533 166.852Q213.533 166.258 213.341 165.906Q213.148 165.554 212.791 165.394Q212.433 165.235 211.927 165.235L211.927 165.235Q211.531 165.235 211.355 165.378Q211.179 165.521 211.179 166.038L211.179 166.038L211.179 168.348Q211.333 168.359 211.515 168.370Q211.696 168.381 211.839 168.381L211.839 168.381Q212.785 168.381 213.159 167.985Q213.533 167.589 213.533 166.852Z M226.084 168.843L223.059 168.843L223.158 168.645L226.007 168.645L226.084 168.843ZM228.493 171.868L228.493 171.868Q228.537 171.868 228.537 171.934Q228.537 172 228.493 172L228.493 172Q228.185 172 227.861 171.978Q227.536 171.956 227.239 171.956L227.239 171.956Q226.898 171.956 226.651 171.978Q226.403 172 226.106 172L226.106 172Q226.062 172 226.062 171.934Q226.062 171.868 226.106 171.868L226.106 171.868Q226.722 171.868 226.882 171.703Q227.041 171.538 226.832 171.076L226.832 171.076L224.346 165.730L224.555 165.543L222.432 170.647Q222.157 171.318 222.388 171.593Q222.619 171.868 223.367 171.868L223.367 171.868Q223.422 171.868 223.422 171.934Q223.422 172 223.367 172L223.367 172Q223.037 172 222.762 171.978Q222.487 171.956 222.069 171.956L222.069 171.956Q221.684 171.956 221.448 171.978Q221.211 172 220.881 172L220.881 172Q220.837 172 220.837 171.934Q220.837 171.868 220.881 171.868L220.881 171.868Q221.178 171.868 221.398 171.758Q221.618 171.648 221.811 171.362Q222.003 171.076 222.223 170.548L222.223 170.548L224.522 165.015Q224.544 164.982 224.594 164.982Q224.643 164.982 224.654 165.015L224.654 165.015L227.206 170.493Q227.459 171.043 227.657 171.345Q227.855 171.648 228.053 171.758Q228.251 171.868 228.493 171.868Z M234.917 165.312L234.917 165.312Q234.224 165.312 233.911 165.642Q233.597 165.972 233.476 166.819L233.476 166.819Q233.476 166.841 233.410 166.841Q233.344 166.841 233.344 166.819L233.344 166.819Q233.366 166.687 233.394 166.434Q233.421 166.181 233.443 165.889Q233.465 165.598 233.482 165.328Q233.498 165.059 233.498 164.883L233.498 164.883Q233.498 164.828 233.564 164.828Q233.630 164.828 233.630 164.883L233.630 164.883Q233.630 164.993 233.735 165.042Q233.839 165.092 233.977 165.108Q234.114 165.125 234.213 165.125L234.213 165.125Q235.159 165.158 236.424 165.158L236.424 165.158Q237.205 165.158 237.662 165.142Q238.118 165.125 238.547 165.125L238.547 165.125Q238.910 165.125 239.114 165.076Q239.317 165.026 239.372 164.850L239.372 164.850Q239.383 164.806 239.438 164.806Q239.493 164.806 239.493 164.850L239.493 164.850Q239.482 165.015 239.460 165.290Q239.438 165.565 239.427 165.868Q239.416 166.170 239.405 166.429Q239.394 166.687 239.394 166.819L239.394 166.819Q239.394 166.841 239.328 166.841Q239.262 166.841 239.262 166.819L239.262 166.819Q239.262 165.972 238.976 165.642Q238.690 165.312 237.931 165.312L237.931 165.312Q237.414 165.312 237.156 165.351Q236.897 165.389 236.815 165.537Q236.732 165.686 236.732 166.038L236.732 166.038L236.732 171.109Q236.732 171.428 236.809 171.593Q236.886 171.758 237.123 171.813Q237.359 171.868 237.843 171.868L237.843 171.868Q237.865 171.868 237.865 171.934Q237.865 172 237.843 172L237.843 172Q237.557 172 237.200 171.989Q236.842 171.978 236.424 171.978L236.424 171.978Q236.028 171.978 235.671 171.989Q235.313 172 235.016 172L235.016 172Q234.994 172 234.994 171.934Q234.994 171.868 235.016 171.868L235.016 171.868Q235.489 171.868 235.731 171.813Q235.973 171.758 236.056 171.593Q236.138 171.428 236.138 171.109L236.138 171.109L236.138 166.016Q236.138 165.664 236.050 165.516Q235.962 165.367 235.698 165.339Q235.434 165.312 234.917 165.312Z M249.316 172L249.316 172L244.773 172Q244.751 172 244.751 171.934Q244.751 171.868 244.773 171.868L244.773 171.868Q245.191 171.868 245.400 171.813Q245.609 171.758 245.681 171.593Q245.752 171.428 245.752 171.109L245.752 171.109L245.752 166.016Q245.752 165.697 245.681 165.537Q245.609 165.378 245.400 165.317Q245.191 165.257 244.773 165.257L244.773 165.257Q244.751 165.257 244.751 165.191Q244.751 165.125 244.773 165.125L244.773 165.125L249.129 165.125Q249.228 165.125 249.228 165.224L249.228 165.224L249.250 166.555Q249.250 166.588 249.190 166.588Q249.129 166.588 249.129 166.555L249.129 166.555Q249.129 165.983 248.832 165.659Q248.535 165.334 248.051 165.334L248.051 165.334L247.292 165.334Q246.885 165.334 246.682 165.389Q246.478 165.444 246.407 165.603Q246.335 165.763 246.335 166.082L246.335 166.082L246.335 171.065Q246.335 171.373 246.407 171.527Q246.478 171.681 246.682 171.736Q246.885 171.791 247.292 171.791L247.292 171.791L248.304 171.791Q248.744 171.791 249.063 171.406Q249.382 171.021 249.459 170.394L249.459 170.394Q249.459 170.361 249.525 170.367Q249.591 170.372 249.591 170.405L249.591 170.405Q249.547 170.691 249.520 171.093Q249.492 171.494 249.492 171.835L249.492 171.835Q249.492 172 249.316 172ZM248.700 169.415L248.700 169.415Q248.700 168.920 248.491 168.722Q248.282 168.524 247.754 168.524L247.754 168.524L246.060 168.524L246.060 168.315L247.787 168.315Q248.293 168.315 248.491 168.144Q248.689 167.974 248.689 167.556L248.689 167.556Q248.689 167.534 248.755 167.534Q248.821 167.534 248.821 167.556L248.821 167.556Q248.821 167.875 248.816 168.051Q248.810 168.227 248.810 168.425L248.810 168.425Q248.810 168.667 248.821 168.904Q248.832 169.140 248.832 169.415L248.832 169.415Q248.832 169.437 248.766 169.437Q248.700 169.437 248.700 169.415Z M259.007 172.132L259.007 172.132Q258.083 172.132 257.352 171.846Q256.620 171.560 256.120 171.054Q255.619 170.548 255.355 169.893Q255.091 169.239 255.091 168.502L255.091 168.502Q255.091 167.677 255.405 167.034Q255.718 166.390 256.274 165.934Q256.829 165.477 257.572 165.240Q258.314 165.004 259.172 165.004L259.172 165.004Q259.788 165.004 260.294 165.125Q260.800 165.246 261.142 165.466L261.142 165.466Q261.219 165.510 261.229 165.543Q261.240 165.576 261.251 165.708L261.251 165.708L261.383 166.940Q261.383 166.973 261.328 166.984Q261.273 166.995 261.251 166.962L261.251 166.962Q261.130 166.511 260.949 166.175Q260.767 165.840 260.498 165.620Q260.228 165.400 259.865 165.285Q259.502 165.169 259.018 165.169L259.018 165.169Q258.116 165.169 257.390 165.554Q256.664 165.939 256.241 166.654Q255.817 167.369 255.817 168.359L255.817 168.359Q255.817 168.997 256.021 169.641Q256.224 170.284 256.648 170.812Q257.071 171.340 257.731 171.659Q258.392 171.978 259.304 171.978L259.304 171.978Q259.854 171.978 260.179 171.835Q260.503 171.692 260.647 171.395Q260.789 171.098 260.789 170.625L260.789 170.625Q260.789 170.097 260.718 169.850Q260.647 169.602 260.377 169.525Q260.107 169.448 259.502 169.448L259.502 169.448Q259.436 169.448 259.436 169.360Q259.436 169.272 259.491 169.272L259.491 169.272Q260.173 169.316 260.734 169.322Q261.296 169.327 261.911 169.294L261.911 169.294Q261.966 169.294 261.966 169.371Q261.966 169.448 261.911 169.448L261.911 169.448Q261.636 169.437 261.510 169.519Q261.383 169.602 261.350 169.877Q261.317 170.152 261.317 170.735L261.317 170.735Q261.317 171.098 261.339 171.274Q261.361 171.450 261.378 171.532Q261.394 171.615 261.394 171.703L261.394 171.703Q261.394 171.769 261.373 171.791Q261.350 171.813 261.273 171.835L261.273 171.835Q260.724 171.956 260.124 172.044Q259.524 172.132 259.007 172.132Z M270.194 168.964L270.018 168.810L271.734 166.214Q272.042 165.730 271.954 165.494Q271.866 165.257 271.382 165.257L271.382 165.257Q271.360 165.257 271.360 165.191Q271.360 165.125 271.382 165.125L271.382 165.125Q271.668 165.125 271.932 165.142Q272.196 165.158 272.614 165.158L272.614 165.158Q272.889 165.158 273.060 165.142Q273.230 165.125 273.472 165.125L273.472 165.125Q273.494 165.125 273.494 165.191Q273.494 165.257 273.472 165.257L273.472 165.257Q273.197 165.257 272.933 165.373Q272.669 165.488 272.433 165.708Q272.196 165.928 271.987 166.247L271.987 166.247L270.194 168.964ZM270.436 168.513L270.029 169.019L267.972 166.038Q267.686 165.609 267.411 165.433Q267.136 165.257 266.729 165.257L266.729 165.257Q266.696 165.257 266.696 165.191Q266.696 165.125 266.729 165.125L266.729 165.125Q266.916 165.125 267.131 165.142Q267.345 165.158 267.532 165.158L267.532 165.158Q267.829 165.158 268.088 165.153Q268.346 165.147 268.577 165.136Q268.808 165.125 268.995 165.125L268.995 165.125Q269.017 165.125 269.017 165.191Q269.017 165.257 268.995 165.257L268.995 165.257Q268.544 165.257 268.423 165.356Q268.302 165.455 268.478 165.697L268.478 165.697L270.436 168.513ZM269.853 171.109L269.853 168.590L270.436 168.491L270.436 171.109Q270.436 171.428 270.502 171.593Q270.568 171.758 270.777 171.813Q270.986 171.868 271.404 171.868L271.404 171.868Q271.437 171.868 271.437 171.934Q271.437 172 271.404 172L271.404 172Q271.151 172 270.832 171.989Q270.513 171.978 270.139 171.978L270.139 171.978Q269.776 171.978 269.446 171.989Q269.116 172 268.863 172L268.863 172Q268.830 172 268.830 171.934Q268.830 171.868 268.863 171.868L268.863 171.868Q269.281 171.868 269.496 171.813Q269.710 171.758 269.782 171.593Q269.853 171.428 269.853 171.109L269.853 171.109Z" fill="#F7F5F2" opacity="0.7"></path>
</svg>