<svg xmlns="http://www.w3.org/2000/svg" width="200" height="200" viewBox="0 0 200 200">
  <rect x="20" y="20" width="160" height="160" fill="none" stroke="#F7F5F2" stroke-width="3.5999999999999996"></rect>
  <path d="M68.250 77.120L68.250 77.120Q61.320 77.120 58.185 80.420Q55.050 83.720 53.840 92.190L53.840 92.190Q53.840 92.410 53.180 92.410Q52.520 92.410 52.520 92.190L52.520 92.190Q52.740 90.870 53.015 88.340Q53.290 85.810 53.510 82.895Q53.730 79.980 53.895 77.285Q54.060 74.590 54.060 72.830L54.060 72.830Q54.060 72.280 54.720 72.280Q55.380 72.280 55.380 72.830L55.380 72.830Q55.380 73.930 56.425 74.425Q57.470 74.920 58.845 75.085Q60.220 75.250 61.210 75.250L61.210 75.250Q70.670 75.580 83.320 75.580L83.320 75.580Q91.130 75.580 95.695 75.415Q100.260 75.250 104.550 75.250L104.550 75.250Q108.180 75.250 110.215 74.755Q112.250 74.260 112.800 72.500L112.800 72.500Q112.910 72.060 113.460 72.060Q114.010 72.060 114.010 72.500L114.010 72.500Q113.900 74.150 113.680 76.900Q113.460 79.650 113.350 82.675Q113.240 85.700 113.130 88.285Q113.020 90.870 113.020 92.190L113.020 92.190Q113.020 92.410 112.360 92.410Q111.700 92.410 111.700 92.190L111.700 92.190Q111.700 83.720 108.840 80.420Q105.980 77.120 98.390 77.120L98.390 77.120Q93.220 77.120 90.635 77.505Q88.050 77.890 87.225 79.375Q86.400 80.860 86.400 84.380L86.400 84.380L86.400 135.090Q86.400 138.280 87.170 139.930Q87.940 141.580 90.305 142.130Q92.670 142.680 97.510 142.680L97.510 142.680Q97.730 142.680 97.730 143.340Q97.730 144 97.510 144L97.510 144Q94.650 144 91.075 143.890Q87.500 143.780 83.320 143.780L83.320 143.780Q79.360 143.780 75.785 143.890Q72.210 144 69.240 144L69.240 144Q69.020 144 69.020 143.340Q69.020 142.680 69.240 142.680L69.240 142.680Q73.970 142.680 76.390 142.130Q78.810 141.580 79.635 139.930Q80.460 138.280 80.460 135.090L80.460 135.090L80.460 84.160Q80.460 80.640 79.580 79.155Q78.700 77.670 76.060 77.395Q73.420 77.120 68.250 77.120Z" fill="#F7F5F2"></path>
  <path d="M124.930 108.580L124.930 108.580Q124.930 111.550 126.415 113.585Q127.900 115.620 130.265 116.995Q132.630 118.370 135.160 119.690L135.160 119.690Q138.020 121.010 140.550 122.605Q143.080 124.200 144.730 126.400Q146.380 128.600 146.380 132.120L146.380 132.120Q146.380 135.640 144.620 138.610Q142.860 141.580 139.395 143.395Q135.930 145.210 130.980 145.210L130.980 145.210Q128.340 145.210 125.810 144.495Q123.280 143.780 120.640 141.800L120.640 141.800Q120.420 141.580 120.200 141.250Q119.980 140.920 119.980 140.480L119.980 140.480L119.760 132.560Q119.760 132.230 120.365 132.175Q120.970 132.120 121.080 132.450L121.080 132.450Q122.510 136.190 124.435 138.555Q126.360 140.920 128.780 142.020Q131.200 143.120 134.170 143.120L134.170 143.120Q138.020 143.120 140.055 141.305Q142.090 139.490 141.870 135.860L141.870 135.860Q141.760 132.670 140.220 130.690Q138.680 128.710 136.370 127.390Q134.060 126.070 131.530 124.860L131.530 124.860Q128.780 123.540 126.305 122.055Q123.830 120.570 122.235 118.260Q120.640 115.950 120.640 112.320L120.640 112.320Q120.640 108.140 122.840 105.445Q125.040 102.750 128.395 101.430Q131.750 100.110 135.380 100.110L135.380 100.110Q137.360 100.110 139.340 100.495Q141.320 100.880 143.190 101.760L143.190 101.760Q144.180 102.200 144.180 102.970L144.180 102.970Q144.180 104.620 144.070 106.490Q143.960 108.360 143.960 110.560L143.960 110.560Q143.960 110.780 143.300 110.780Q142.640 110.780 142.640 110.560L142.640 110.560Q142.640 108.030 140.825 106.160Q139.010 104.290 136.425 103.300Q133.840 102.310 131.310 102.310L131.310 102.310Q128.340 102.310 126.635 103.850Q124.930 105.390 124.930 108.580Z" fill="#C4622D"></path>
</svg>