<svg xmlns="http://www.w3.org/2000/svg" width="560" height="130" viewBox="0 0 560 130">
  <g transform="translate(38,65) scale(0.30)"><path d="M 0 -92 L 15 -15 L 92 0 L 15 15 L 0 92 L -15 15 L -92 0 L -15 -15 Z" fill="#C4622D"></path></g>
  <path d="M110.080 20.952L110.080 20.952Q106.552 20.952 104.956 22.632Q103.360 24.312 102.744 28.624L102.744 28.624Q102.744 28.736 102.408 28.736Q102.072 28.736 102.072 28.624L102.072 28.624Q102.184 27.952 102.324 26.664Q102.464 25.376 102.576 23.892Q102.688 22.408 102.772 21.036Q102.856 19.664 102.856 18.768L102.856 18.768Q102.856 18.488 103.192 18.488Q103.528 18.488 103.528 18.768L103.528 18.768Q103.528 19.328 104.060 19.580Q104.592 19.832 105.292 19.916Q105.992 20 106.496 20L106.496 20Q111.312 20.168 117.752 20.168L117.752 20.168Q121.728 20.168 124.052 20.084Q126.376 20 128.560 20L128.560 20Q130.408 20 131.444 19.748Q132.480 19.496 132.760 18.600L132.760 18.600Q132.816 18.376 133.096 18.376Q133.376 18.376 133.376 18.600L133.376 18.600Q133.320 19.440 133.208 20.840Q133.096 22.240 133.040 23.780Q132.984 25.320 132.928 26.636Q132.872 27.952 132.872 28.624L132.872 28.624Q132.872 28.736 132.536 28.736Q132.200 28.736 132.200 28.624L132.200 28.624Q132.200 24.312 130.744 22.632Q129.288 20.952 125.424 20.952L125.424 20.952Q122.792 20.952 121.476 21.148Q120.160 21.344 119.740 22.100Q119.320 22.856 119.320 24.648L119.320 24.648L119.320 50.464Q119.320 52.088 119.712 52.928Q120.104 53.768 121.308 54.048Q122.512 54.328 124.976 54.328L124.976 54.328Q125.088 54.328 125.088 54.664Q125.088 55 124.976 55L124.976 55Q123.520 55 121.700 54.944Q119.880 54.888 117.752 54.888L117.752 54.888Q115.736 54.888 113.916 54.944Q112.096 55 110.584 55L110.584 55Q110.472 55 110.472 54.664Q110.472 54.328 110.584 54.328L110.584 54.328Q112.992 54.328 114.224 54.048Q115.456 53.768 115.876 52.928Q116.296 52.088 116.296 50.464L116.296 50.464L116.296 24.536Q116.296 22.744 115.848 21.988Q115.400 21.232 114.056 21.092Q112.712 20.952 110.080 20.952Z M142.676 39.824L142.676 39.824L142.452 39.264Q144.524 36.688 145.840 35.316Q147.156 33.944 148.108 33.412Q149.060 32.880 149.956 32.880L149.956 32.880Q151.132 32.880 152.252 33.496Q153.372 34.112 153.372 35.008L153.372 35.008Q153.372 35.568 152.952 36.016Q152.532 36.464 151.748 36.464L151.748 36.464Q151.076 36.464 150.600 36.072Q150.124 35.680 149.564 35.316Q149.004 34.952 148.052 34.952L148.052 34.952Q147.548 34.952 146.960 35.260Q146.372 35.568 145.392 36.604Q144.412 37.640 142.676 39.824ZM137.468 55L137.468 55Q137.300 55 137.300 54.664Q137.300 54.328 137.468 54.328L137.468 54.328Q139.764 54.328 140.436 53.600Q141.108 52.872 141.108 50.464L141.108 50.464L141.108 39.264Q141.108 37.360 140.660 36.492Q140.212 35.624 139.092 35.624L139.092 35.624Q138.532 35.624 137.748 35.848Q136.964 36.072 135.956 36.464L135.956 36.464Q135.732 36.520 135.592 36.240Q135.452 35.960 135.676 35.848L135.676 35.848L141.892 32.936Q142.004 32.880 142.172 32.880L142.172 32.880Q142.564 32.880 143.152 34.028Q143.740 35.176 143.740 37.360L143.740 37.360L143.740 50.464Q143.740 52.088 144.132 52.928Q144.524 53.768 145.728 54.048Q146.932 54.328 149.340 54.328L149.340 54.328Q149.508 54.328 149.508 54.664Q149.508 55 149.340 55L149.340 55Q147.996 55 146.204 54.944Q144.412 54.888 142.452 54.888L142.452 54.888Q141.052 54.888 139.736 54.944Q138.420 55 137.468 55Z M164.632 55.392L164.632 55.392Q161.944 55.392 160.376 53.684Q158.808 51.976 158.808 48.560L158.808 48.560L158.808 39.880Q158.808 37.584 158.472 36.604Q158.136 35.624 157.184 35.624L157.184 35.624Q156.344 35.624 155.168 36.184L155.168 36.184Q154.944 36.296 154.804 35.960Q154.664 35.624 154.888 35.568L154.888 35.568L160.768 32.936Q160.880 32.880 160.992 32.880L160.992 32.880Q161.104 32.880 161.272 32.992Q161.440 33.104 161.440 33.272L161.440 33.272L161.440 46.880Q161.440 50.296 162.616 51.892Q163.792 53.488 166.144 53.488L166.144 53.488Q168.440 53.488 170.736 52.116Q173.032 50.744 174.768 48.336L174.768 48.336L175.048 48.952Q172.304 52.424 169.784 53.908Q167.264 55.392 164.632 55.392ZM176.336 33.272L176.336 33.272L176.336 49.120Q176.336 51.024 176.812 51.892Q177.288 52.760 178.408 52.760L178.408 52.760Q179.024 52.760 179.752 52.536Q180.480 52.312 181.544 51.920L181.544 51.920Q181.824 51.808 181.936 52.116Q182.048 52.424 181.824 52.536L181.824 52.536L175.552 55.448Q175.440 55.504 175.328 55.504L175.328 55.504Q174.936 55.504 174.348 54.356Q173.760 53.208 173.760 51.024L173.760 51.024L173.760 39.880Q173.760 37.584 173.396 36.604Q173.032 35.624 172.080 35.624L172.080 35.624Q171.240 35.624 170.064 36.184L170.064 36.184Q169.840 36.296 169.728 35.960Q169.616 35.624 169.840 35.568L169.840 35.568L175.720 32.936Q175.832 32.880 175.888 32.880L175.888 32.880Q176 32.880 176.168 32.992Q176.336 33.104 176.336 33.272Z M193.532 55.672L193.532 55.672Q190.228 55.672 188.016 54.132Q185.804 52.592 184.684 50.128Q183.564 47.664 183.564 44.920L183.564 44.920Q183.564 41.504 185.132 38.788Q186.700 36.072 189.360 34.476Q192.020 32.880 195.156 32.880L195.156 32.880Q198.348 32.880 199.916 34.616Q201.484 36.352 201.484 39.264L201.484 39.264Q201.484 39.992 201.344 40.328Q201.204 40.664 200.812 40.664L200.812 40.664L198.180 40.664Q198.460 37.192 197.088 35.596Q195.716 34 193.364 34L193.364 34Q190.228 34 188.492 36.380Q186.756 38.760 186.756 42.904L186.756 42.904Q186.756 46.040 187.764 48.532Q188.772 51.024 190.732 52.452Q192.692 53.880 195.492 53.880L195.492 53.880Q197.452 53.880 198.712 53.292Q199.972 52.704 201.148 51.976L201.148 51.976Q201.260 51.864 201.456 52.116Q201.652 52.368 201.540 52.536L201.540 52.536Q199.580 54.216 197.592 54.944Q195.604 55.672 193.532 55.672ZM198.740 40.664L186.028 40.720L185.972 40.048L198.740 39.824L198.740 40.664Z M224.004 26.776L224.004 26.776Q224.004 29.128 225.152 30.780Q226.300 32.432 228.120 33.664Q229.940 34.896 231.956 36.072L231.956 36.072Q234.028 37.248 235.932 38.564Q237.836 39.880 239.096 41.700Q240.356 43.520 240.356 46.208L240.356 46.208Q240.356 48.784 239.096 50.940Q237.836 53.096 235.316 54.384Q232.796 55.672 228.988 55.672L228.988 55.672Q227.756 55.672 226.552 55.504Q225.348 55.336 224.088 54.916Q222.828 54.496 221.372 53.768L221.372 53.768Q221.092 53.600 221.008 53.348Q220.924 53.096 220.868 52.704L220.868 52.704L220.028 45.424Q219.972 45.144 220.280 45.116Q220.588 45.088 220.644 45.312L220.644 45.312Q220.868 46.992 221.540 48.672Q222.212 50.352 223.360 51.752Q224.508 53.152 226.216 54.020Q227.924 54.888 230.220 54.888L230.220 54.888Q231.956 54.888 233.580 54.244Q235.204 53.600 236.240 52.144Q237.276 50.688 237.276 48.168L237.276 48.168Q237.276 45.424 236.072 43.604Q234.868 41.784 233.020 40.468Q231.172 39.152 229.100 37.976L229.100 37.976Q227.140 36.800 225.292 35.512Q223.444 34.224 222.296 32.460Q221.148 30.696 221.148 28.064L221.148 28.064Q221.148 25.152 222.604 23.220Q224.060 21.288 226.384 20.336Q228.708 19.384 231.228 19.384L231.228 19.384Q232.684 19.384 234.280 19.692Q235.876 20 237.612 20.728L237.612 20.728Q238.060 20.896 238.256 21.148Q238.452 21.400 238.452 21.680L238.452 21.680L238.956 27.616Q238.956 27.840 238.648 27.840Q238.340 27.840 238.284 27.616L238.284 27.616Q238.172 26.384 237.696 25.068Q237.220 23.752 236.296 22.632Q235.372 21.512 233.944 20.812Q232.516 20.112 230.500 20.112L230.500 20.112Q228.092 20.112 226.664 21.120Q225.236 22.128 224.620 23.640Q224.004 25.152 224.004 26.776Z M246.128 55L246.128 55Q246.016 55 246.016 54.664Q246.016 54.328 246.128 54.328L246.128 54.328Q248.424 54.328 249.124 53.600Q249.824 52.872 249.824 50.464L249.824 50.464L249.824 39.880Q249.824 37.864 249.432 36.940Q249.040 36.016 247.976 36.016L247.976 36.016Q247.472 36.016 246.828 36.212Q246.184 36.408 245.288 36.856L245.288 36.856Q245.064 36.912 244.924 36.604Q244.784 36.296 245.008 36.184L245.008 36.184L251.952 32.936Q252.120 32.880 252.176 32.880L252.176 32.880Q252.288 32.880 252.428 32.992Q252.568 33.104 252.568 33.272L252.568 33.272Q252.568 33.664 252.512 35.428Q252.456 37.192 252.456 39.824L252.456 39.824L252.456 50.464Q252.456 52.872 253.100 53.600Q253.744 54.328 256.096 54.328L256.096 54.328Q256.264 54.328 256.264 54.664Q256.264 55 256.096 55L256.096 55Q255.144 55 253.856 54.944Q252.568 54.888 251.112 54.888L251.112 54.888Q249.712 54.888 248.424 54.944Q247.136 55 246.128 55ZM250.664 26.104L250.664 26.104Q249.600 26.104 249.012 25.544Q248.424 24.984 248.424 23.976L248.424 23.976Q248.424 22.968 249.012 22.408Q249.600 21.848 250.664 21.848L250.664 21.848Q251.672 21.848 252.232 22.408Q252.792 22.968 252.792 23.976L252.792 23.976Q252.792 26.104 250.664 26.104Z M267.860 70.680L267.860 70.680Q263.940 70.680 261.840 68.916Q259.740 67.152 259.740 64.576L259.740 64.576Q259.740 61.664 262.176 59.116Q264.612 56.568 268.756 54.216L268.756 54.216L269.372 54.944Q267.524 55.840 265.956 56.876Q264.388 57.912 263.436 59.340Q262.484 60.768 262.484 62.952L262.484 62.952Q262.484 64.744 263.296 66.116Q264.108 67.488 265.760 68.244Q267.412 69 269.932 69L269.932 69Q274.020 69 276.680 66.928Q279.340 64.856 279.340 61.272L279.340 61.272Q279.340 58.976 278.192 57.968Q277.044 56.960 275.028 56.708Q273.012 56.456 270.324 56.456L270.324 56.456Q267.748 56.456 265.648 56.260Q263.548 56.064 262.316 55.224Q261.084 54.384 261.084 52.536L261.084 52.536Q261.084 50.632 262.260 49.316Q263.436 48 265.452 46.264L265.452 46.264L266.068 46.824Q264.668 48 264.108 48.924Q263.548 49.848 263.548 50.856L263.548 50.856Q263.548 51.976 264.304 52.648Q265.060 53.320 266.908 53.628Q268.756 53.936 272.004 53.936L272.004 53.936Q273.236 53.936 274.860 53.992Q276.484 54.048 278.052 54.496Q279.620 54.944 280.656 56.120Q281.692 57.296 281.692 59.536L281.692 59.536Q281.692 61.832 280.544 63.848Q279.396 65.864 277.436 67.404Q275.476 68.944 272.984 69.812Q270.492 70.680 267.860 70.680ZM269.652 47.552L269.652 47.552Q266.964 47.552 265.088 46.572Q263.212 45.592 262.204 43.940Q261.196 42.288 261.196 40.328L261.196 40.328Q261.196 38.312 262.232 36.660Q263.268 35.008 265.228 34Q267.188 32.992 269.932 32.992L269.932 32.992Q273.012 32.992 274.832 34.112Q276.652 35.232 277.436 36.912Q278.220 38.592 278.220 40.216L278.220 40.216Q278.220 42.064 277.240 43.744Q276.260 45.424 274.356 46.488Q272.452 47.552 269.652 47.552ZM270.660 46.768L270.660 46.768Q272.620 46.768 273.908 45.508Q275.196 44.248 275.196 41.336L275.196 41.336Q275.196 38.984 274.328 37.304Q273.460 35.624 272.004 34.700Q270.548 33.776 268.700 33.776L268.700 33.776Q266.740 33.776 265.452 34.980Q264.164 36.184 264.164 39.096L264.164 39.096Q264.164 41.784 265.172 43.492Q266.180 45.200 267.664 45.984Q269.148 46.768 270.660 46.768ZM275.196 35.456L274.692 37.136L274.692 35.232Q276.428 34.224 278.052 33.580Q279.676 32.936 281.636 32.936L281.636 32.936Q281.748 32.936 281.832 33.328Q281.916 33.720 281.916 34.112L281.916 34.112Q281.916 34.672 281.776 35.316Q281.636 35.960 281.412 35.848L281.412 35.848Q281.020 35.680 280.068 35.372Q279.116 35.064 277.772 35.064L277.772 35.064Q277.044 35.064 276.428 35.176Q275.812 35.288 275.196 35.456L275.196 35.456Z M299.840 55L299.840 55Q299.672 55 299.672 54.664Q299.672 54.328 299.840 54.328L299.840 54.328Q302.136 54.328 302.808 53.600Q303.480 52.872 303.480 50.464L303.480 50.464L303.480 41.112Q303.480 37.696 302.192 36.128Q300.904 34.560 298.160 34.560L298.160 34.560Q296.032 34.560 293.820 35.960Q291.608 37.360 289.984 39.824L289.984 39.824L289.760 39.152Q292.392 35.680 294.800 34.168Q297.208 32.656 299.672 32.656L299.672 32.656Q302.752 32.656 304.432 34.308Q306.112 35.960 306.112 39.432L306.112 39.432L306.112 50.464Q306.112 52.872 306.756 53.600Q307.400 54.328 309.752 54.328L309.752 54.328Q309.920 54.328 309.920 54.664Q309.920 55 309.752 55L309.752 55Q308.800 55 307.512 54.944Q306.224 54.888 304.824 54.888L304.824 54.888Q303.424 54.888 302.108 54.944Q300.792 55 299.840 55ZM284.776 55L284.776 55Q284.608 55 284.608 54.664Q284.608 54.328 284.776 54.328L284.776 54.328Q287.072 54.328 287.744 53.600Q288.416 52.872 288.416 50.464L288.416 50.464L288.416 39.264Q288.416 37.360 287.968 36.492Q287.520 35.624 286.400 35.624L286.400 35.624Q285.840 35.624 285.056 35.848Q284.272 36.072 283.264 36.464L283.264 36.464Q283.040 36.520 282.900 36.240Q282.760 35.960 282.984 35.848L282.984 35.848L289.200 32.936Q289.312 32.880 289.480 32.880L289.480 32.880Q289.872 32.880 290.460 34.028Q291.048 35.176 291.048 37.360L291.048 37.360L291.048 50.464Q291.048 52.872 291.692 53.600Q292.336 54.328 294.688 54.328L294.688 54.328Q294.856 54.328 294.856 54.664Q294.856 55 294.688 55L294.688 55Q293.736 55 292.448 54.944Q291.160 54.888 289.760 54.888L289.760 54.888Q288.360 54.888 287.044 54.944Q285.728 55 284.776 55Z M333.836 52.592L328.068 55.336Q327.844 55.448 327.620 55.448L327.620 55.448Q326.948 55.448 326.388 54.272Q325.828 53.096 325.828 50.856L325.828 50.856L325.828 40.048Q325.828 36.576 324.736 35.232Q323.644 33.888 322.020 33.888L322.020 33.888Q320.620 33.888 319.696 34.532Q318.772 35.176 318.296 36.128Q317.820 37.080 317.596 37.920L317.596 37.920Q317.484 38.480 317.204 39.236Q316.924 39.992 315.804 39.992L315.804 39.992Q314.964 39.992 314.544 39.488Q314.124 38.984 314.124 38.424L314.124 38.424Q314.124 37.472 315.132 36.492Q316.140 35.512 317.680 34.672Q319.220 33.832 320.900 33.328Q322.580 32.824 323.980 32.824L323.980 32.824Q326.276 32.824 327.340 34.308Q328.404 35.792 328.404 38.368L328.404 38.368L328.404 48.952Q328.404 50.968 328.880 51.892Q329.356 52.816 330.532 52.816L330.532 52.816Q331.596 52.816 333.612 51.976L333.612 51.976Q333.892 51.864 334.004 52.172Q334.116 52.480 333.836 52.592L333.836 52.592ZM318.156 55.392L318.156 55.392Q316.084 55.392 314.992 54.244Q313.900 53.096 313.900 51.584L313.900 51.584Q313.900 50.632 314.376 49.736Q314.852 48.840 316.056 48Q317.260 47.160 319.388 46.376L319.388 46.376L326.388 43.744L326.500 44.472L319.892 46.992Q318.716 47.440 318.100 47.972Q317.484 48.504 317.260 49.092Q317.036 49.680 317.036 50.296L317.036 50.296Q317.036 51.528 317.848 52.536Q318.660 53.544 320.228 53.544L320.228 53.544Q320.844 53.544 321.516 53.348Q322.188 53.152 323.140 52.592L323.140 52.592L326.892 50.408L327.004 51.080L322.804 53.712Q321.404 54.608 320.340 55Q319.276 55.392 318.156 55.392Z M335.800 55L335.800 55Q335.632 55 335.632 54.664Q335.632 54.328 335.800 54.328L335.800 54.328Q338.096 54.328 338.768 53.600Q339.440 52.872 339.440 50.464L339.440 50.464L339.440 21.400Q339.440 19.384 339.048 18.460Q338.656 17.536 337.648 17.536L337.648 17.536Q336.752 17.536 334.960 18.376L334.960 18.376Q334.736 18.488 334.596 18.152Q334.456 17.816 334.680 17.760L334.680 17.760L341.568 14.456Q341.680 14.400 341.848 14.400L341.848 14.400Q341.960 14.400 342.100 14.512Q342.240 14.624 342.240 14.792L342.240 14.792L342.240 50.464Q342.240 52.816 342.884 53.572Q343.528 54.328 345.880 54.328L345.880 54.328Q346.048 54.328 346.048 54.664Q346.048 55 345.880 55L345.880 55Q344.928 55 343.612 54.944Q342.296 54.888 340.840 54.888L340.840 54.888Q339.440 54.888 338.096 54.944Q336.752 55 335.800 55Z" fill="#F7F5F2"></path>
  <path d="M105.477 81.004L105.477 81.004Q105.972 81.004 106.329 81.048Q106.687 81.092 106.995 81.197Q107.303 81.301 107.644 81.477L107.644 81.477Q107.710 81.521 107.727 81.549Q107.743 81.576 107.754 81.719L107.754 81.719L107.886 82.973Q107.886 82.995 107.826 83.011Q107.765 83.028 107.754 82.984L107.754 82.984Q107.512 82.071 106.957 81.615Q106.401 81.158 105.477 81.158L105.477 81.158Q104.498 81.158 103.772 81.565Q103.046 81.972 102.644 82.720Q102.243 83.468 102.243 84.480L102.243 84.480Q102.243 85.195 102.501 85.833Q102.760 86.471 103.216 86.955Q103.673 87.439 104.256 87.714Q104.839 87.989 105.499 87.989L105.499 87.989Q106.445 87.989 107.017 87.532Q107.589 87.076 107.831 86.196L107.831 86.196Q107.842 86.163 107.903 86.174Q107.963 86.185 107.963 86.207L107.963 86.207L107.875 87.373Q107.864 87.505 107.842 87.538Q107.820 87.571 107.754 87.615L107.754 87.615Q107.171 87.923 106.671 88.033Q106.170 88.143 105.488 88.143L105.488 88.143Q104.333 88.143 103.442 87.686Q102.551 87.230 102.045 86.405Q101.539 85.580 101.539 84.491L101.539 84.491Q101.539 83.699 101.831 83.061Q102.122 82.423 102.656 81.961Q103.189 81.499 103.904 81.251Q104.619 81.004 105.477 81.004Z M116.183 88.132L116.183 88.132Q115.391 88.132 114.748 87.852Q114.104 87.571 113.647 87.076Q113.191 86.581 112.944 85.938Q112.696 85.294 112.696 84.568L112.696 84.568Q112.696 83.677 113.042 83.006Q113.389 82.335 113.961 81.889Q114.533 81.444 115.215 81.224Q115.897 81.004 116.568 81.004L116.568 81.004Q117.382 81.004 118.025 81.296Q118.669 81.587 119.120 82.082Q119.571 82.577 119.807 83.204Q120.044 83.831 120.044 84.491L120.044 84.491Q120.044 85.261 119.736 85.921Q119.428 86.581 118.894 87.076Q118.361 87.571 117.662 87.852Q116.964 88.132 116.183 88.132ZM116.579 87.912L116.579 87.912Q117.349 87.912 117.976 87.555Q118.603 87.197 118.971 86.499Q119.340 85.800 119.340 84.799L119.340 84.799Q119.340 83.754 118.938 82.957Q118.537 82.159 117.811 81.703Q117.085 81.246 116.106 81.246L116.106 81.246Q114.830 81.246 114.115 82.038Q113.400 82.830 113.400 84.194L113.400 84.194Q113.400 84.964 113.626 85.641Q113.851 86.317 114.274 86.829Q114.698 87.340 115.281 87.626Q115.864 87.912 116.579 87.912Z M125.481 86.856L125.481 86.856L125.481 81.378L125.723 81.400L125.723 86.856Q125.723 87.417 125.910 87.642Q126.097 87.868 126.559 87.868L126.559 87.868Q126.592 87.868 126.592 87.934Q126.592 88 126.559 88L126.559 88Q126.350 88 126.124 87.989Q125.899 87.978 125.624 87.978L125.624 87.978Q125.360 87.978 125.118 87.989Q124.876 88 124.656 88L124.656 88Q124.634 88 124.634 87.934Q124.634 87.868 124.656 87.868L124.656 87.868Q125.140 87.868 125.310 87.642Q125.481 87.417 125.481 86.856ZM130.926 87.285L131.014 88.121Q131.014 88.143 130.959 88.148Q130.904 88.154 130.882 88.143L130.882 88.143L125.910 82.027Q125.536 81.576 125.244 81.416Q124.953 81.257 124.689 81.257L124.689 81.257Q124.656 81.257 124.656 81.191Q124.656 81.125 124.689 81.125L124.689 81.125Q124.876 81.125 125.074 81.136Q125.272 81.147 125.426 81.147L125.426 81.147Q125.580 81.147 125.717 81.136Q125.855 81.125 125.921 81.125L125.921 81.125Q126.064 81.125 126.119 81.251Q126.174 81.378 126.427 81.697L126.427 81.697L130.926 87.285ZM131.014 82.280L131.014 82.280L131.014 88.121L130.772 87.780L130.772 82.280Q130.772 81.719 130.596 81.488Q130.420 81.257 129.958 81.257L129.958 81.257Q129.936 81.257 129.936 81.191Q129.936 81.125 129.958 81.125L129.958 81.125Q130.178 81.125 130.403 81.142Q130.629 81.158 130.904 81.158L130.904 81.158Q131.157 81.158 131.410 81.142Q131.663 81.125 131.872 81.125L131.872 81.125Q131.905 81.125 131.905 81.191Q131.905 81.257 131.872 81.257L131.872 81.257Q131.399 81.257 131.207 81.488Q131.014 81.719 131.014 82.280Z M137.276 82.456L137.276 82.456Q137.276 82.918 137.501 83.243Q137.727 83.567 138.084 83.809Q138.442 84.051 138.838 84.282L138.838 84.282Q139.245 84.513 139.619 84.772Q139.993 85.030 140.240 85.388Q140.488 85.745 140.488 86.273L140.488 86.273Q140.488 86.779 140.240 87.203Q139.993 87.626 139.498 87.879Q139.003 88.132 138.255 88.132L138.255 88.132Q138.013 88.132 137.776 88.099Q137.540 88.066 137.292 87.984Q137.045 87.901 136.759 87.758L136.759 87.758Q136.704 87.725 136.687 87.675Q136.671 87.626 136.660 87.549L136.660 87.549L136.495 86.119Q136.484 86.064 136.544 86.058Q136.605 86.053 136.616 86.097L136.616 86.097Q136.660 86.427 136.792 86.757Q136.924 87.087 137.149 87.362Q137.375 87.637 137.710 87.808Q138.046 87.978 138.497 87.978L138.497 87.978Q138.838 87.978 139.157 87.852Q139.476 87.725 139.679 87.439Q139.883 87.153 139.883 86.658L139.883 86.658Q139.883 86.119 139.646 85.761Q139.410 85.404 139.047 85.145Q138.684 84.887 138.277 84.656L138.277 84.656Q137.892 84.425 137.529 84.172Q137.166 83.919 136.940 83.573Q136.715 83.226 136.715 82.709L136.715 82.709Q136.715 82.137 137.001 81.757Q137.287 81.378 137.743 81.191Q138.200 81.004 138.695 81.004L138.695 81.004Q138.981 81.004 139.294 81.064Q139.608 81.125 139.949 81.268L139.949 81.268Q140.037 81.301 140.075 81.350Q140.114 81.400 140.114 81.455L140.114 81.455L140.213 82.621Q140.213 82.665 140.152 82.665Q140.092 82.665 140.081 82.621L140.081 82.621Q140.059 82.379 139.965 82.121Q139.872 81.862 139.690 81.642Q139.509 81.422 139.228 81.284Q138.948 81.147 138.552 81.147L138.552 81.147Q138.079 81.147 137.798 81.345Q137.518 81.543 137.397 81.840Q137.276 82.137 137.276 82.456Z M150.985 85.437L150.985 82.280Q150.985 81.752 150.759 81.505Q150.534 81.257 150.050 81.257L150.050 81.257Q150.017 81.257 150.017 81.191Q150.017 81.125 150.050 81.125L150.050 81.125Q150.292 81.125 150.550 81.142Q150.809 81.158 151.117 81.158L151.117 81.158Q151.370 81.158 151.628 81.142Q151.887 81.125 152.096 81.125L152.096 81.125Q152.118 81.125 152.118 81.191Q152.118 81.257 152.096 81.257L152.096 81.257Q151.656 81.257 151.441 81.505Q151.227 81.752 151.227 82.280L151.227 82.280L151.227 85.426Q151.227 86.295 150.908 86.900Q150.589 87.505 150.011 87.824Q149.434 88.143 148.664 88.143L148.664 88.143Q147.850 88.143 147.245 87.819Q146.640 87.494 146.310 86.906Q145.980 86.317 145.980 85.525L145.980 85.525L145.980 82.016Q145.980 81.697 145.908 81.537Q145.837 81.378 145.628 81.317Q145.419 81.257 145.001 81.257L145.001 81.257Q144.979 81.257 144.979 81.191Q144.979 81.125 145.001 81.125L145.001 81.125Q145.265 81.125 145.584 81.142Q145.903 81.158 146.266 81.158L146.266 81.158Q146.640 81.158 146.964 81.142Q147.289 81.125 147.531 81.125L147.531 81.125Q147.564 81.125 147.564 81.191Q147.564 81.257 147.531 81.257L147.531 81.257Q147.113 81.257 146.904 81.323Q146.695 81.389 146.629 81.554Q146.563 81.719 146.563 82.038L146.563 82.038L146.563 85.140Q146.563 86.438 147.168 87.131Q147.773 87.824 148.862 87.824L148.862 87.824Q149.874 87.824 150.429 87.186Q150.985 86.548 150.985 85.437L150.985 85.437Z M157.280 86.856L157.280 86.856L157.390 81.378L157.632 81.400L157.533 86.856Q157.522 87.417 157.714 87.642Q157.907 87.868 158.457 87.868L158.457 87.868Q158.479 87.868 158.479 87.934Q158.479 88 158.457 88L158.457 88Q158.215 88 157.956 87.989Q157.698 87.978 157.390 87.978L157.390 87.978Q157.126 87.978 156.884 87.989Q156.642 88 156.422 88L156.422 88Q156.400 88 156.400 87.934Q156.400 87.868 156.422 87.868L156.422 87.868Q156.884 87.868 157.076 87.642Q157.269 87.417 157.280 86.856ZM164.837 87.868L164.837 87.868Q164.870 87.868 164.870 87.934Q164.870 88 164.837 88L164.837 88Q164.573 88 164.248 87.989Q163.924 87.978 163.561 87.978L163.561 87.978Q163.220 87.978 162.934 87.989Q162.648 88 162.417 88L162.417 88Q162.395 88 162.395 87.934Q162.395 87.868 162.417 87.868L162.417 87.868Q162.967 87.868 163.126 87.725Q163.286 87.582 163.264 87.109L163.264 87.109L163.066 81.686L163.385 81.279L160.503 87.923Q160.492 87.967 160.415 87.967Q160.338 87.967 160.316 87.923L160.316 87.923L157.632 82.038Q157.280 81.257 156.499 81.257L156.499 81.257Q156.477 81.257 156.477 81.191Q156.477 81.125 156.499 81.125L156.499 81.125Q156.664 81.125 156.851 81.136Q157.038 81.147 157.159 81.147L157.159 81.147Q157.313 81.147 157.445 81.136Q157.577 81.125 157.643 81.125L157.643 81.125Q157.797 81.125 157.885 81.224Q157.973 81.323 158.149 81.697L158.149 81.697L160.668 87.142L160.382 87.604L163.088 81.400Q163.143 81.279 163.236 81.202Q163.330 81.125 163.418 81.125L163.418 81.125Q163.473 81.125 163.583 81.136Q163.693 81.147 163.836 81.147L163.836 81.147Q164.122 81.147 164.298 81.136Q164.474 81.125 164.672 81.125L164.672 81.125Q164.694 81.125 164.694 81.191Q164.694 81.257 164.672 81.257L164.672 81.257Q164.133 81.257 163.880 81.394Q163.627 81.532 163.638 81.994L163.638 81.994L163.847 87.109Q163.858 87.428 163.929 87.593Q164.001 87.758 164.210 87.813Q164.419 87.868 164.837 87.868Z M173.717 88L173.717 88L169.174 88Q169.152 88 169.152 87.934Q169.152 87.868 169.174 87.868L169.174 87.868Q169.592 87.868 169.801 87.813Q170.010 87.758 170.081 87.593Q170.153 87.428 170.153 87.109L170.153 87.109L170.153 82.016Q170.153 81.697 170.081 81.537Q170.010 81.378 169.801 81.317Q169.592 81.257 169.174 81.257L169.174 81.257Q169.152 81.257 169.152 81.191Q169.152 81.125 169.174 81.125L169.174 81.125L173.530 81.125Q173.629 81.125 173.629 81.224L173.629 81.224L173.651 82.555Q173.651 82.588 173.590 82.588Q173.530 82.588 173.530 82.555L173.530 82.555Q173.530 81.983 173.233 81.659Q172.936 81.334 172.452 81.334L172.452 81.334L171.693 81.334Q171.286 81.334 171.082 81.389Q170.879 81.444 170.807 81.603Q170.736 81.763 170.736 82.082L170.736 82.082L170.736 87.065Q170.736 87.373 170.807 87.527Q170.879 87.681 171.082 87.736Q171.286 87.791 171.693 87.791L171.693 87.791L172.705 87.791Q173.145 87.791 173.464 87.406Q173.783 87.021 173.860 86.394L173.860 86.394Q173.860 86.361 173.926 86.367Q173.992 86.372 173.992 86.405L173.992 86.405Q173.948 86.691 173.920 87.093Q173.893 87.494 173.893 87.835L173.893 87.835Q173.893 88 173.717 88ZM173.101 85.415L173.101 85.415Q173.101 84.920 172.892 84.722Q172.683 84.524 172.155 84.524L172.155 84.524L170.461 84.524L170.461 84.315L172.188 84.315Q172.694 84.315 172.892 84.144Q173.090 83.974 173.090 83.556L173.090 83.556Q173.090 83.534 173.156 83.534Q173.222 83.534 173.222 83.556L173.222 83.556Q173.222 83.875 173.216 84.051Q173.211 84.227 173.211 84.425L173.211 84.425Q173.211 84.667 173.222 84.903Q173.233 85.140 173.233 85.415L173.233 85.415Q173.233 85.437 173.167 85.437Q173.101 85.437 173.101 85.415Z M184.313 88L184.313 88Q184.126 88 183.697 87.571Q183.268 87.142 182.663 86.344Q182.058 85.547 181.310 84.458L181.310 84.458L181.838 84.293Q182.784 85.624 183.444 86.410Q184.104 87.197 184.610 87.532Q185.116 87.868 185.589 87.868L185.589 87.868Q185.622 87.868 185.622 87.934Q185.622 88 185.589 88L185.589 88Q185.094 88 184.780 88Q184.467 88 184.313 88ZM181.442 81.092L181.442 81.092Q182.289 81.092 182.734 81.499Q183.180 81.906 183.180 82.555L183.180 82.555Q183.180 83.138 182.839 83.611Q182.498 84.084 181.931 84.359Q181.365 84.634 180.683 84.634L180.683 84.634Q180.584 84.634 180.452 84.623Q180.320 84.612 180.210 84.601L180.210 84.601L180.210 87.109Q180.210 87.428 180.276 87.593Q180.342 87.758 180.556 87.813Q180.771 87.868 181.189 87.868L181.189 87.868Q181.222 87.868 181.222 87.934Q181.222 88 181.189 88L181.189 88Q180.925 88 180.611 87.989Q180.298 87.978 179.913 87.978L179.913 87.978Q179.561 87.978 179.231 87.989Q178.901 88 178.637 88L178.637 88Q178.615 88 178.615 87.934Q178.615 87.868 178.637 87.868L178.637 87.868Q179.055 87.868 179.269 87.813Q179.484 87.758 179.561 87.593Q179.638 87.428 179.638 87.109L179.638 87.109L179.638 82.016Q179.638 81.697 179.566 81.537Q179.495 81.378 179.286 81.317Q179.077 81.257 178.659 81.257L178.659 81.257Q178.626 81.257 178.626 81.191Q178.626 81.125 178.659 81.125L178.659 81.125Q178.912 81.125 179.236 81.142Q179.561 81.158 179.913 81.158L179.913 81.158Q180.254 81.158 180.705 81.125Q181.156 81.092 181.442 81.092ZM182.564 82.852L182.564 82.852Q182.564 82.258 182.371 81.906Q182.179 81.554 181.821 81.394Q181.464 81.235 180.958 81.235L180.958 81.235Q180.562 81.235 180.386 81.378Q180.210 81.521 180.210 82.038L180.210 82.038L180.210 84.348Q180.364 84.359 180.545 84.370Q180.727 84.381 180.870 84.381L180.870 84.381Q181.816 84.381 182.190 83.985Q182.564 83.589 182.564 82.852Z M196.782 82.456L196.782 82.456Q196.782 82.918 197.007 83.243Q197.233 83.567 197.590 83.809Q197.948 84.051 198.344 84.282L198.344 84.282Q198.751 84.513 199.125 84.772Q199.499 85.030 199.746 85.388Q199.994 85.745 199.994 86.273L199.994 86.273Q199.994 86.779 199.746 87.203Q199.499 87.626 199.004 87.879Q198.509 88.132 197.761 88.132L197.761 88.132Q197.519 88.132 197.282 88.099Q197.046 88.066 196.798 87.984Q196.551 87.901 196.265 87.758L196.265 87.758Q196.210 87.725 196.193 87.675Q196.177 87.626 196.166 87.549L196.166 87.549L196.001 86.119Q195.990 86.064 196.050 86.058Q196.111 86.053 196.122 86.097L196.122 86.097Q196.166 86.427 196.298 86.757Q196.430 87.087 196.655 87.362Q196.881 87.637 197.216 87.808Q197.552 87.978 198.003 87.978L198.003 87.978Q198.344 87.978 198.663 87.852Q198.982 87.725 199.185 87.439Q199.389 87.153 199.389 86.658L199.389 86.658Q199.389 86.119 199.152 85.761Q198.916 85.404 198.553 85.145Q198.190 84.887 197.783 84.656L197.783 84.656Q197.398 84.425 197.035 84.172Q196.672 83.919 196.446 83.573Q196.221 83.226 196.221 82.709L196.221 82.709Q196.221 82.137 196.507 81.757Q196.793 81.378 197.249 81.191Q197.706 81.004 198.201 81.004L198.201 81.004Q198.487 81.004 198.800 81.064Q199.114 81.125 199.455 81.268L199.455 81.268Q199.543 81.301 199.581 81.350Q199.620 81.400 199.620 81.455L199.620 81.455L199.719 82.621Q199.719 82.665 199.658 82.665Q199.598 82.665 199.587 82.621L199.587 82.621Q199.565 82.379 199.471 82.121Q199.378 81.862 199.196 81.642Q199.015 81.422 198.734 81.284Q198.454 81.147 198.058 81.147L198.058 81.147Q197.585 81.147 197.304 81.345Q197.024 81.543 196.903 81.840Q196.782 82.137 196.782 82.456Z M206.179 81.312L206.179 81.312Q205.486 81.312 205.172 81.642Q204.859 81.972 204.738 82.819L204.738 82.819Q204.738 82.841 204.672 82.841Q204.606 82.841 204.606 82.819L204.606 82.819Q204.628 82.687 204.655 82.434Q204.683 82.181 204.705 81.889Q204.727 81.598 204.743 81.329Q204.760 81.059 204.760 80.883L204.760 80.883Q204.760 80.828 204.826 80.828Q204.892 80.828 204.892 80.883L204.892 80.883Q204.892 80.993 204.996 81.043Q205.101 81.092 205.238 81.109Q205.376 81.125 205.475 81.125L205.475 81.125Q206.421 81.158 207.686 81.158L207.686 81.158Q208.467 81.158 208.923 81.142Q209.380 81.125 209.809 81.125L209.809 81.125Q210.172 81.125 210.375 81.076Q210.579 81.026 210.634 80.850L210.634 80.850Q210.645 80.806 210.700 80.806Q210.755 80.806 210.755 80.850L210.755 80.850Q210.744 81.015 210.722 81.290Q210.700 81.565 210.689 81.868Q210.678 82.170 210.667 82.428Q210.656 82.687 210.656 82.819L210.656 82.819Q210.656 82.841 210.590 82.841Q210.524 82.841 210.524 82.819L210.524 82.819Q210.524 81.972 210.238 81.642Q209.952 81.312 209.193 81.312L209.193 81.312Q208.676 81.312 208.417 81.350Q208.159 81.389 208.076 81.537Q207.994 81.686 207.994 82.038L207.994 82.038L207.994 87.109Q207.994 87.428 208.071 87.593Q208.148 87.758 208.384 87.813Q208.621 87.868 209.105 87.868L209.105 87.868Q209.127 87.868 209.127 87.934Q209.127 88 209.105 88L209.105 88Q208.819 88 208.461 87.989Q208.104 87.978 207.686 87.978L207.686 87.978Q207.290 87.978 206.932 87.989Q206.575 88 206.278 88L206.278 88Q206.256 88 206.256 87.934Q206.256 87.868 206.278 87.868L206.278 87.868Q206.751 87.868 206.993 87.813Q207.235 87.758 207.317 87.593Q207.400 87.428 207.400 87.109L207.400 87.109L207.400 82.016Q207.400 81.664 207.312 81.516Q207.224 81.367 206.960 81.340Q206.696 81.312 206.179 81.312Z M220.911 88L220.911 88Q220.724 88 220.295 87.571Q219.866 87.142 219.261 86.344Q218.656 85.547 217.908 84.458L217.908 84.458L218.436 84.293Q219.382 85.624 220.042 86.410Q220.702 87.197 221.208 87.532Q221.714 87.868 222.187 87.868L222.187 87.868Q222.220 87.868 222.220 87.934Q222.220 88 222.187 88L222.187 88Q221.692 88 221.378 88Q221.065 88 220.911 88ZM218.040 81.092L218.040 81.092Q218.887 81.092 219.332 81.499Q219.778 81.906 219.778 82.555L219.778 82.555Q219.778 83.138 219.437 83.611Q219.096 84.084 218.529 84.359Q217.963 84.634 217.281 84.634L217.281 84.634Q217.182 84.634 217.050 84.623Q216.918 84.612 216.808 84.601L216.808 84.601L216.808 87.109Q216.808 87.428 216.874 87.593Q216.940 87.758 217.154 87.813Q217.369 87.868 217.787 87.868L217.787 87.868Q217.820 87.868 217.820 87.934Q217.820 88 217.787 88L217.787 88Q217.523 88 217.209 87.989Q216.896 87.978 216.511 87.978L216.511 87.978Q216.159 87.978 215.829 87.989Q215.499 88 215.235 88L215.235 88Q215.213 88 215.213 87.934Q215.213 87.868 215.235 87.868L215.235 87.868Q215.653 87.868 215.867 87.813Q216.082 87.758 216.159 87.593Q216.236 87.428 216.236 87.109L216.236 87.109L216.236 82.016Q216.236 81.697 216.164 81.537Q216.093 81.378 215.884 81.317Q215.675 81.257 215.257 81.257L215.257 81.257Q215.224 81.257 215.224 81.191Q215.224 81.125 215.257 81.125L215.257 81.125Q215.510 81.125 215.834 81.142Q216.159 81.158 216.511 81.158L216.511 81.158Q216.852 81.158 217.303 81.125Q217.754 81.092 218.040 81.092ZM219.162 82.852L219.162 82.852Q219.162 82.258 218.969 81.906Q218.777 81.554 218.419 81.394Q218.062 81.235 217.556 81.235L217.556 81.235Q217.160 81.235 216.984 81.378Q216.808 81.521 216.808 82.038L216.808 82.038L216.808 84.348Q216.962 84.359 217.143 84.370Q217.325 84.381 217.468 84.381L217.468 84.381Q218.414 84.381 218.788 83.985Q219.162 83.589 219.162 82.852Z M230.913 84.843L227.888 84.843L227.987 84.645L230.836 84.645L230.913 84.843ZM233.322 87.868L233.322 87.868Q233.366 87.868 233.366 87.934Q233.366 88 233.322 88L233.322 88Q233.014 88 232.689 87.978Q232.365 87.956 232.068 87.956L232.068 87.956Q231.727 87.956 231.480 87.978Q231.232 88 230.935 88L230.935 88Q230.891 88 230.891 87.934Q230.891 87.868 230.935 87.868L230.935 87.868Q231.551 87.868 231.710 87.703Q231.870 87.538 231.661 87.076L231.661 87.076L229.175 81.730L229.384 81.543L227.261 86.647Q226.986 87.318 227.217 87.593Q227.448 87.868 228.196 87.868L228.196 87.868Q228.251 87.868 228.251 87.934Q228.251 88 228.196 88L228.196 88Q227.866 88 227.591 87.978Q227.316 87.956 226.898 87.956L226.898 87.956Q226.513 87.956 226.276 87.978Q226.040 88 225.710 88L225.710 88Q225.666 88 225.666 87.934Q225.666 87.868 225.710 87.868L225.710 87.868Q226.007 87.868 226.227 87.758Q226.447 87.648 226.639 87.362Q226.832 87.076 227.052 86.548L227.052 86.548L229.351 81.015Q229.373 80.982 229.422 80.982Q229.472 80.982 229.483 81.015L229.483 81.015L232.035 86.493Q232.288 87.043 232.486 87.346Q232.684 87.648 232.882 87.758Q233.080 87.868 233.322 87.868Z M238.946 81.312L238.946 81.312Q238.253 81.312 237.939 81.642Q237.626 81.972 237.505 82.819L237.505 82.819Q237.505 82.841 237.439 82.841Q237.373 82.841 237.373 82.819L237.373 82.819Q237.395 82.687 237.422 82.434Q237.450 82.181 237.472 81.889Q237.494 81.598 237.510 81.329Q237.527 81.059 237.527 80.883L237.527 80.883Q237.527 80.828 237.593 80.828Q237.659 80.828 237.659 80.883L237.659 80.883Q237.659 80.993 237.763 81.043Q237.868 81.092 238.005 81.109Q238.143 81.125 238.242 81.125L238.242 81.125Q239.188 81.158 240.453 81.158L240.453 81.158Q241.234 81.158 241.690 81.142Q242.147 81.125 242.576 81.125L242.576 81.125Q242.939 81.125 243.142 81.076Q243.346 81.026 243.401 80.850L243.401 80.850Q243.412 80.806 243.467 80.806Q243.522 80.806 243.522 80.850L243.522 80.850Q243.511 81.015 243.489 81.290Q243.467 81.565 243.456 81.868Q243.445 82.170 243.434 82.428Q243.423 82.687 243.423 82.819L243.423 82.819Q243.423 82.841 243.357 82.841Q243.291 82.841 243.291 82.819L243.291 82.819Q243.291 81.972 243.005 81.642Q242.719 81.312 241.960 81.312L241.960 81.312Q241.443 81.312 241.184 81.350Q240.926 81.389 240.843 81.537Q240.761 81.686 240.761 82.038L240.761 82.038L240.761 87.109Q240.761 87.428 240.838 87.593Q240.915 87.758 241.151 87.813Q241.388 87.868 241.872 87.868L241.872 87.868Q241.894 87.868 241.894 87.934Q241.894 88 241.872 88L241.872 88Q241.586 88 241.228 87.989Q240.871 87.978 240.453 87.978L240.453 87.978Q240.057 87.978 239.699 87.989Q239.342 88 239.045 88L239.045 88Q239.023 88 239.023 87.934Q239.023 87.868 239.045 87.868L239.045 87.868Q239.518 87.868 239.760 87.813Q240.002 87.758 240.084 87.593Q240.167 87.428 240.167 87.109L240.167 87.109L240.167 82.016Q240.167 81.664 240.079 81.516Q239.991 81.367 239.727 81.340Q239.463 81.312 238.946 81.312Z M252.545 88L252.545 88L248.002 88Q247.980 88 247.980 87.934Q247.980 87.868 248.002 87.868L248.002 87.868Q248.420 87.868 248.629 87.813Q248.838 87.758 248.909 87.593Q248.981 87.428 248.981 87.109L248.981 87.109L248.981 82.016Q248.981 81.697 248.909 81.537Q248.838 81.378 248.629 81.317Q248.420 81.257 248.002 81.257L248.002 81.257Q247.980 81.257 247.980 81.191Q247.980 81.125 248.002 81.125L248.002 81.125L252.358 81.125Q252.457 81.125 252.457 81.224L252.457 81.224L252.479 82.555Q252.479 82.588 252.418 82.588Q252.358 82.588 252.358 82.555L252.358 82.555Q252.358 81.983 252.061 81.659Q251.764 81.334 251.280 81.334L251.280 81.334L250.521 81.334Q250.114 81.334 249.910 81.389Q249.707 81.444 249.635 81.603Q249.564 81.763 249.564 82.082L249.564 82.082L249.564 87.065Q249.564 87.373 249.635 87.527Q249.707 87.681 249.910 87.736Q250.114 87.791 250.521 87.791L250.521 87.791L251.533 87.791Q251.973 87.791 252.292 87.406Q252.611 87.021 252.688 86.394L252.688 86.394Q252.688 86.361 252.754 86.367Q252.820 86.372 252.820 86.405L252.820 86.405Q252.776 86.691 252.748 87.093Q252.721 87.494 252.721 87.835L252.721 87.835Q252.721 88 252.545 88ZM251.929 85.415L251.929 85.415Q251.929 84.920 251.720 84.722Q251.511 84.524 250.983 84.524L250.983 84.524L249.289 84.524L249.289 84.315L251.016 84.315Q251.522 84.315 251.720 84.144Q251.918 83.974 251.918 83.556L251.918 83.556Q251.918 83.534 251.984 83.534Q252.050 83.534 252.050 83.556L252.050 83.556Q252.050 83.875 252.044 84.051Q252.039 84.227 252.039 84.425L252.039 84.425Q252.039 84.667 252.050 84.903Q252.061 85.140 252.061 85.415L252.061 85.415Q252.061 85.437 251.995 85.437Q251.929 85.437 251.929 85.415Z M261.436 88.132L261.436 88.132Q260.512 88.132 259.781 87.846Q259.049 87.560 258.548 87.054Q258.048 86.548 257.784 85.894Q257.520 85.239 257.520 84.502L257.520 84.502Q257.520 83.677 257.834 83.034Q258.147 82.390 258.702 81.933Q259.258 81.477 260.000 81.240Q260.743 81.004 261.601 81.004L261.601 81.004Q262.217 81.004 262.723 81.125Q263.229 81.246 263.570 81.466L263.570 81.466Q263.647 81.510 263.658 81.543Q263.669 81.576 263.680 81.708L263.680 81.708L263.812 82.940Q263.812 82.973 263.757 82.984Q263.702 82.995 263.680 82.962L263.680 82.962Q263.559 82.511 263.377 82.175Q263.196 81.840 262.926 81.620Q262.657 81.400 262.294 81.284Q261.931 81.169 261.447 81.169L261.447 81.169Q260.545 81.169 259.819 81.554Q259.093 81.939 258.669 82.654Q258.246 83.369 258.246 84.359L258.246 84.359Q258.246 84.997 258.450 85.641Q258.653 86.284 259.077 86.812Q259.500 87.340 260.160 87.659Q260.820 87.978 261.733 87.978L261.733 87.978Q262.283 87.978 262.608 87.835Q262.932 87.692 263.075 87.395Q263.218 87.098 263.218 86.625L263.218 86.625Q263.218 86.097 263.147 85.850Q263.075 85.602 262.805 85.525Q262.536 85.448 261.931 85.448L261.931 85.448Q261.865 85.448 261.865 85.360Q261.865 85.272 261.920 85.272L261.920 85.272Q262.602 85.316 263.163 85.322Q263.724 85.327 264.340 85.294L264.340 85.294Q264.395 85.294 264.395 85.371Q264.395 85.448 264.340 85.448L264.340 85.448Q264.065 85.437 263.938 85.519Q263.812 85.602 263.779 85.877Q263.746 86.152 263.746 86.735L263.746 86.735Q263.746 87.098 263.768 87.274Q263.790 87.450 263.806 87.532Q263.823 87.615 263.823 87.703L263.823 87.703Q263.823 87.769 263.801 87.791Q263.779 87.813 263.702 87.835L263.702 87.835Q263.152 87.956 262.553 88.044Q261.953 88.132 261.436 88.132Z M271.823 84.964L271.647 84.810L273.363 82.214Q273.671 81.730 273.583 81.493Q273.495 81.257 273.011 81.257L273.011 81.257Q272.989 81.257 272.989 81.191Q272.989 81.125 273.011 81.125L273.011 81.125Q273.297 81.125 273.561 81.142Q273.825 81.158 274.243 81.158L274.243 81.158Q274.518 81.158 274.688 81.142Q274.859 81.125 275.101 81.125L275.101 81.125Q275.123 81.125 275.123 81.191Q275.123 81.257 275.101 81.257L275.101 81.257Q274.826 81.257 274.562 81.373Q274.298 81.488 274.062 81.708Q273.825 81.928 273.616 82.247L273.616 82.247L271.823 84.964ZM272.065 84.513L271.658 85.019L269.601 82.038Q269.315 81.609 269.040 81.433Q268.765 81.257 268.358 81.257L268.358 81.257Q268.325 81.257 268.325 81.191Q268.325 81.125 268.358 81.125L268.358 81.125Q268.545 81.125 268.760 81.142Q268.974 81.158 269.161 81.158L269.161 81.158Q269.458 81.158 269.716 81.153Q269.975 81.147 270.206 81.136Q270.437 81.125 270.624 81.125L270.624 81.125Q270.646 81.125 270.646 81.191Q270.646 81.257 270.624 81.257L270.624 81.257Q270.173 81.257 270.052 81.356Q269.931 81.455 270.107 81.697L270.107 81.697L272.065 84.513ZM271.482 87.109L271.482 84.590L272.065 84.491L272.065 87.109Q272.065 87.428 272.131 87.593Q272.197 87.758 272.406 87.813Q272.615 87.868 273.033 87.868L273.033 87.868Q273.066 87.868 273.066 87.934Q273.066 88 273.033 88L273.033 88Q272.780 88 272.461 87.989Q272.142 87.978 271.768 87.978L271.768 87.978Q271.405 87.978 271.075 87.989Q270.745 88 270.492 88L270.492 88Q270.459 88 270.459 87.934Q270.459 87.868 270.492 87.868L270.492 87.868Q270.910 87.868 271.125 87.813Q271.339 87.758 271.411 87.593Q271.482 87.428 271.482 87.109L271.482 87.109Z M290.056 84.843L287.031 84.843L287.130 84.645L289.979 84.645L290.056 84.843ZM292.465 87.868L292.465 87.868Q292.509 87.868 292.509 87.934Q292.509 88 292.465 88L292.465 88Q292.157 88 291.832 87.978Q291.508 87.956 291.211 87.956L291.211 87.956Q290.870 87.956 290.622 87.978Q290.375 88 290.078 88L290.078 88Q290.034 88 290.034 87.934Q290.034 87.868 290.078 87.868L290.078 87.868Q290.694 87.868 290.853 87.703Q291.013 87.538 290.804 87.076L290.804 87.076L288.318 81.730L288.527 81.543L286.404 86.647Q286.129 87.318 286.360 87.593Q286.591 87.868 287.339 87.868L287.339 87.868Q287.394 87.868 287.394 87.934Q287.394 88 287.339 88L287.339 88Q287.009 88 286.734 87.978Q286.459 87.956 286.041 87.956L286.041 87.956Q285.656 87.956 285.419 87.978Q285.183 88 284.853 88L284.853 88Q284.809 88 284.809 87.934Q284.809 87.868 284.853 87.868L284.853 87.868Q285.150 87.868 285.370 87.758Q285.590 87.648 285.782 87.362Q285.975 87.076 286.195 86.548L286.195 86.548L288.494 81.015Q288.516 80.982 288.565 80.982Q288.615 80.982 288.626 81.015L288.626 81.015L291.178 86.493Q291.431 87.043 291.629 87.346Q291.827 87.648 292.025 87.758Q292.223 87.868 292.465 87.868Z M299.376 88.044L299.376 88.044Q299.068 88.044 298.617 88.011Q298.166 87.978 297.781 87.978L297.781 87.978Q297.429 87.978 297.099 87.989Q296.769 88 296.505 88L296.505 88Q296.483 88 296.483 87.934Q296.483 87.868 296.505 87.868L296.505 87.868Q296.923 87.868 297.137 87.813Q297.352 87.758 297.423 87.593Q297.495 87.428 297.495 87.109L297.495 87.109L297.495 82.016Q297.495 81.697 297.423 81.537Q297.352 81.378 297.143 81.317Q296.934 81.257 296.516 81.257L296.516 81.257Q296.494 81.257 296.494 81.191Q296.494 81.125 296.516 81.125L296.516 81.125Q296.780 81.125 297.104 81.142Q297.429 81.158 297.781 81.158L297.781 81.158Q298.133 81.158 298.534 81.130Q298.936 81.103 299.222 81.103L299.222 81.103Q300.399 81.103 301.279 81.543Q302.159 81.983 302.648 82.742Q303.138 83.501 303.138 84.447L303.138 84.447Q303.138 85.272 302.841 85.938Q302.544 86.603 302.022 87.070Q301.499 87.538 300.817 87.791Q300.135 88.044 299.376 88.044ZM299.266 87.901L299.266 87.901Q300.190 87.901 300.899 87.532Q301.609 87.164 302.016 86.444Q302.423 85.723 302.423 84.689L302.423 84.689Q302.423 83.721 302.043 82.945Q301.664 82.170 300.971 81.708Q300.278 81.246 299.321 81.246L299.321 81.246Q298.650 81.246 298.364 81.383Q298.078 81.521 298.078 82.038L298.078 82.038L298.078 86.988Q298.078 87.461 298.303 87.681Q298.529 87.901 299.266 87.901Z M314.647 81.125L314.647 81.125Q314.680 81.125 314.680 81.191Q314.680 81.257 314.647 81.257L314.647 81.257Q314.306 81.257 314.048 81.400Q313.789 81.543 313.591 82.016L313.591 82.016L311.171 87.989Q311.160 88.033 311.055 88.033Q310.951 88.033 310.929 87.989L310.929 87.989L308.212 82.038Q308.025 81.609 307.816 81.433Q307.607 81.257 307.255 81.257L307.255 81.257Q307.222 81.257 307.222 81.191Q307.222 81.125 307.255 81.125L307.255 81.125Q307.409 81.125 307.568 81.136Q307.728 81.147 307.887 81.153Q308.047 81.158 308.190 81.158L308.190 81.158Q308.454 81.158 308.674 81.153Q308.894 81.147 309.075 81.136Q309.257 81.125 309.422 81.125L309.422 81.125Q309.455 81.125 309.455 81.191Q309.455 81.257 309.422 81.257L309.422 81.257Q309.004 81.257 308.828 81.394Q308.652 81.532 308.839 81.928L308.839 81.928L311.303 87.373L311.006 87.780L313.360 81.950Q313.514 81.565 313.349 81.411Q313.184 81.257 312.568 81.257L312.568 81.257Q312.535 81.257 312.535 81.191Q312.535 81.125 312.568 81.125L312.568 81.125Q312.821 81.125 313.058 81.142Q313.294 81.158 313.668 81.158L313.668 81.158Q313.987 81.158 314.179 81.142Q314.372 81.125 314.647 81.125Z M320.326 82.038L320.326 87.109Q320.326 87.428 320.392 87.593Q320.458 87.758 320.673 87.813Q320.887 87.868 321.305 87.868L321.305 87.868Q321.327 87.868 321.327 87.934Q321.327 88 321.305 88L321.305 88Q321.041 88 320.722 87.989Q320.403 87.978 320.018 87.978L320.018 87.978Q319.655 87.978 319.330 87.989Q319.006 88 318.742 88L318.742 88Q318.709 88 318.709 87.934Q318.709 87.868 318.742 87.868L318.742 87.868Q319.160 87.868 319.375 87.813Q319.589 87.758 319.661 87.593Q319.732 87.428 319.732 87.109L319.732 87.109L319.732 82.016Q319.732 81.697 319.661 81.537Q319.589 81.378 319.375 81.317Q319.160 81.257 318.742 81.257L318.742 81.257Q318.709 81.257 318.709 81.191Q318.709 81.125 318.742 81.125L318.742 81.125Q319.006 81.125 319.330 81.142Q319.655 81.158 320.018 81.158L320.018 81.158Q320.403 81.158 320.728 81.142Q321.052 81.125 321.305 81.125L321.305 81.125Q321.327 81.125 321.327 81.191Q321.327 81.257 321.305 81.257L321.305 81.257Q320.887 81.257 320.678 81.323Q320.469 81.389 320.397 81.554Q320.326 81.719 320.326 82.038L320.326 82.038Z M326.962 82.456L326.962 82.456Q326.962 82.918 327.188 83.243Q327.413 83.567 327.771 83.809Q328.128 84.051 328.524 84.282L328.524 84.282Q328.931 84.513 329.305 84.772Q329.679 85.030 329.927 85.388Q330.174 85.745 330.174 86.273L330.174 86.273Q330.174 86.779 329.927 87.203Q329.679 87.626 329.184 87.879Q328.689 88.132 327.941 88.132L327.941 88.132Q327.699 88.132 327.463 88.099Q327.226 88.066 326.978 87.984Q326.731 87.901 326.445 87.758L326.445 87.758Q326.390 87.725 326.374 87.675Q326.357 87.626 326.346 87.549L326.346 87.549L326.181 86.119Q326.170 86.064 326.231 86.058Q326.291 86.053 326.302 86.097L326.302 86.097Q326.346 86.427 326.478 86.757Q326.610 87.087 326.836 87.362Q327.061 87.637 327.397 87.808Q327.732 87.978 328.183 87.978L328.183 87.978Q328.524 87.978 328.843 87.852Q329.162 87.725 329.365 87.439Q329.569 87.153 329.569 86.658L329.569 86.658Q329.569 86.119 329.333 85.761Q329.096 85.404 328.733 85.145Q328.370 84.887 327.963 84.656L327.963 84.656Q327.578 84.425 327.215 84.172Q326.852 83.919 326.627 83.573Q326.401 83.226 326.401 82.709L326.401 82.709Q326.401 82.137 326.687 81.757Q326.973 81.378 327.430 81.191Q327.886 81.004 328.381 81.004L328.381 81.004Q328.667 81.004 328.981 81.064Q329.294 81.125 329.635 81.268L329.635 81.268Q329.723 81.301 329.762 81.350Q329.800 81.400 329.800 81.455L329.800 81.455L329.899 82.621Q329.899 82.665 329.839 82.665Q329.778 82.665 329.767 82.621L329.767 82.621Q329.745 82.379 329.651 82.121Q329.558 81.862 329.377 81.642Q329.195 81.422 328.915 81.284Q328.634 81.147 328.238 81.147L328.238 81.147Q327.765 81.147 327.485 81.345Q327.204 81.543 327.083 81.840Q326.962 82.137 326.962 82.456Z M338.405 88.132L338.405 88.132Q337.613 88.132 336.970 87.852Q336.326 87.571 335.870 87.076Q335.413 86.581 335.166 85.938Q334.918 85.294 334.918 84.568L334.918 84.568Q334.918 83.677 335.264 83.006Q335.611 82.335 336.183 81.889Q336.755 81.444 337.437 81.224Q338.119 81.004 338.790 81.004L338.790 81.004Q339.604 81.004 340.248 81.296Q340.891 81.587 341.342 82.082Q341.793 82.577 342.030 83.204Q342.266 83.831 342.266 84.491L342.266 84.491Q342.266 85.261 341.958 85.921Q341.650 86.581 341.117 87.076Q340.583 87.571 339.885 87.852Q339.186 88.132 338.405 88.132ZM338.801 87.912L338.801 87.912Q339.571 87.912 340.198 87.555Q340.825 87.197 341.194 86.499Q341.562 85.800 341.562 84.799L341.562 84.799Q341.562 83.754 341.161 82.957Q340.759 82.159 340.033 81.703Q339.307 81.246 338.328 81.246L338.328 81.246Q337.052 81.246 336.337 82.038Q335.622 82.830 335.622 84.194L335.622 84.194Q335.622 84.964 335.848 85.641Q336.073 86.317 336.497 86.829Q336.920 87.340 337.503 87.626Q338.086 87.912 338.801 87.912Z M352.565 88L352.565 88Q352.378 88 351.949 87.571Q351.520 87.142 350.915 86.344Q350.310 85.547 349.562 84.458L349.562 84.458L350.090 84.293Q351.036 85.624 351.696 86.410Q352.356 87.197 352.862 87.532Q353.368 87.868 353.841 87.868L353.841 87.868Q353.874 87.868 353.874 87.934Q353.874 88 353.841 88L353.841 88Q353.346 88 353.033 88Q352.719 88 352.565 88ZM349.694 81.092L349.694 81.092Q350.541 81.092 350.987 81.499Q351.432 81.906 351.432 82.555L351.432 82.555Q351.432 83.138 351.091 83.611Q350.750 84.084 350.184 84.359Q349.617 84.634 348.935 84.634L348.935 84.634Q348.836 84.634 348.704 84.623Q348.572 84.612 348.462 84.601L348.462 84.601L348.462 87.109Q348.462 87.428 348.528 87.593Q348.594 87.758 348.809 87.813Q349.023 87.868 349.441 87.868L349.441 87.868Q349.474 87.868 349.474 87.934Q349.474 88 349.441 88L349.441 88Q349.177 88 348.864 87.989Q348.550 87.978 348.165 87.978L348.165 87.978Q347.813 87.978 347.483 87.989Q347.153 88 346.889 88L346.889 88Q346.867 88 346.867 87.934Q346.867 87.868 346.889 87.868L346.889 87.868Q347.307 87.868 347.522 87.813Q347.736 87.758 347.813 87.593Q347.890 87.428 347.890 87.109L347.890 87.109L347.890 82.016Q347.890 81.697 347.819 81.537Q347.747 81.378 347.538 81.317Q347.329 81.257 346.911 81.257L346.911 81.257Q346.878 81.257 346.878 81.191Q346.878 81.125 346.911 81.125L346.911 81.125Q347.164 81.125 347.489 81.142Q347.813 81.158 348.165 81.158L348.165 81.158Q348.506 81.158 348.957 81.125Q349.408 81.092 349.694 81.092ZM350.816 82.852L350.816 82.852Q350.816 82.258 350.624 81.906Q350.431 81.554 350.074 81.394Q349.716 81.235 349.210 81.235L349.210 81.235Q348.814 81.235 348.638 81.378Q348.462 81.521 348.462 82.038L348.462 82.038L348.462 84.348Q348.616 84.359 348.798 84.370Q348.979 84.381 349.122 84.381L349.122 84.381Q350.068 84.381 350.442 83.985Q350.816 83.589 350.816 82.852Z M360.785 84.964L360.609 84.810L362.325 82.214Q362.633 81.730 362.545 81.493Q362.457 81.257 361.973 81.257L361.973 81.257Q361.951 81.257 361.951 81.191Q361.951 81.125 361.973 81.125L361.973 81.125Q362.259 81.125 362.523 81.142Q362.787 81.158 363.205 81.158L363.205 81.158Q363.480 81.158 363.651 81.142Q363.821 81.125 364.063 81.125L364.063 81.125Q364.085 81.125 364.085 81.191Q364.085 81.257 364.063 81.257L364.063 81.257Q363.788 81.257 363.524 81.373Q363.260 81.488 363.024 81.708Q362.787 81.928 362.578 82.247L362.578 82.247L360.785 84.964ZM361.027 84.513L360.620 85.019L358.563 82.038Q358.277 81.609 358.002 81.433Q357.727 81.257 357.320 81.257L357.320 81.257Q357.287 81.257 357.287 81.191Q357.287 81.125 357.320 81.125L357.320 81.125Q357.507 81.125 357.722 81.142Q357.936 81.158 358.123 81.158L358.123 81.158Q358.420 81.158 358.679 81.153Q358.937 81.147 359.168 81.136Q359.399 81.125 359.586 81.125L359.586 81.125Q359.608 81.125 359.608 81.191Q359.608 81.257 359.586 81.257L359.586 81.257Q359.135 81.257 359.014 81.356Q358.893 81.455 359.069 81.697L359.069 81.697L361.027 84.513ZM360.444 87.109L360.444 84.590L361.027 84.491L361.027 87.109Q361.027 87.428 361.093 87.593Q361.159 87.758 361.368 87.813Q361.577 87.868 361.995 87.868L361.995 87.868Q362.028 87.868 362.028 87.934Q362.028 88 361.995 88L361.995 88Q361.742 88 361.423 87.989Q361.104 87.978 360.730 87.978L360.730 87.978Q360.367 87.978 360.037 87.989Q359.707 88 359.454 88L359.454 88Q359.421 88 359.421 87.934Q359.421 87.868 359.454 87.868L359.454 87.868Q359.872 87.868 360.087 87.813Q360.301 87.758 360.373 87.593Q360.444 87.428 360.444 87.109L360.444 87.109Z" fill="#F7F5F2" opacity="0.7"></path>
</svg>