<svg xmlns="http://www.w3.org/2000/svg" width="520" height="110" viewBox="0 0 520 110">
  <rect x="20" y="20" width="72" height="72" fill="none" stroke="#1A2235" stroke-width="1.5"/>
  <path d="M41.550 45.600L41.550 45.600Q38.400 45.600 36.975 47.100Q35.550 48.600 35 52.450L35 52.450Q35 52.550 34.700 52.550Q34.400 52.550 34.400 52.450L34.400 52.450Q34.500 51.850 34.625 50.700Q34.750 49.550 34.850 48.225Q34.950 46.900 35.025 45.675Q35.100 44.450 35.100 43.650L35.100 43.650Q35.100 43.400 35.400 43.400Q35.700 43.400 35.700 43.650L35.700 43.650Q35.700 44.150 36.175 44.375Q36.650 44.600 37.275 44.675Q37.900 44.750 38.350 44.750L38.350 44.750Q42.650 44.900 48.400 44.900L48.400 44.900Q51.950 44.900 54.025 44.825Q56.100 44.750 58.050 44.750L58.050 44.750Q59.700 44.750 60.625 44.525Q61.550 44.300 61.800 43.500L61.800 43.500Q61.850 43.300 62.100 43.300Q62.350 43.300 62.350 43.500L62.350 43.500Q62.300 44.250 62.200 45.500Q62.100 46.750 62.050 48.125Q62 49.500 61.950 50.675Q61.900 51.850 61.900 52.450L61.900 52.450Q61.900 52.550 61.600 52.550Q61.300 52.550 61.300 52.450L61.300 52.450Q61.300 48.600 60 47.100Q58.700 45.600 55.250 45.600L55.250 45.600Q52.900 45.600 51.725 45.775Q50.550 45.950 50.175 46.625Q49.800 47.300 49.800 48.900L49.800 48.900L49.800 71.950Q49.800 73.400 50.150 74.150Q50.500 74.900 51.575 75.150Q52.650 75.400 54.850 75.400L54.850 75.400Q54.950 75.400 54.950 75.700Q54.950 76 54.850 76L54.850 76Q53.550 76 51.925 75.950Q50.300 75.900 48.400 75.900L48.400 75.900Q46.600 75.900 44.975 75.950Q43.350 76 42 76L42 76Q41.900 76 41.900 75.700Q41.900 75.400 42 75.400L42 75.400Q44.150 75.400 45.250 75.150Q46.350 74.900 46.725 74.150Q47.100 73.400 47.100 71.950L47.100 71.950L47.100 48.800Q47.100 47.200 46.700 46.525Q46.300 45.850 45.100 45.725Q43.900 45.600 41.550 45.600Z" fill="#1A2235"/><path d="M67.350 59.900L67.350 59.900Q67.350 61.250 68.025 62.175Q68.700 63.100 69.775 63.725Q70.850 64.350 72 64.950L72 64.950Q73.300 65.550 74.450 66.275Q75.600 67 76.350 68Q77.100 69 77.100 70.600L77.100 70.600Q77.100 72.200 76.300 73.550Q75.500 74.900 73.925 75.725Q72.350 76.550 70.100 76.550L70.100 76.550Q68.900 76.550 67.750 76.225Q66.600 75.900 65.400 75L65.400 75Q65.300 74.900 65.200 74.750Q65.100 74.600 65.100 74.400L65.100 74.400L65 70.800Q65 70.650 65.275 70.625Q65.550 70.600 65.600 70.750L65.600 70.750Q66.250 72.450 67.125 73.525Q68 74.600 69.100 75.100Q70.200 75.600 71.550 75.600L71.550 75.600Q73.300 75.600 74.225 74.775Q75.150 73.950 75.050 72.300L75.050 72.300Q75 70.850 74.300 69.950Q73.600 69.050 72.550 68.450Q71.500 67.850 70.350 67.300L70.350 67.300Q69.100 66.700 67.975 66.025Q66.850 65.350 66.125 64.300Q65.400 63.250 65.400 61.600L65.400 61.600Q65.400 59.700 66.400 58.475Q67.400 57.250 68.925 56.650Q70.450 56.050 72.100 56.050L72.100 56.050Q73 56.050 73.900 56.225Q74.800 56.400 75.650 56.800L75.650 56.800Q76.100 57 76.100 57.350L76.100 57.350Q76.100 58.100 76.050 58.950Q76 59.800 76 60.800L76 60.800Q76 60.900 75.700 60.900Q75.400 60.900 75.400 60.800L75.400 60.800Q75.400 59.650 74.575 58.800Q73.750 57.950 72.575 57.500Q71.400 57.050 70.250 57.050L70.250 57.050Q68.900 57.050 68.125 57.750Q67.350 58.450 67.350 59.900Z" fill="#C4622D"/>
  <path d="M122.280 44.032L122.280 44.032Q119.382 44.032 118.071 45.412Q116.760 46.792 116.254 50.334L116.254 50.334Q116.254 50.426 115.978 50.426Q115.702 50.426 115.702 50.334L115.702 50.334Q115.794 49.782 115.909 48.724Q116.024 47.666 116.116 46.447Q116.208 45.228 116.277 44.101Q116.346 42.974 116.346 42.238L116.346 42.238Q116.346 42.008 116.622 42.008Q116.898 42.008 116.898 42.238L116.898 42.238Q116.898 42.698 117.335 42.905Q117.772 43.112 118.347 43.181Q118.922 43.250 119.336 43.250L119.336 43.250Q123.292 43.388 128.582 43.388L128.582 43.388Q131.848 43.388 133.757 43.319Q135.666 43.250 137.460 43.250L137.460 43.250Q138.978 43.250 139.829 43.043Q140.680 42.836 140.910 42.100L140.910 42.100Q140.956 41.916 141.186 41.916Q141.416 41.916 141.416 42.100L141.416 42.100Q141.370 42.790 141.278 43.940Q141.186 45.090 141.140 46.355Q141.094 47.620 141.048 48.701Q141.002 49.782 141.002 50.334L141.002 50.334Q141.002 50.426 140.726 50.426Q140.450 50.426 140.450 50.334L140.450 50.334Q140.450 46.792 139.254 45.412Q138.058 44.032 134.884 44.032L134.884 44.032Q132.722 44.032 131.641 44.193Q130.560 44.354 130.215 44.975Q129.870 45.596 129.870 47.068L129.870 47.068L129.870 68.274Q129.870 69.608 130.192 70.298Q130.514 70.988 131.503 71.218Q132.492 71.448 134.516 71.448L134.516 71.448Q134.608 71.448 134.608 71.724Q134.608 72 134.516 72L134.516 72Q133.320 72 131.825 71.954Q130.330 71.908 128.582 71.908L128.582 71.908Q126.926 71.908 125.431 71.954Q123.936 72 122.694 72L122.694 72Q122.602 72 122.602 71.724Q122.602 71.448 122.694 71.448L122.694 71.448Q124.672 71.448 125.684 71.218Q126.696 70.988 127.041 70.298Q127.386 69.608 127.386 68.274L127.386 68.274L127.386 46.976Q127.386 45.504 127.018 44.883Q126.650 44.262 125.546 44.147Q124.442 44.032 122.280 44.032Z M149.066 59.534L149.066 59.534L148.882 59.074Q150.584 56.958 151.665 55.831Q152.746 54.704 153.528 54.267Q154.310 53.830 155.046 53.830L155.046 53.830Q156.012 53.830 156.932 54.336Q157.852 54.842 157.852 55.578L157.852 55.578Q157.852 56.038 157.507 56.406Q157.162 56.774 156.518 56.774L156.518 56.774Q155.966 56.774 155.575 56.452Q155.184 56.130 154.724 55.831Q154.264 55.532 153.482 55.532L153.482 55.532Q153.068 55.532 152.585 55.785Q152.102 56.038 151.297 56.889Q150.492 57.740 149.066 59.534ZM144.788 72L144.788 72Q144.650 72 144.650 71.724Q144.650 71.448 144.788 71.448L144.788 71.448Q146.674 71.448 147.226 70.850Q147.778 70.252 147.778 68.274L147.778 68.274L147.778 59.074Q147.778 57.510 147.410 56.797Q147.042 56.084 146.122 56.084L146.122 56.084Q145.662 56.084 145.018 56.268Q144.374 56.452 143.546 56.774L143.546 56.774Q143.362 56.820 143.247 56.590Q143.132 56.360 143.316 56.268L143.316 56.268L148.422 53.876Q148.514 53.830 148.652 53.830L148.652 53.830Q148.974 53.830 149.457 54.773Q149.940 55.716 149.940 57.510L149.940 57.510L149.940 68.274Q149.940 69.608 150.262 70.298Q150.584 70.988 151.573 71.218Q152.562 71.448 154.540 71.448L154.540 71.448Q154.678 71.448 154.678 71.724Q154.678 72 154.540 72L154.540 72Q153.436 72 151.964 71.954Q150.492 71.908 148.882 71.908L148.882 71.908Q147.732 71.908 146.651 71.954Q145.570 72 144.788 72Z M167.112 72.322L167.112 72.322Q164.904 72.322 163.616 70.919Q162.328 69.516 162.328 66.710L162.328 66.710L162.328 59.580Q162.328 57.694 162.052 56.889Q161.776 56.084 160.994 56.084L160.994 56.084Q160.304 56.084 159.338 56.544L159.338 56.544Q159.154 56.636 159.039 56.360Q158.924 56.084 159.108 56.038L159.108 56.038L163.938 53.876Q164.030 53.830 164.122 53.830L164.122 53.830Q164.214 53.830 164.352 53.922Q164.490 54.014 164.490 54.152L164.490 54.152L164.490 65.330Q164.490 68.136 165.456 69.447Q166.422 70.758 168.354 70.758L168.354 70.758Q170.240 70.758 172.126 69.631Q174.012 68.504 175.438 66.526L175.438 66.526L175.668 67.032Q173.414 69.884 171.344 71.103Q169.274 72.322 167.112 72.322ZM176.726 54.152L176.726 54.152L176.726 67.170Q176.726 68.734 177.117 69.447Q177.508 70.160 178.428 70.160L178.428 70.160Q178.934 70.160 179.532 69.976Q180.130 69.792 181.004 69.470L181.004 69.470Q181.234 69.378 181.326 69.631Q181.418 69.884 181.234 69.976L181.234 69.976L176.082 72.368Q175.990 72.414 175.898 72.414L175.898 72.414Q175.576 72.414 175.093 71.471Q174.610 70.528 174.610 68.734L174.610 68.734L174.610 59.580Q174.610 57.694 174.311 56.889Q174.012 56.084 173.230 56.084L173.230 56.084Q172.540 56.084 171.574 56.544L171.574 56.544Q171.390 56.636 171.298 56.360Q171.206 56.084 171.390 56.038L171.390 56.038L176.220 53.876Q176.312 53.830 176.358 53.830L176.358 53.830Q176.450 53.830 176.588 53.922Q176.726 54.014 176.726 54.152Z M190.862 72.552L190.862 72.552Q188.148 72.552 186.331 71.287Q184.514 70.022 183.594 67.998Q182.674 65.974 182.674 63.720L182.674 63.720Q182.674 60.914 183.962 58.683Q185.250 56.452 187.435 55.141Q189.620 53.830 192.196 53.830L192.196 53.830Q194.818 53.830 196.106 55.256Q197.394 56.682 197.394 59.074L197.394 59.074Q197.394 59.672 197.279 59.948Q197.164 60.224 196.842 60.224L196.842 60.224L194.680 60.224Q194.910 57.372 193.783 56.061Q192.656 54.750 190.724 54.750L190.724 54.750Q188.148 54.750 186.722 56.705Q185.296 58.660 185.296 62.064L185.296 62.064Q185.296 64.640 186.124 66.687Q186.952 68.734 188.562 69.907Q190.172 71.080 192.472 71.080L192.472 71.080Q194.082 71.080 195.117 70.597Q196.152 70.114 197.118 69.516L197.118 69.516Q197.210 69.424 197.371 69.631Q197.532 69.838 197.440 69.976L197.440 69.976Q195.830 71.356 194.197 71.954Q192.564 72.552 190.862 72.552ZM195.140 60.224L184.698 60.270L184.652 59.718L195.140 59.534L195.140 60.224Z M215.914 48.816L215.914 48.816Q215.914 50.748 216.857 52.105Q217.800 53.462 219.295 54.474Q220.790 55.486 222.446 56.452L222.446 56.452Q224.148 57.418 225.712 58.499Q227.276 59.580 228.311 61.075Q229.346 62.570 229.346 64.778L229.346 64.778Q229.346 66.894 228.311 68.665Q227.276 70.436 225.206 71.494Q223.136 72.552 220.008 72.552L220.008 72.552Q218.996 72.552 218.007 72.414Q217.018 72.276 215.983 71.931Q214.948 71.586 213.752 70.988L213.752 70.988Q213.522 70.850 213.453 70.643Q213.384 70.436 213.338 70.114L213.338 70.114L212.648 64.134Q212.602 63.904 212.855 63.881Q213.108 63.858 213.154 64.042L213.154 64.042Q213.338 65.422 213.890 66.802Q214.442 68.182 215.385 69.332Q216.328 70.482 217.731 71.195Q219.134 71.908 221.020 71.908L221.020 71.908Q222.446 71.908 223.780 71.379Q225.114 70.850 225.965 69.654Q226.816 68.458 226.816 66.388L226.816 66.388Q226.816 64.134 225.827 62.639Q224.838 61.144 223.320 60.063Q221.802 58.982 220.100 58.016L220.100 58.016Q218.490 57.050 216.972 55.992Q215.454 54.934 214.511 53.485Q213.568 52.036 213.568 49.874L213.568 49.874Q213.568 47.482 214.764 45.895Q215.960 44.308 217.869 43.526Q219.778 42.744 221.848 42.744L221.848 42.744Q223.044 42.744 224.355 42.997Q225.666 43.250 227.092 43.848L227.092 43.848Q227.460 43.986 227.621 44.193Q227.782 44.400 227.782 44.630L227.782 44.630L228.196 49.506Q228.196 49.690 227.943 49.690Q227.690 49.690 227.644 49.506L227.644 49.506Q227.552 48.494 227.161 47.413Q226.770 46.332 226.011 45.412Q225.252 44.492 224.079 43.917Q222.906 43.342 221.250 43.342L221.250 43.342Q219.272 43.342 218.099 44.170Q216.926 44.998 216.420 46.240Q215.914 47.482 215.914 48.816Z M234.098 72L234.098 72Q234.006 72 234.006 71.724Q234.006 71.448 234.098 71.448L234.098 71.448Q235.984 71.448 236.559 70.850Q237.134 70.252 237.134 68.274L237.134 68.274L237.134 59.580Q237.134 57.924 236.812 57.165Q236.490 56.406 235.616 56.406L235.616 56.406Q235.202 56.406 234.673 56.567Q234.144 56.728 233.408 57.096L233.408 57.096Q233.224 57.142 233.109 56.889Q232.994 56.636 233.178 56.544L233.178 56.544L238.882 53.876Q239.020 53.830 239.066 53.830L239.066 53.830Q239.158 53.830 239.273 53.922Q239.388 54.014 239.388 54.152L239.388 54.152Q239.388 54.474 239.342 55.923Q239.296 57.372 239.296 59.534L239.296 59.534L239.296 68.274Q239.296 70.252 239.825 70.850Q240.354 71.448 242.286 71.448L242.286 71.448Q242.424 71.448 242.424 71.724Q242.424 72 242.286 72L242.286 72Q241.504 72 240.446 71.954Q239.388 71.908 238.192 71.908L238.192 71.908Q237.042 71.908 235.984 71.954Q234.926 72 234.098 72ZM237.824 48.264L237.824 48.264Q236.950 48.264 236.467 47.804Q235.984 47.344 235.984 46.516L235.984 46.516Q235.984 45.688 236.467 45.228Q236.950 44.768 237.824 44.768L237.824 44.768Q238.652 44.768 239.112 45.228Q239.572 45.688 239.572 46.516L239.572 46.516Q239.572 48.264 237.824 48.264Z M251.960 84.880L251.960 84.880Q248.740 84.880 247.015 83.431Q245.290 81.982 245.290 79.866L245.290 79.866Q245.290 77.474 247.291 75.381Q249.292 73.288 252.696 71.356L252.696 71.356L253.202 71.954Q251.684 72.690 250.396 73.541Q249.108 74.392 248.326 75.565Q247.544 76.738 247.544 78.532L247.544 78.532Q247.544 80.004 248.211 81.131Q248.878 82.258 250.235 82.879Q251.592 83.500 253.662 83.500L253.662 83.500Q257.020 83.500 259.205 81.798Q261.390 80.096 261.390 77.152L261.390 77.152Q261.390 75.266 260.447 74.438Q259.504 73.610 257.848 73.403Q256.192 73.196 253.984 73.196L253.984 73.196Q251.868 73.196 250.143 73.035Q248.418 72.874 247.406 72.184Q246.394 71.494 246.394 69.976L246.394 69.976Q246.394 68.412 247.360 67.331Q248.326 66.250 249.982 64.824L249.982 64.824L250.488 65.284Q249.338 66.250 248.878 67.009Q248.418 67.768 248.418 68.596L248.418 68.596Q248.418 69.516 249.039 70.068Q249.660 70.620 251.178 70.873Q252.696 71.126 255.364 71.126L255.364 71.126Q256.376 71.126 257.710 71.172Q259.044 71.218 260.332 71.586Q261.620 71.954 262.471 72.920Q263.322 73.886 263.322 75.726L263.322 75.726Q263.322 77.612 262.379 79.268Q261.436 80.924 259.826 82.189Q258.216 83.454 256.169 84.167Q254.122 84.880 251.960 84.880ZM253.432 65.882L253.432 65.882Q251.224 65.882 249.683 65.077Q248.142 64.272 247.314 62.915Q246.486 61.558 246.486 59.948L246.486 59.948Q246.486 58.292 247.337 56.935Q248.188 55.578 249.798 54.750Q251.408 53.922 253.662 53.922L253.662 53.922Q256.192 53.922 257.687 54.842Q259.182 55.762 259.826 57.142Q260.470 58.522 260.470 59.856L260.470 59.856Q260.470 61.374 259.665 62.754Q258.860 64.134 257.296 65.008Q255.732 65.882 253.432 65.882ZM254.260 65.238L254.260 65.238Q255.870 65.238 256.928 64.203Q257.986 63.168 257.986 60.776L257.986 60.776Q257.986 58.844 257.273 57.464Q256.560 56.084 255.364 55.325Q254.168 54.566 252.650 54.566L252.650 54.566Q251.040 54.566 249.982 55.555Q248.924 56.544 248.924 58.936L248.924 58.936Q248.924 61.144 249.752 62.547Q250.580 63.950 251.799 64.594Q253.018 65.238 254.260 65.238ZM257.986 55.946L257.572 57.326L257.572 55.762Q258.998 54.934 260.332 54.405Q261.666 53.876 263.276 53.876L263.276 53.876Q263.368 53.876 263.437 54.198Q263.506 54.520 263.506 54.842L263.506 54.842Q263.506 55.302 263.391 55.831Q263.276 56.360 263.092 56.268L263.092 56.268Q262.770 56.130 261.988 55.877Q261.206 55.624 260.102 55.624L260.102 55.624Q259.504 55.624 258.998 55.716Q258.492 55.808 257.986 55.946L257.986 55.946Z M278.240 72L278.240 72Q278.102 72 278.102 71.724Q278.102 71.448 278.240 71.448L278.240 71.448Q280.126 71.448 280.678 70.850Q281.230 70.252 281.230 68.274L281.230 68.274L281.230 60.592Q281.230 57.786 280.172 56.498Q279.114 55.210 276.860 55.210L276.860 55.210Q275.112 55.210 273.295 56.360Q271.478 57.510 270.144 59.534L270.144 59.534L269.960 58.982Q272.122 56.130 274.100 54.888Q276.078 53.646 278.102 53.646L278.102 53.646Q280.632 53.646 282.012 55.003Q283.392 56.360 283.392 59.212L283.392 59.212L283.392 68.274Q283.392 70.252 283.921 70.850Q284.450 71.448 286.382 71.448L286.382 71.448Q286.520 71.448 286.520 71.724Q286.520 72 286.382 72L286.382 72Q285.600 72 284.542 71.954Q283.484 71.908 282.334 71.908L282.334 71.908Q281.184 71.908 280.103 71.954Q279.022 72 278.240 72ZM265.866 72L265.866 72Q265.728 72 265.728 71.724Q265.728 71.448 265.866 71.448L265.866 71.448Q267.752 71.448 268.304 70.850Q268.856 70.252 268.856 68.274L268.856 68.274L268.856 59.074Q268.856 57.510 268.488 56.797Q268.120 56.084 267.200 56.084L267.200 56.084Q266.740 56.084 266.096 56.268Q265.452 56.452 264.624 56.774L264.624 56.774Q264.440 56.820 264.325 56.590Q264.210 56.360 264.394 56.268L264.394 56.268L269.500 53.876Q269.592 53.830 269.730 53.830L269.730 53.830Q270.052 53.830 270.535 54.773Q271.018 55.716 271.018 57.510L271.018 57.510L271.018 68.274Q271.018 70.252 271.547 70.850Q272.076 71.448 274.008 71.448L274.008 71.448Q274.146 71.448 274.146 71.724Q274.146 72 274.008 72L274.008 72Q273.226 72 272.168 71.954Q271.110 71.908 269.960 71.908L269.960 71.908Q268.810 71.908 267.729 71.954Q266.648 72 265.866 72Z M306.176 70.022L301.438 72.276Q301.254 72.368 301.070 72.368L301.070 72.368Q300.518 72.368 300.058 71.402Q299.598 70.436 299.598 68.596L299.598 68.596L299.598 59.718Q299.598 56.866 298.701 55.762Q297.804 54.658 296.470 54.658L296.470 54.658Q295.320 54.658 294.561 55.187Q293.802 55.716 293.411 56.498Q293.020 57.280 292.836 57.970L292.836 57.970Q292.744 58.430 292.514 59.051Q292.284 59.672 291.364 59.672L291.364 59.672Q290.674 59.672 290.329 59.258Q289.984 58.844 289.984 58.384L289.984 58.384Q289.984 57.602 290.812 56.797Q291.640 55.992 292.905 55.302Q294.170 54.612 295.550 54.198Q296.930 53.784 298.080 53.784L298.080 53.784Q299.966 53.784 300.840 55.003Q301.714 56.222 301.714 58.338L301.714 58.338L301.714 67.032Q301.714 68.688 302.105 69.447Q302.496 70.206 303.462 70.206L303.462 70.206Q304.336 70.206 305.992 69.516L305.992 69.516Q306.222 69.424 306.314 69.677Q306.406 69.930 306.176 70.022L306.176 70.022ZM293.296 72.322L293.296 72.322Q291.594 72.322 290.697 71.379Q289.800 70.436 289.800 69.194L289.800 69.194Q289.800 68.412 290.191 67.676Q290.582 66.940 291.571 66.250Q292.560 65.560 294.308 64.916L294.308 64.916L300.058 62.754L300.150 63.352L294.722 65.422Q293.756 65.790 293.250 66.227Q292.744 66.664 292.560 67.147Q292.376 67.630 292.376 68.136L292.376 68.136Q292.376 69.148 293.043 69.976Q293.710 70.804 294.998 70.804L294.998 70.804Q295.504 70.804 296.056 70.643Q296.608 70.482 297.390 70.022L297.390 70.022L300.472 68.228L300.564 68.780L297.114 70.942Q295.964 71.678 295.090 72Q294.216 72.322 293.296 72.322Z M307.800 72L307.800 72Q307.662 72 307.662 71.724Q307.662 71.448 307.800 71.448L307.800 71.448Q309.686 71.448 310.238 70.850Q310.790 70.252 310.790 68.274L310.790 68.274L310.790 44.400Q310.790 42.744 310.468 41.985Q310.146 41.226 309.318 41.226L309.318 41.226Q308.582 41.226 307.110 41.916L307.110 41.916Q306.926 42.008 306.811 41.732Q306.696 41.456 306.880 41.410L306.880 41.410L312.538 38.696Q312.630 38.650 312.768 38.650L312.768 38.650Q312.860 38.650 312.975 38.742Q313.090 38.834 313.090 38.972L313.090 38.972L313.090 68.274Q313.090 70.206 313.619 70.827Q314.148 71.448 316.080 71.448L316.080 71.448Q316.218 71.448 316.218 71.724Q316.218 72 316.080 72L316.080 72Q315.298 72 314.217 71.954Q313.136 71.908 311.940 71.908L311.940 71.908Q310.790 71.908 309.686 71.954Q308.582 72 307.800 72Z" fill="#1A2235"/>
</svg>