<svg xmlns="http://www.w3.org/2000/svg" width="800" height="800" viewBox="0 0 800 800">
  <circle cx="400" cy="400" r="400" fill="#1A2235"/>
  <path d="M260.544 324.352L260.544 324.352Q244.416 324.352 237.120 332.032Q229.824 339.712 227.008 359.424L227.008 359.424Q227.008 359.936 225.472 359.936Q223.936 359.936 223.936 359.424L223.936 359.424Q224.448 356.352 225.088 350.464Q225.728 344.576 226.240 337.792Q226.752 331.008 227.136 324.736Q227.520 318.464 227.520 314.368L227.520 314.368Q227.520 313.088 229.056 313.088Q230.592 313.088 230.592 314.368L230.592 314.368Q230.592 316.928 233.024 318.080Q235.456 319.232 238.656 319.616Q241.856 320 244.160 320L244.160 320Q266.176 320.768 295.616 320.768L295.616 320.768Q313.792 320.768 324.416 320.384Q335.040 320 345.024 320L345.024 320Q353.472 320 358.208 318.848Q362.944 317.696 364.224 313.600L364.224 313.600Q364.480 312.576 365.760 312.576Q367.040 312.576 367.040 313.600L367.040 313.600Q366.784 317.440 366.272 323.840Q365.760 330.240 365.504 337.280Q365.248 344.320 364.992 350.336Q364.736 356.352 364.736 359.424L364.736 359.424Q364.736 359.936 363.200 359.936Q361.664 359.936 361.664 359.424L361.664 359.424Q361.664 339.712 355.008 332.032Q348.352 324.352 330.688 324.352L330.688 324.352Q318.656 324.352 312.640 325.248Q306.624 326.144 304.704 329.600Q302.784 333.056 302.784 341.248L302.784 341.248L302.784 459.264Q302.784 466.688 304.576 470.528Q306.368 474.368 311.872 475.648Q317.376 476.928 328.640 476.928L328.640 476.928Q329.152 476.928 329.152 478.464Q329.152 480 328.640 480L328.640 480Q321.984 480 313.664 479.744Q305.344 479.488 295.616 479.488L295.616 479.488Q286.400 479.488 278.080 479.744Q269.760 480 262.848 480L262.848 480Q262.336 480 262.336 478.464Q262.336 476.928 262.848 476.928L262.848 476.928Q273.856 476.928 279.488 475.648Q285.120 474.368 287.040 470.528Q288.960 466.688 288.960 459.264L288.960 459.264L288.960 340.736Q288.960 332.544 286.912 329.088Q284.864 325.632 278.720 324.992Q272.576 324.352 260.544 324.352Z" fill="#F7F5F2"/><path d="M418.944 438.784L418.944 438.784Q414.336 438.784 411.520 436.096Q408.704 433.408 408.704 428.800L408.704 428.800Q408.704 424.448 411.520 421.888Q414.336 419.328 418.944 419.328L418.944 419.328Q423.808 419.328 426.368 421.888Q428.928 424.448 428.928 428.800L428.928 428.800Q428.928 433.408 426.368 436.096Q423.808 438.784 418.944 438.784Z" fill="#C4622D"/><path d="M496.704 350.976L496.704 350.976Q496.704 361.728 501.952 369.280Q507.200 376.832 515.520 382.464Q523.840 388.096 533.056 393.472L533.056 393.472Q542.528 398.848 551.232 404.864Q559.936 410.880 565.696 419.200Q571.456 427.520 571.456 439.808L571.456 439.808Q571.456 451.584 565.696 461.440Q559.936 471.296 548.416 477.184Q536.896 483.072 519.488 483.072L519.488 483.072Q513.856 483.072 508.352 482.304Q502.848 481.536 497.088 479.616Q491.328 477.696 484.672 474.368L484.672 474.368Q483.392 473.600 483.008 472.448Q482.624 471.296 482.368 469.504L482.368 469.504L478.528 436.224Q478.272 434.944 479.680 434.816Q481.088 434.688 481.344 435.712L481.344 435.712Q482.368 443.392 485.440 451.072Q488.512 458.752 493.760 465.152Q499.008 471.552 506.816 475.520Q514.624 479.488 525.120 479.488L525.120 479.488Q533.056 479.488 540.480 476.544Q547.904 473.600 552.640 466.944Q557.376 460.288 557.376 448.768L557.376 448.768Q557.376 436.224 551.872 427.904Q546.368 419.584 537.920 413.568Q529.472 407.552 520 402.176L520 402.176Q511.040 396.800 502.592 390.912Q494.144 385.024 488.896 376.960Q483.648 368.896 483.648 356.864L483.648 356.864Q483.648 343.552 490.304 334.720Q496.960 325.888 507.584 321.536Q518.208 317.184 529.728 317.184L529.728 317.184Q536.384 317.184 543.680 318.592Q550.976 320 558.912 323.328L558.912 323.328Q560.960 324.096 561.856 325.248Q562.752 326.400 562.752 327.680L562.752 327.680L565.056 354.816Q565.056 355.840 563.648 355.840Q562.240 355.840 561.984 354.816L561.984 354.816Q561.472 349.184 559.296 343.168Q557.120 337.152 552.896 332.032Q548.672 326.912 542.144 323.712Q535.616 320.512 526.400 320.512L526.400 320.512Q515.392 320.512 508.864 325.120Q502.336 329.728 499.520 336.640Q496.704 343.552 496.704 350.976Z" fill="#F7F5F2"/>
</svg>