<svg xmlns="http://www.w3.org/2000/svg" width="180" height="100" viewBox="0 0 180 100">
  <path d="M32.384 33.952L32.384 33.952Q28.856 33.952 27.260 35.632Q25.664 37.312 25.048 41.624L25.048 41.624Q25.048 41.736 24.712 41.736Q24.376 41.736 24.376 41.624L24.376 41.624Q24.488 40.952 24.628 39.664Q24.768 38.376 24.880 36.892Q24.992 35.408 25.076 34.036Q25.160 32.664 25.160 31.768L25.160 31.768Q25.160 31.488 25.496 31.488Q25.832 31.488 25.832 31.768L25.832 31.768Q25.832 32.328 26.364 32.580Q26.896 32.832 27.596 32.916Q28.296 33 28.800 33L28.800 33Q33.616 33.168 40.056 33.168L40.056 33.168Q44.032 33.168 46.356 33.084Q48.680 33 50.864 33L50.864 33Q52.712 33 53.748 32.748Q54.784 32.496 55.064 31.600L55.064 31.600Q55.120 31.376 55.400 31.376Q55.680 31.376 55.680 31.600L55.680 31.600Q55.624 32.440 55.512 33.840Q55.400 35.240 55.344 36.780Q55.288 38.320 55.232 39.636Q55.176 40.952 55.176 41.624L55.176 41.624Q55.176 41.736 54.840 41.736Q54.504 41.736 54.504 41.624L54.504 41.624Q54.504 37.312 53.048 35.632Q51.592 33.952 47.728 33.952L47.728 33.952Q45.096 33.952 43.780 34.148Q42.464 34.344 42.044 35.100Q41.624 35.856 41.624 37.648L41.624 37.648L41.624 63.464Q41.624 65.088 42.016 65.928Q42.408 66.768 43.612 67.048Q44.816 67.328 47.280 67.328L47.280 67.328Q47.392 67.328 47.392 67.664Q47.392 68 47.280 68L47.280 68Q45.824 68 44.004 67.944Q42.184 67.888 40.056 67.888L40.056 67.888Q38.040 67.888 36.220 67.944Q34.400 68 32.888 68L32.888 68Q32.776 68 32.776 67.664Q32.776 67.328 32.888 67.328L32.888 67.328Q35.296 67.328 36.528 67.048Q37.760 66.768 38.180 65.928Q38.600 65.088 38.600 63.464L38.600 63.464L38.600 37.536Q38.600 35.744 38.152 34.988Q37.704 34.232 36.360 34.092Q35.016 33.952 32.384 33.952Z" fill="#1A2235"/>
  <g transform="translate(90,52)"><g transform="scale(0.10)"><path d="M 0 -92 L 15 -15 L 92 0 L 15 15 L 0 92 L -15 15 L -92 0 L -15 -15 Z" fill="#C4622D"/></g></g>
  <path d="M136.148 39.776L136.148 39.776Q136.148 42.128 137.296 43.780Q138.444 45.432 140.264 46.664Q142.084 47.896 144.100 49.072L144.100 49.072Q146.172 50.248 148.076 51.564Q149.980 52.880 151.240 54.700Q152.500 56.520 152.500 59.208L152.500 59.208Q152.500 61.784 151.240 63.940Q149.980 66.096 147.460 67.384Q144.940 68.672 141.132 68.672L141.132 68.672Q139.900 68.672 138.696 68.504Q137.492 68.336 136.232 67.916Q134.972 67.496 133.516 66.768L133.516 66.768Q133.236 66.600 133.152 66.348Q133.068 66.096 133.012 65.704L133.012 65.704L132.172 58.424Q132.116 58.144 132.424 58.116Q132.732 58.088 132.788 58.312L132.788 58.312Q133.012 59.992 133.684 61.672Q134.356 63.352 135.504 64.752Q136.652 66.152 138.360 67.020Q140.068 67.888 142.364 67.888L142.364 67.888Q144.100 67.888 145.724 67.244Q147.348 66.600 148.384 65.144Q149.420 63.688 149.420 61.168L149.420 61.168Q149.420 58.424 148.216 56.604Q147.012 54.784 145.164 53.468Q143.316 52.152 141.244 50.976L141.244 50.976Q139.284 49.800 137.436 48.512Q135.588 47.224 134.440 45.460Q133.292 43.696 133.292 41.064L133.292 41.064Q133.292 38.152 134.748 36.220Q136.204 34.288 138.528 33.336Q140.852 32.384 143.372 32.384L143.372 32.384Q144.828 32.384 146.424 32.692Q148.020 33 149.756 33.728L149.756 33.728Q150.204 33.896 150.400 34.148Q150.596 34.400 150.596 34.680L150.596 34.680L151.100 40.616Q151.100 40.840 150.792 40.840Q150.484 40.840 150.428 40.616L150.428 40.616Q150.316 39.384 149.840 38.068Q149.364 36.752 148.440 35.632Q147.516 34.512 146.088 33.812Q144.660 33.112 142.644 33.112L142.644 33.112Q140.236 33.112 138.808 34.120Q137.380 35.128 136.764 36.640Q136.148 38.152 136.148 39.776Z" fill="#1A2235"/>
</svg>