<svg xmlns="http://www.w3.org/2000/svg" width="640" height="100" viewBox="0 0 640 100">
  <path d="M7.920 38.248L7.920 38.248Q5.148 38.248 3.894 39.568Q2.640 40.888 2.156 44.276L2.156 44.276Q2.156 44.364 1.892 44.364Q1.628 44.364 1.628 44.276L1.628 44.276Q1.716 43.748 1.826 42.736Q1.936 41.724 2.024 40.558Q2.112 39.392 2.178 38.314Q2.244 37.236 2.244 36.532L2.244 36.532Q2.244 36.312 2.508 36.312Q2.772 36.312 2.772 36.532L2.772 36.532Q2.772 36.972 3.190 37.170Q3.608 37.368 4.158 37.434Q4.708 37.500 5.104 37.500L5.104 37.500Q8.888 37.632 13.948 37.632L13.948 37.632Q17.072 37.632 18.898 37.566Q20.724 37.500 22.440 37.500L22.440 37.500Q23.892 37.500 24.706 37.302Q25.520 37.104 25.740 36.400L25.740 36.400Q25.784 36.224 26.004 36.224Q26.224 36.224 26.224 36.400L26.224 36.400Q26.180 37.060 26.092 38.160Q26.004 39.260 25.960 40.470Q25.916 41.680 25.872 42.714Q25.828 43.748 25.828 44.276L25.828 44.276Q25.828 44.364 25.564 44.364Q25.300 44.364 25.300 44.276L25.300 44.276Q25.300 40.888 24.156 39.568Q23.012 38.248 19.976 38.248L19.976 38.248Q17.908 38.248 16.874 38.402Q15.840 38.556 15.510 39.150Q15.180 39.744 15.180 41.152L15.180 41.152L15.180 61.436Q15.180 62.712 15.488 63.372Q15.796 64.032 16.742 64.252Q17.688 64.472 19.624 64.472L19.624 64.472Q19.712 64.472 19.712 64.736Q19.712 65 19.624 65L19.624 65Q18.480 65 17.050 64.956Q15.620 64.912 13.948 64.912L13.948 64.912Q12.364 64.912 10.934 64.956Q9.504 65 8.316 65L8.316 65Q8.228 65 8.228 64.736Q8.228 64.472 8.316 64.472L8.316 64.472Q10.208 64.472 11.176 64.252Q12.144 64.032 12.474 63.372Q12.804 62.712 12.804 61.436L12.804 61.436L12.804 41.064Q12.804 39.656 12.452 39.062Q12.100 38.468 11.044 38.358Q9.988 38.248 7.920 38.248Z M62.148 65L62.148 65Q61.400 65 59.684 63.284Q57.968 61.568 55.548 58.378Q53.128 55.188 50.136 50.832L50.136 50.832L52.248 50.172Q56.032 55.496 58.672 58.642Q61.312 61.788 63.336 63.130Q65.360 64.472 67.252 64.472L67.252 64.472Q67.384 64.472 67.384 64.736Q67.384 65 67.252 65L67.252 65Q65.272 65 64.018 65Q62.764 65 62.148 65ZM50.664 37.368L50.664 37.368Q54.052 37.368 55.834 38.996Q57.616 40.624 57.616 43.220L57.616 43.220Q57.616 45.552 56.252 47.444Q54.888 49.336 52.622 50.436Q50.356 51.536 47.628 51.536L47.628 51.536Q47.232 51.536 46.704 51.492Q46.176 51.448 45.736 51.404L45.736 51.404L45.736 61.436Q45.736 62.712 46.000 63.372Q46.264 64.032 47.122 64.252Q47.980 64.472 49.652 64.472L49.652 64.472Q49.784 64.472 49.784 64.736Q49.784 65 49.652 65L49.652 65Q48.596 65 47.342 64.956Q46.088 64.912 44.548 64.912L44.548 64.912Q43.140 64.912 41.820 64.956Q40.500 65 39.444 65L39.444 65Q39.356 65 39.356 64.736Q39.356 64.472 39.444 64.472L39.444 64.472Q41.116 64.472 41.974 64.252Q42.832 64.032 43.140 63.372Q43.448 62.712 43.448 61.436L43.448 61.436L43.448 41.064Q43.448 39.788 43.162 39.150Q42.876 38.512 42.040 38.270Q41.204 38.028 39.532 38.028L39.532 38.028Q39.400 38.028 39.400 37.764Q39.400 37.500 39.532 37.500L39.532 37.500Q40.544 37.500 41.842 37.566Q43.140 37.632 44.548 37.632L44.548 37.632Q45.912 37.632 47.716 37.500Q49.520 37.368 50.664 37.368ZM55.152 44.408L55.152 44.408Q55.152 42.032 54.382 40.624Q53.612 39.216 52.182 38.578Q50.752 37.940 48.728 37.940L48.728 37.940Q47.144 37.940 46.440 38.512Q45.736 39.084 45.736 41.152L45.736 41.152L45.736 50.392Q46.352 50.436 47.078 50.480Q47.804 50.524 48.376 50.524L48.376 50.524Q52.160 50.524 53.656 48.940Q55.152 47.356 55.152 44.408Z M101.724 54.748L101.724 42.120Q101.724 40.008 100.822 39.018Q99.920 38.028 97.984 38.028L97.984 38.028Q97.852 38.028 97.852 37.764Q97.852 37.500 97.984 37.500L97.984 37.500Q98.952 37.500 99.986 37.566Q101.020 37.632 102.252 37.632L102.252 37.632Q103.264 37.632 104.298 37.566Q105.332 37.500 106.168 37.500L106.168 37.500Q106.256 37.500 106.256 37.764Q106.256 38.028 106.168 38.028L106.168 38.028Q104.408 38.028 103.550 39.018Q102.692 40.008 102.692 42.120L102.692 42.120L102.692 54.704Q102.692 58.180 101.416 60.600Q100.140 63.020 97.830 64.296Q95.520 65.572 92.440 65.572L92.440 65.572Q89.184 65.572 86.764 64.274Q84.344 62.976 83.024 60.622Q81.704 58.268 81.704 55.100L81.704 55.100L81.704 41.064Q81.704 39.788 81.418 39.150Q81.132 38.512 80.296 38.270Q79.460 38.028 77.788 38.028L77.788 38.028Q77.700 38.028 77.700 37.764Q77.700 37.500 77.788 37.500L77.788 37.500Q78.844 37.500 80.120 37.566Q81.396 37.632 82.848 37.632L82.848 37.632Q84.344 37.632 85.642 37.566Q86.940 37.500 87.908 37.500L87.908 37.500Q88.040 37.500 88.040 37.764Q88.040 38.028 87.908 38.028L87.908 38.028Q86.236 38.028 85.400 38.292Q84.564 38.556 84.300 39.216Q84.036 39.876 84.036 41.152L84.036 41.152L84.036 53.560Q84.036 58.752 86.456 61.524Q88.876 64.296 93.232 64.296L93.232 64.296Q97.280 64.296 99.502 61.744Q101.724 59.192 101.724 54.748L101.724 54.748Z M137.032 65L137.032 65L118.860 65Q118.772 65 118.772 64.736Q118.772 64.472 118.860 64.472L118.860 64.472Q120.532 64.472 121.368 64.252Q122.204 64.032 122.490 63.372Q122.776 62.712 122.776 61.436L122.776 61.436L122.776 41.064Q122.776 39.788 122.490 39.150Q122.204 38.512 121.368 38.270Q120.532 38.028 118.860 38.028L118.860 38.028Q118.772 38.028 118.772 37.764Q118.772 37.500 118.860 37.500L118.860 37.500L136.284 37.500Q136.680 37.500 136.680 37.896L136.680 37.896L136.768 43.220Q136.768 43.352 136.526 43.352Q136.284 43.352 136.284 43.220L136.284 43.220Q136.284 40.932 135.096 39.634Q133.908 38.336 131.972 38.336L131.972 38.336L128.936 38.336Q127.308 38.336 126.494 38.556Q125.680 38.776 125.394 39.414Q125.108 40.052 125.108 41.328L125.108 41.328L125.108 61.260Q125.108 62.492 125.394 63.108Q125.680 63.724 126.494 63.944Q127.308 64.164 128.936 64.164L128.936 64.164L132.984 64.164Q134.744 64.164 136.020 62.624Q137.296 61.084 137.604 58.576L137.604 58.576Q137.604 58.444 137.868 58.466Q138.132 58.488 138.132 58.620L138.132 58.620Q137.956 59.764 137.846 61.370Q137.736 62.976 137.736 64.340L137.736 64.340Q137.736 65 137.032 65ZM134.568 54.660L134.568 54.660Q134.568 52.680 133.732 51.888Q132.896 51.096 130.784 51.096L130.784 51.096L124.008 51.096L124.008 50.260L130.916 50.260Q132.940 50.260 133.732 49.578Q134.524 48.896 134.524 47.224L134.524 47.224Q134.524 47.136 134.788 47.136Q135.052 47.136 135.052 47.224L135.052 47.224Q135.052 48.500 135.030 49.204Q135.008 49.908 135.008 50.700L135.008 50.700Q135.008 51.668 135.052 52.614Q135.096 53.560 135.096 54.660L135.096 54.660Q135.096 54.748 134.832 54.748Q134.568 54.748 134.568 54.660Z" fill="#1A2235"/>
  <g transform="translate(320,50)"><g transform="scale(0.13)"><path d="M 0 -92 L 15 -15 L 92 0 L 15 15 L 0 92 L -15 15 L -92 0 L -15 -15 Z" fill="#C4622D"/></g></g>
  <path d="M444.584 42.824L444.584 42.824Q444.584 44.672 445.486 45.970Q446.388 47.268 447.818 48.236Q449.248 49.204 450.832 50.128L450.832 50.128Q452.460 51.052 453.956 52.086Q455.452 53.120 456.442 54.550Q457.432 55.980 457.432 58.092L457.432 58.092Q457.432 60.116 456.442 61.810Q455.452 63.504 453.472 64.516Q451.492 65.528 448.500 65.528L448.500 65.528Q447.532 65.528 446.586 65.396Q445.640 65.264 444.650 64.934Q443.660 64.604 442.516 64.032L442.516 64.032Q442.296 63.900 442.230 63.702Q442.164 63.504 442.120 63.196L442.120 63.196L441.460 57.476Q441.416 57.256 441.658 57.234Q441.900 57.212 441.944 57.388L441.944 57.388Q442.120 58.708 442.648 60.028Q443.176 61.348 444.078 62.448Q444.980 63.548 446.322 64.230Q447.664 64.912 449.468 64.912L449.468 64.912Q450.832 64.912 452.108 64.406Q453.384 63.900 454.198 62.756Q455.012 61.612 455.012 59.632L455.012 59.632Q455.012 57.476 454.066 56.046Q453.120 54.616 451.668 53.582Q450.216 52.548 448.588 51.624L448.588 51.624Q447.048 50.700 445.596 49.688Q444.144 48.676 443.242 47.290Q442.340 45.904 442.340 43.836L442.340 43.836Q442.340 41.548 443.484 40.030Q444.628 38.512 446.454 37.764Q448.280 37.016 450.260 37.016L450.260 37.016Q451.404 37.016 452.658 37.258Q453.912 37.500 455.276 38.072L455.276 38.072Q455.628 38.204 455.782 38.402Q455.936 38.600 455.936 38.820L455.936 38.820L456.332 43.484Q456.332 43.660 456.090 43.660Q455.848 43.660 455.804 43.484L455.804 43.484Q455.716 42.516 455.342 41.482Q454.968 40.448 454.242 39.568Q453.516 38.688 452.394 38.138Q451.272 37.588 449.688 37.588L449.688 37.588Q447.796 37.588 446.674 38.380Q445.552 39.172 445.068 40.360Q444.584 41.548 444.584 42.824Z M478.000 41.152L478.000 61.436Q478.000 62.712 478.264 63.372Q478.528 64.032 479.386 64.252Q480.244 64.472 481.916 64.472L481.916 64.472Q482.004 64.472 482.004 64.736Q482.004 65 481.916 65L481.916 65Q480.860 65 479.584 64.956Q478.308 64.912 476.768 64.912L476.768 64.912Q475.316 64.912 474.018 64.956Q472.720 65 471.664 65L471.664 65Q471.532 65 471.532 64.736Q471.532 64.472 471.664 64.472L471.664 64.472Q473.336 64.472 474.194 64.252Q475.052 64.032 475.338 63.372Q475.624 62.712 475.624 61.436L475.624 61.436L475.624 41.064Q475.624 39.788 475.338 39.150Q475.052 38.512 474.194 38.270Q473.336 38.028 471.664 38.028L471.664 38.028Q471.532 38.028 471.532 37.764Q471.532 37.500 471.664 37.500L471.664 37.500Q472.720 37.500 474.018 37.566Q475.316 37.632 476.768 37.632L476.768 37.632Q478.308 37.632 479.606 37.566Q480.904 37.500 481.916 37.500L481.916 37.500Q482.004 37.500 482.004 37.764Q482.004 38.028 481.916 38.028L481.916 38.028Q480.244 38.028 479.408 38.292Q478.572 38.556 478.286 39.216Q478.000 39.876 478.000 41.152L478.000 41.152Z M511.592 65.528L511.592 65.528Q507.896 65.528 504.970 64.384Q502.044 63.240 500.042 61.216Q498.040 59.192 496.984 56.574Q495.928 53.956 495.928 51.008L495.928 51.008Q495.928 47.708 497.182 45.134Q498.436 42.560 500.658 40.734Q502.880 38.908 505.850 37.962Q508.820 37.016 512.252 37.016L512.252 37.016Q514.716 37.016 516.740 37.500Q518.764 37.984 520.128 38.864L520.128 38.864Q520.436 39.040 520.480 39.172Q520.524 39.304 520.568 39.832L520.568 39.832L521.096 44.760Q521.096 44.892 520.876 44.936Q520.656 44.980 520.568 44.848L520.568 44.848Q520.084 43.044 519.358 41.702Q518.632 40.360 517.554 39.480Q516.476 38.600 515.024 38.138Q513.572 37.676 511.636 37.676L511.636 37.676Q508.028 37.676 505.124 39.216Q502.220 40.756 500.526 43.616Q498.832 46.476 498.832 50.436L498.832 50.436Q498.832 52.988 499.646 55.562Q500.460 58.136 502.154 60.248Q503.848 62.360 506.488 63.636Q509.128 64.912 512.780 64.912L512.780 64.912Q514.980 64.912 516.278 64.340Q517.576 63.768 518.148 62.580Q518.720 61.392 518.720 59.500L518.720 59.500Q518.720 57.388 518.434 56.398Q518.148 55.408 517.070 55.100Q515.992 54.792 513.572 54.792L513.572 54.792Q513.308 54.792 513.308 54.440Q513.308 54.088 513.528 54.088L513.528 54.088Q516.256 54.264 518.500 54.286Q520.744 54.308 523.208 54.176L523.208 54.176Q523.428 54.176 523.428 54.484Q523.428 54.792 523.208 54.792L523.208 54.792Q522.108 54.748 521.602 55.078Q521.096 55.408 520.964 56.508Q520.832 57.608 520.832 59.940L520.832 59.940Q520.832 61.392 520.920 62.096Q521.008 62.800 521.074 63.130Q521.140 63.460 521.140 63.812L521.140 63.812Q521.140 64.076 521.052 64.164Q520.964 64.252 520.656 64.340L520.656 64.340Q518.456 64.824 516.058 65.176Q513.660 65.528 511.592 65.528Z M539.860 60.424L539.860 60.424L539.860 38.512L540.828 38.600L540.828 60.424Q540.828 62.668 541.576 63.570Q542.324 64.472 544.172 64.472L544.172 64.472Q544.304 64.472 544.304 64.736Q544.304 65 544.172 65L544.172 65Q543.336 65 542.434 64.956Q541.532 64.912 540.432 64.912L540.432 64.912Q539.376 64.912 538.408 64.956Q537.440 65 536.560 65L536.560 65Q536.472 65 536.472 64.736Q536.472 64.472 536.560 64.472L536.560 64.472Q538.496 64.472 539.178 63.570Q539.860 62.668 539.860 60.424ZM561.640 62.140L561.992 65.484Q561.992 65.572 561.772 65.594Q561.552 65.616 561.464 65.572L561.464 65.572L541.576 41.108Q540.080 39.304 538.914 38.666Q537.748 38.028 536.692 38.028L536.692 38.028Q536.560 38.028 536.560 37.764Q536.560 37.500 536.692 37.500L536.692 37.500Q537.440 37.500 538.232 37.544Q539.024 37.588 539.640 37.588L539.640 37.588Q540.256 37.588 540.806 37.544Q541.356 37.500 541.620 37.500L541.620 37.500Q542.192 37.500 542.412 38.006Q542.632 38.512 543.644 39.788L543.644 39.788L561.640 62.140ZM561.992 42.120L561.992 42.120L561.992 65.484L561.024 64.120L561.024 42.120Q561.024 39.876 560.320 38.952Q559.616 38.028 557.768 38.028L557.768 38.028Q557.680 38.028 557.680 37.764Q557.680 37.500 557.768 37.500L557.768 37.500Q558.648 37.500 559.550 37.566Q560.452 37.632 561.552 37.632L561.552 37.632Q562.564 37.632 563.576 37.566Q564.588 37.500 565.424 37.500L565.424 37.500Q565.556 37.500 565.556 37.764Q565.556 38.028 565.424 38.028L565.424 38.028Q563.532 38.028 562.762 38.952Q561.992 39.876 561.992 42.120Z M597.168 52.372L585.068 52.372L585.464 51.580L596.860 51.580L597.168 52.372ZM606.804 64.472L606.804 64.472Q606.980 64.472 606.980 64.736Q606.980 65 606.804 65L606.804 65Q605.572 65 604.274 64.912Q602.976 64.824 601.788 64.824L601.788 64.824Q600.424 64.824 599.434 64.912Q598.444 65 597.256 65L597.256 65Q597.080 65 597.080 64.736Q597.080 64.472 597.256 64.472L597.256 64.472Q599.720 64.472 600.358 63.812Q600.996 63.152 600.160 61.304L600.160 61.304L590.216 39.920L591.052 39.172L582.560 59.588Q581.460 62.272 582.384 63.372Q583.308 64.472 586.300 64.472L586.300 64.472Q586.520 64.472 586.520 64.736Q586.520 65 586.300 65L586.300 65Q584.980 65 583.880 64.912Q582.780 64.824 581.108 64.824L581.108 64.824Q579.568 64.824 578.622 64.912Q577.676 65 576.356 65L576.356 65Q576.180 65 576.180 64.736Q576.180 64.472 576.356 64.472L576.356 64.472Q577.544 64.472 578.424 64.032Q579.304 63.592 580.074 62.448Q580.844 61.304 581.724 59.192L581.724 59.192L590.920 37.060Q591.008 36.928 591.206 36.928Q591.404 36.928 591.448 37.060L591.448 37.060L601.656 58.972Q602.668 61.172 603.460 62.382Q604.252 63.592 605.044 64.032Q605.836 64.472 606.804 64.472Z M624.512 41.108L624.512 41.108L624.512 61.260Q624.512 62.492 624.798 63.108Q625.084 63.724 625.898 63.944Q626.712 64.164 628.296 64.164L628.296 64.164L633.928 64.164Q636.260 64.164 637.492 62.624Q638.724 61.084 639.076 58.576L639.076 58.576Q639.076 58.444 639.318 58.466Q639.560 58.488 639.560 58.620L639.560 58.620Q639.428 59.764 639.296 61.370Q639.164 62.976 639.164 64.340L639.164 64.340Q639.164 65 638.504 65L638.504 65L618.264 65Q618.176 65 618.176 64.736Q618.176 64.472 618.264 64.472L618.264 64.472Q619.936 64.472 620.772 64.252Q621.608 64.032 621.894 63.372Q622.180 62.712 622.180 61.436L622.180 61.436L622.180 41.064Q622.180 39.788 621.894 39.150Q621.608 38.512 620.772 38.270Q619.936 38.028 618.264 38.028L618.264 38.028Q618.176 38.028 618.176 37.764Q618.176 37.500 618.264 37.500L618.264 37.500Q619.320 37.500 620.618 37.566Q621.916 37.632 623.324 37.632L623.324 37.632Q624.820 37.632 626.118 37.566Q627.416 37.500 628.428 37.500L628.428 37.500Q628.516 37.500 628.516 37.764Q628.516 38.028 628.428 38.028L628.428 38.028Q626.756 38.028 625.920 38.270Q625.084 38.512 624.798 39.172Q624.512 39.832 624.512 41.108Z" fill="#1A2235"/>
</svg>