<svg xmlns="http://www.w3.org/2000/svg" width="560" height="130" viewBox="0 0 560 130">
  <g transform="translate(38,65)"><g transform="scale(0.30)"><path d="M 0 -92 L 15 -15 L 92 0 L 15 15 L 0 92 L -15 15 L -92 0 L -15 -15 Z" fill="#C4622D"/></g></g>
  <path d="M110.080 20.952L110.080 20.952Q106.552 20.952 104.956 22.632Q103.360 24.312 102.744 28.624L102.744 28.624Q102.744 28.736 102.408 28.736Q102.072 28.736 102.072 28.624L102.072 28.624Q102.184 27.952 102.324 26.664Q102.464 25.376 102.576 23.892Q102.688 22.408 102.772 21.036Q102.856 19.664 102.856 18.768L102.856 18.768Q102.856 18.488 103.192 18.488Q103.528 18.488 103.528 18.768L103.528 18.768Q103.528 19.328 104.060 19.580Q104.592 19.832 105.292 19.916Q105.992 20 106.496 20L106.496 20Q111.312 20.168 117.752 20.168L117.752 20.168Q121.728 20.168 124.052 20.084Q126.376 20 128.560 20L128.560 20Q130.408 20 131.444 19.748Q132.480 19.496 132.760 18.600L132.760 18.600Q132.816 18.376 133.096 18.376Q133.376 18.376 133.376 18.600L133.376 18.600Q133.320 19.440 133.208 20.840Q133.096 22.240 133.040 23.780Q132.984 25.320 132.928 26.636Q132.872 27.952 132.872 28.624L132.872 28.624Q132.872 28.736 132.536 28.736Q132.200 28.736 132.200 28.624L132.200 28.624Q132.200 24.312 130.744 22.632Q129.288 20.952 125.424 20.952L125.424 20.952Q122.792 20.952 121.476 21.148Q120.160 21.344 119.740 22.100Q119.320 22.856 119.320 24.648L119.320 24.648L119.320 50.464Q119.320 52.088 119.712 52.928Q120.104 53.768 121.308 54.048Q122.512 54.328 124.976 54.328L124.976 54.328Q125.088 54.328 125.088 54.664Q125.088 55 124.976 55L124.976 55Q123.520 55 121.700 54.944Q119.880 54.888 117.752 54.888L117.752 54.888Q115.736 54.888 113.916 54.944Q112.096 55 110.584 55L110.584 55Q110.472 55 110.472 54.664Q110.472 54.328 110.584 54.328L110.584 54.328Q112.992 54.328 114.224 54.048Q115.456 53.768 115.876 52.928Q116.296 52.088 116.296 50.464L116.296 50.464L116.296 24.536Q116.296 22.744 115.848 21.988Q115.400 21.232 114.056 21.092Q112.712 20.952 110.080 20.952Z M142.676 39.824L142.676 39.824L142.452 39.264Q144.524 36.688 145.840 35.316Q147.156 33.944 148.108 33.412Q149.060 32.880 149.956 32.880L149.956 32.880Q151.132 32.880 152.252 33.496Q153.372 34.112 153.372 35.008L153.372 35.008Q153.372 35.568 152.952 36.016Q152.532 36.464 151.748 36.464L151.748 36.464Q151.076 36.464 150.600 36.072Q150.124 35.680 149.564 35.316Q149.004 34.952 148.052 34.952L148.052 34.952Q147.548 34.952 146.960 35.260Q146.372 35.568 145.392 36.604Q144.412 37.640 142.676 39.824ZM137.468 55L137.468 55Q137.300 55 137.300 54.664Q137.300 54.328 137.468 54.328L137.468 54.328Q139.764 54.328 140.436 53.600Q141.108 52.872 141.108 50.464L141.108 50.464L141.108 39.264Q141.108 37.360 140.660 36.492Q140.212 35.624 139.092 35.624L139.092 35.624Q138.532 35.624 137.748 35.848Q136.964 36.072 135.956 36.464L135.956 36.464Q135.732 36.520 135.592 36.240Q135.452 35.960 135.676 35.848L135.676 35.848L141.892 32.936Q142.004 32.880 142.172 32.880L142.172 32.880Q142.564 32.880 143.152 34.028Q143.740 35.176 143.740 37.360L143.740 37.360L143.740 50.464Q143.740 52.088 144.132 52.928Q144.524 53.768 145.728 54.048Q146.932 54.328 149.340 54.328L149.340 54.328Q149.508 54.328 149.508 54.664Q149.508 55 149.340 55L149.340 55Q147.996 55 146.204 54.944Q144.412 54.888 142.452 54.888L142.452 54.888Q141.052 54.888 139.736 54.944Q138.420 55 137.468 55Z M164.632 55.392L164.632 55.392Q161.944 55.392 160.376 53.684Q158.808 51.976 158.808 48.560L158.808 48.560L158.808 39.880Q158.808 37.584 158.472 36.604Q158.136 35.624 157.184 35.624L157.184 35.624Q156.344 35.624 155.168 36.184L155.168 36.184Q154.944 36.296 154.804 35.960Q154.664 35.624 154.888 35.568L154.888 35.568L160.768 32.936Q160.880 32.880 160.992 32.880L160.992 32.880Q161.104 32.880 161.272 32.992Q161.440 33.104 161.440 33.272L161.440 33.272L161.440 46.880Q161.440 50.296 162.616 51.892Q163.792 53.488 166.144 53.488L166.144 53.488Q168.440 53.488 170.736 52.116Q173.032 50.744 174.768 48.336L174.768 48.336L175.048 48.952Q172.304 52.424 169.784 53.908Q167.264 55.392 164.632 55.392ZM176.336 33.272L176.336 33.272L176.336 49.120Q176.336 51.024 176.812 51.892Q177.288 52.760 178.408 52.760L178.408 52.760Q179.024 52.760 179.752 52.536Q180.480 52.312 181.544 51.920L181.544 51.920Q181.824 51.808 181.936 52.116Q182.048 52.424 181.824 52.536L181.824 52.536L175.552 55.448Q175.440 55.504 175.328 55.504L175.328 55.504Q174.936 55.504 174.348 54.356Q173.760 53.208 173.760 51.024L173.760 51.024L173.760 39.880Q173.760 37.584 173.396 36.604Q173.032 35.624 172.080 35.624L172.080 35.624Q171.240 35.624 170.064 36.184L170.064 36.184Q169.840 36.296 169.728 35.960Q169.616 35.624 169.840 35.568L169.840 35.568L175.720 32.936Q175.832 32.880 175.888 32.880L175.888 32.880Q176 32.880 176.168 32.992Q176.336 33.104 176.336 33.272Z M193.532 55.672L193.532 55.672Q190.228 55.672 188.016 54.132Q185.804 52.592 184.684 50.128Q183.564 47.664 183.564 44.920L183.564 44.920Q183.564 41.504 185.132 38.788Q186.700 36.072 189.360 34.476Q192.020 32.880 195.156 32.880L195.156 32.880Q198.348 32.880 199.916 34.616Q201.484 36.352 201.484 39.264L201.484 39.264Q201.484 39.992 201.344 40.328Q201.204 40.664 200.812 40.664L200.812 40.664L198.180 40.664Q198.460 37.192 197.088 35.596Q195.716 34 193.364 34L193.364 34Q190.228 34 188.492 36.380Q186.756 38.760 186.756 42.904L186.756 42.904Q186.756 46.040 187.764 48.532Q188.772 51.024 190.732 52.452Q192.692 53.880 195.492 53.880L195.492 53.880Q197.452 53.880 198.712 53.292Q199.972 52.704 201.148 51.976L201.148 51.976Q201.260 51.864 201.456 52.116Q201.652 52.368 201.540 52.536L201.540 52.536Q199.580 54.216 197.592 54.944Q195.604 55.672 193.532 55.672ZM198.740 40.664L186.028 40.720L185.972 40.048L198.740 39.824L198.740 40.664Z M224.004 26.776L224.004 26.776Q224.004 29.128 225.152 30.780Q226.300 32.432 228.120 33.664Q229.940 34.896 231.956 36.072L231.956 36.072Q234.028 37.248 235.932 38.564Q237.836 39.880 239.096 41.700Q240.356 43.520 240.356 46.208L240.356 46.208Q240.356 48.784 239.096 50.940Q237.836 53.096 235.316 54.384Q232.796 55.672 228.988 55.672L228.988 55.672Q227.756 55.672 226.552 55.504Q225.348 55.336 224.088 54.916Q222.828 54.496 221.372 53.768L221.372 53.768Q221.092 53.600 221.008 53.348Q220.924 53.096 220.868 52.704L220.868 52.704L220.028 45.424Q219.972 45.144 220.280 45.116Q220.588 45.088 220.644 45.312L220.644 45.312Q220.868 46.992 221.540 48.672Q222.212 50.352 223.360 51.752Q224.508 53.152 226.216 54.020Q227.924 54.888 230.220 54.888L230.220 54.888Q231.956 54.888 233.580 54.244Q235.204 53.600 236.240 52.144Q237.276 50.688 237.276 48.168L237.276 48.168Q237.276 45.424 236.072 43.604Q234.868 41.784 233.020 40.468Q231.172 39.152 229.100 37.976L229.100 37.976Q227.140 36.800 225.292 35.512Q223.444 34.224 222.296 32.460Q221.148 30.696 221.148 28.064L221.148 28.064Q221.148 25.152 222.604 23.220Q224.060 21.288 226.384 20.336Q228.708 19.384 231.228 19.384L231.228 19.384Q232.684 19.384 234.280 19.692Q235.876 20 237.612 20.728L237.612 20.728Q238.060 20.896 238.256 21.148Q238.452 21.400 238.452 21.680L238.452 21.680L238.956 27.616Q238.956 27.840 238.648 27.840Q238.340 27.840 238.284 27.616L238.284 27.616Q238.172 26.384 237.696 25.068Q237.220 23.752 236.296 22.632Q235.372 21.512 233.944 20.812Q232.516 20.112 230.500 20.112L230.500 20.112Q228.092 20.112 226.664 21.120Q225.236 22.128 224.620 23.640Q224.004 25.152 224.004 26.776Z M246.128 55L246.128 55Q246.016 55 246.016 54.664Q246.016 54.328 246.128 54.328L246.128 54.328Q248.424 54.328 249.124 53.600Q249.824 52.872 249.824 50.464L249.824 50.464L249.824 39.880Q249.824 37.864 249.432 36.940Q249.040 36.016 247.976 36.016L247.976 36.016Q247.472 36.016 246.828 36.212Q246.184 36.408 245.288 36.856L245.288 36.856Q245.064 36.912 244.924 36.604Q244.784 36.296 245.008 36.184L245.008 36.184L251.952 32.936Q252.120 32.880 252.176 32.880L252.176 32.880Q252.288 32.880 252.428 32.992Q252.568 33.104 252.568 33.272L252.568 33.272Q252.568 33.664 252.512 35.428Q252.456 37.192 252.456 39.824L252.456 39.824L252.456 50.464Q252.456 52.872 253.100 53.600Q253.744 54.328 256.096 54.328L256.096 54.328Q256.264 54.328 256.264 54.664Q256.264 55 256.096 55L256.096 55Q255.144 55 253.856 54.944Q252.568 54.888 251.112 54.888L251.112 54.888Q249.712 54.888 248.424 54.944Q247.136 55 246.128 55ZM250.664 26.104L250.664 26.104Q249.600 26.104 249.012 25.544Q248.424 24.984 248.424 23.976L248.424 23.976Q248.424 22.968 249.012 22.408Q249.600 21.848 250.664 21.848L250.664 21.848Q251.672 21.848 252.232 22.408Q252.792 22.968 252.792 23.976L252.792 23.976Q252.792 26.104 250.664 26.104Z M267.860 70.680L267.860 70.680Q263.940 70.680 261.840 68.916Q259.740 67.152 259.740 64.576L259.740 64.576Q259.740 61.664 262.176 59.116Q264.612 56.568 268.756 54.216L268.756 54.216L269.372 54.944Q267.524 55.840 265.956 56.876Q264.388 57.912 263.436 59.340Q262.484 60.768 262.484 62.952L262.484 62.952Q262.484 64.744 263.296 66.116Q264.108 67.488 265.760 68.244Q267.412 69 269.932 69L269.932 69Q274.020 69 276.680 66.928Q279.340 64.856 279.340 61.272L279.340 61.272Q279.340 58.976 278.192 57.968Q277.044 56.960 275.028 56.708Q273.012 56.456 270.324 56.456L270.324 56.456Q267.748 56.456 265.648 56.260Q263.548 56.064 262.316 55.224Q261.084 54.384 261.084 52.536L261.084 52.536Q261.084 50.632 262.260 49.316Q263.436 48 265.452 46.264L265.452 46.264L266.068 46.824Q264.668 48 264.108 48.924Q263.548 49.848 263.548 50.856L263.548 50.856Q263.548 51.976 264.304 52.648Q265.060 53.320 266.908 53.628Q268.756 53.936 272.004 53.936L272.004 53.936Q273.236 53.936 274.860 53.992Q276.484 54.048 278.052 54.496Q279.620 54.944 280.656 56.120Q281.692 57.296 281.692 59.536L281.692 59.536Q281.692 61.832 280.544 63.848Q279.396 65.864 277.436 67.404Q275.476 68.944 272.984 69.812Q270.492 70.680 267.860 70.680ZM269.652 47.552L269.652 47.552Q266.964 47.552 265.088 46.572Q263.212 45.592 262.204 43.940Q261.196 42.288 261.196 40.328L261.196 40.328Q261.196 38.312 262.232 36.660Q263.268 35.008 265.228 34Q267.188 32.992 269.932 32.992L269.932 32.992Q273.012 32.992 274.832 34.112Q276.652 35.232 277.436 36.912Q278.220 38.592 278.220 40.216L278.220 40.216Q278.220 42.064 277.240 43.744Q276.260 45.424 274.356 46.488Q272.452 47.552 269.652 47.552ZM270.660 46.768L270.660 46.768Q272.620 46.768 273.908 45.508Q275.196 44.248 275.196 41.336L275.196 41.336Q275.196 38.984 274.328 37.304Q273.460 35.624 272.004 34.700Q270.548 33.776 268.700 33.776L268.700 33.776Q266.740 33.776 265.452 34.980Q264.164 36.184 264.164 39.096L264.164 39.096Q264.164 41.784 265.172 43.492Q266.180 45.200 267.664 45.984Q269.148 46.768 270.660 46.768ZM275.196 35.456L274.692 37.136L274.692 35.232Q276.428 34.224 278.052 33.580Q279.676 32.936 281.636 32.936L281.636 32.936Q281.748 32.936 281.832 33.328Q281.916 33.720 281.916 34.112L281.916 34.112Q281.916 34.672 281.776 35.316Q281.636 35.960 281.412 35.848L281.412 35.848Q281.020 35.680 280.068 35.372Q279.116 35.064 277.772 35.064L277.772 35.064Q277.044 35.064 276.428 35.176Q275.812 35.288 275.196 35.456L275.196 35.456Z M299.840 55L299.840 55Q299.672 55 299.672 54.664Q299.672 54.328 299.840 54.328L299.840 54.328Q302.136 54.328 302.808 53.600Q303.480 52.872 303.480 50.464L303.480 50.464L303.480 41.112Q303.480 37.696 302.192 36.128Q300.904 34.560 298.160 34.560L298.160 34.560Q296.032 34.560 293.820 35.960Q291.608 37.360 289.984 39.824L289.984 39.824L289.760 39.152Q292.392 35.680 294.800 34.168Q297.208 32.656 299.672 32.656L299.672 32.656Q302.752 32.656 304.432 34.308Q306.112 35.960 306.112 39.432L306.112 39.432L306.112 50.464Q306.112 52.872 306.756 53.600Q307.400 54.328 309.752 54.328L309.752 54.328Q309.920 54.328 309.920 54.664Q309.920 55 309.752 55L309.752 55Q308.800 55 307.512 54.944Q306.224 54.888 304.824 54.888L304.824 54.888Q303.424 54.888 302.108 54.944Q300.792 55 299.840 55ZM284.776 55L284.776 55Q284.608 55 284.608 54.664Q284.608 54.328 284.776 54.328L284.776 54.328Q287.072 54.328 287.744 53.600Q288.416 52.872 288.416 50.464L288.416 50.464L288.416 39.264Q288.416 37.360 287.968 36.492Q287.520 35.624 286.400 35.624L286.400 35.624Q285.840 35.624 285.056 35.848Q284.272 36.072 283.264 36.464L283.264 36.464Q283.040 36.520 282.900 36.240Q282.760 35.960 282.984 35.848L282.984 35.848L289.200 32.936Q289.312 32.880 289.480 32.880L289.480 32.880Q289.872 32.880 290.460 34.028Q291.048 35.176 291.048 37.360L291.048 37.360L291.048 50.464Q291.048 52.872 291.692 53.600Q292.336 54.328 294.688 54.328L294.688 54.328Q294.856 54.328 294.856 54.664Q294.856 55 294.688 55L294.688 55Q293.736 55 292.448 54.944Q291.160 54.888 289.760 54.888L289.760 54.888Q288.360 54.888 287.044 54.944Q285.728 55 284.776 55Z M333.836 52.592L328.068 55.336Q327.844 55.448 327.620 55.448L327.620 55.448Q326.948 55.448 326.388 54.272Q325.828 53.096 325.828 50.856L325.828 50.856L325.828 40.048Q325.828 36.576 324.736 35.232Q323.644 33.888 322.020 33.888L322.020 33.888Q320.620 33.888 319.696 34.532Q318.772 35.176 318.296 36.128Q317.820 37.080 317.596 37.920L317.596 37.920Q317.484 38.480 317.204 39.236Q316.924 39.992 315.804 39.992L315.804 39.992Q314.964 39.992 314.544 39.488Q314.124 38.984 314.124 38.424L314.124 38.424Q314.124 37.472 315.132 36.492Q316.140 35.512 317.680 34.672Q319.220 33.832 320.900 33.328Q322.580 32.824 323.980 32.824L323.980 32.824Q326.276 32.824 327.340 34.308Q328.404 35.792 328.404 38.368L328.404 38.368L328.404 48.952Q328.404 50.968 328.880 51.892Q329.356 52.816 330.532 52.816L330.532 52.816Q331.596 52.816 333.612 51.976L333.612 51.976Q333.892 51.864 334.004 52.172Q334.116 52.480 333.836 52.592L333.836 52.592ZM318.156 55.392L318.156 55.392Q316.084 55.392 314.992 54.244Q313.900 53.096 313.900 51.584L313.900 51.584Q313.900 50.632 314.376 49.736Q314.852 48.840 316.056 48Q317.260 47.160 319.388 46.376L319.388 46.376L326.388 43.744L326.500 44.472L319.892 46.992Q318.716 47.440 318.100 47.972Q317.484 48.504 317.260 49.092Q317.036 49.680 317.036 50.296L317.036 50.296Q317.036 51.528 317.848 52.536Q318.660 53.544 320.228 53.544L320.228 53.544Q320.844 53.544 321.516 53.348Q322.188 53.152 323.140 52.592L323.140 52.592L326.892 50.408L327.004 51.080L322.804 53.712Q321.404 54.608 320.340 55Q319.276 55.392 318.156 55.392Z M335.800 55L335.800 55Q335.632 55 335.632 54.664Q335.632 54.328 335.800 54.328L335.800 54.328Q338.096 54.328 338.768 53.600Q339.440 52.872 339.440 50.464L339.440 50.464L339.440 21.400Q339.440 19.384 339.048 18.460Q338.656 17.536 337.648 17.536L337.648 17.536Q336.752 17.536 334.960 18.376L334.960 18.376Q334.736 18.488 334.596 18.152Q334.456 17.816 334.680 17.760L334.680 17.760L341.568 14.456Q341.680 14.400 341.848 14.400L341.848 14.400Q341.960 14.400 342.100 14.512Q342.240 14.624 342.240 14.792L342.240 14.792L342.240 50.464Q342.240 52.816 342.884 53.572Q343.528 54.328 345.880 54.328L345.880 54.328Q346.048 54.328 346.048 54.664Q346.048 55 345.880 55L345.880 55Q344.928 55 343.612 54.944Q342.296 54.888 340.840 54.888L340.840 54.888Q339.440 54.888 338.096 54.944Q336.752 55 335.800 55Z" fill="#F7F5F2"/>
  <path d="M105.092 88.132L105.092 88.132Q104.003 88.132 103.206 87.632Q102.408 87.131 101.974 86.234Q101.539 85.338 101.539 84.150L101.539 84.150Q101.539 82.962 101.974 82.066Q102.408 81.169 103.206 80.668Q104.003 80.168 105.092 80.168L105.092 80.168Q106.401 80.168 107.215 80.795Q108.029 81.422 108.260 82.566L108.260 82.566L107.259 82.566Q107.072 81.851 106.538 81.416Q106.005 80.982 105.092 80.982L105.092 80.982Q104.300 80.982 103.712 81.362Q103.123 81.741 102.804 82.451Q102.485 83.160 102.485 84.150L102.485 84.150Q102.485 85.140 102.804 85.850Q103.123 86.559 103.712 86.939Q104.300 87.318 105.092 87.318L105.092 87.318Q106.005 87.318 106.538 86.894Q107.072 86.471 107.259 85.767L107.259 85.767L108.260 85.767Q108.029 86.878 107.215 87.505Q106.401 88.132 105.092 88.132Z M116.502 88.132L116.502 88.132Q115.446 88.132 114.643 87.632Q113.840 87.131 113.389 86.234Q112.938 85.338 112.938 84.150L112.938 84.150Q112.938 82.973 113.389 82.076Q113.840 81.180 114.643 80.674Q115.446 80.168 116.502 80.168L116.502 80.168Q117.580 80.168 118.383 80.674Q119.186 81.180 119.626 82.076Q120.066 82.973 120.066 84.150L120.066 84.150Q120.066 85.338 119.626 86.234Q119.186 87.131 118.383 87.632Q117.580 88.132 116.502 88.132ZM116.502 87.318L116.502 87.318Q117.294 87.318 117.882 86.939Q118.471 86.559 118.796 85.850Q119.120 85.140 119.120 84.150L119.120 84.150Q119.120 83.160 118.796 82.451Q118.471 81.741 117.882 81.367Q117.294 80.993 116.502 80.993L116.502 80.993Q115.721 80.993 115.133 81.367Q114.544 81.741 114.214 82.451Q113.884 83.160 113.884 84.150L113.884 84.150Q113.884 85.140 114.214 85.850Q114.544 86.559 115.133 86.939Q115.721 87.318 116.502 87.318Z M125.976 88L125.052 88L125.052 80.300L125.976 80.300L130.079 86.482L130.079 86.482L130.079 80.300L131.003 80.300L131.003 88L130.079 88L125.976 81.818L125.976 81.818L125.976 88Z M138.761 88.132L138.761 88.132Q137.914 88.132 137.287 87.824Q136.660 87.516 136.319 86.966Q135.978 86.416 135.978 85.690L135.978 85.690L136.946 85.690Q136.946 86.141 137.155 86.520Q137.364 86.900 137.765 87.126Q138.167 87.351 138.761 87.351L138.761 87.351Q139.278 87.351 139.646 87.180Q140.015 87.010 140.207 86.713Q140.400 86.416 140.400 86.042L140.400 86.042Q140.400 85.624 140.218 85.344Q140.037 85.063 139.718 84.882Q139.399 84.700 138.981 84.557Q138.563 84.414 138.079 84.260L138.079 84.260Q137.111 83.952 136.676 83.484Q136.242 83.017 136.242 82.280L136.242 82.280Q136.242 81.653 136.533 81.180Q136.825 80.707 137.369 80.438Q137.914 80.168 138.662 80.168L138.662 80.168Q139.399 80.168 139.944 80.443Q140.488 80.718 140.796 81.197Q141.104 81.675 141.104 82.302L141.104 82.302L140.136 82.302Q140.136 81.983 139.971 81.675Q139.806 81.367 139.470 81.163Q139.135 80.960 138.629 80.960L138.629 80.960Q138.211 80.949 137.886 81.097Q137.562 81.246 137.380 81.521Q137.199 81.796 137.199 82.192L137.199 82.192Q137.199 82.566 137.358 82.797Q137.518 83.028 137.820 83.188Q138.123 83.347 138.530 83.479Q138.937 83.611 139.432 83.776L139.432 83.776Q139.993 83.963 140.427 84.233Q140.862 84.502 141.109 84.920Q141.357 85.338 141.357 85.987L141.357 85.987Q141.357 86.537 141.065 87.026Q140.774 87.516 140.202 87.824Q139.630 88.132 138.761 88.132Z M149.082 88.132L149.082 88.132Q148.290 88.132 147.646 87.813Q147.003 87.494 146.618 86.840Q146.233 86.185 146.233 85.162L146.233 85.162L146.233 80.300L147.157 80.300L147.157 85.173Q147.157 85.921 147.404 86.394Q147.652 86.867 148.092 87.087Q148.532 87.307 149.104 87.307L149.104 87.307Q149.687 87.307 150.116 87.087Q150.545 86.867 150.787 86.394Q151.029 85.921 151.029 85.173L151.029 85.173L151.029 80.300L151.953 80.300L151.953 85.162Q151.953 86.185 151.568 86.840Q151.183 87.494 150.534 87.813Q149.885 88.132 149.082 88.132Z M158.061 88L157.137 88L157.137 80.300L158.215 80.300L160.833 85.723L160.833 85.723L163.429 80.300L164.518 80.300L164.518 88L163.594 88L163.594 81.961L163.594 81.961L161.174 86.988L160.481 86.988L158.061 82.005L158.061 82.005L158.061 88Z M174.575 88L169.812 88L169.812 80.300L174.575 80.300L174.575 81.059L170.736 81.059L170.736 83.743L174.245 83.743L174.245 84.491L170.736 84.491L170.736 87.241L174.575 87.241L174.575 88Z M180.595 88L179.671 88L179.671 80.300L182.157 80.300Q183.059 80.300 183.631 80.603Q184.203 80.905 184.478 81.411Q184.753 81.917 184.753 82.555L184.753 82.555Q184.753 83.171 184.473 83.688Q184.192 84.205 183.609 84.513Q183.026 84.821 182.113 84.821L182.113 84.821L180.595 84.821L180.595 88ZM184.830 88L183.741 88L182.047 84.557L183.081 84.557L184.830 88ZM180.595 81.081L180.595 84.095L182.091 84.095Q182.971 84.095 183.384 83.666Q183.796 83.237 183.796 82.566L183.796 82.566Q183.796 81.884 183.395 81.483Q182.993 81.081 182.080 81.081L182.080 81.081L180.595 81.081Z M198.872 88.132L198.872 88.132Q198.025 88.132 197.398 87.824Q196.771 87.516 196.430 86.966Q196.089 86.416 196.089 85.690L196.089 85.690L197.057 85.690Q197.057 86.141 197.266 86.520Q197.475 86.900 197.876 87.126Q198.278 87.351 198.872 87.351L198.872 87.351Q199.389 87.351 199.757 87.180Q200.126 87.010 200.319 86.713Q200.511 86.416 200.511 86.042L200.511 86.042Q200.511 85.624 200.329 85.344Q200.148 85.063 199.829 84.882Q199.510 84.700 199.092 84.557Q198.674 84.414 198.190 84.260L198.190 84.260Q197.222 83.952 196.787 83.484Q196.353 83.017 196.353 82.280L196.353 82.280Q196.353 81.653 196.644 81.180Q196.936 80.707 197.481 80.438Q198.025 80.168 198.773 80.168L198.773 80.168Q199.510 80.168 200.055 80.443Q200.599 80.718 200.907 81.197Q201.215 81.675 201.215 82.302L201.215 82.302L200.247 82.302Q200.247 81.983 200.082 81.675Q199.917 81.367 199.582 81.163Q199.246 80.960 198.740 80.960L198.740 80.960Q198.322 80.949 197.998 81.097Q197.673 81.246 197.492 81.521Q197.310 81.796 197.310 82.192L197.310 82.192Q197.310 82.566 197.470 82.797Q197.629 83.028 197.931 83.188Q198.234 83.347 198.641 83.479Q199.048 83.611 199.543 83.776L199.543 83.776Q200.104 83.963 200.538 84.233Q200.973 84.502 201.221 84.920Q201.468 85.338 201.468 85.987L201.468 85.987Q201.468 86.537 201.177 87.026Q200.885 87.516 200.313 87.824Q199.741 88.132 198.872 88.132Z M209.171 88L208.247 88L208.247 81.059L205.948 81.059L205.948 80.300L211.470 80.300L211.470 81.059L209.171 81.059L209.171 88Z M217.182 88L216.258 88L216.258 80.300L218.744 80.300Q219.646 80.300 220.218 80.603Q220.790 80.905 221.065 81.411Q221.340 81.917 221.340 82.555L221.340 82.555Q221.340 83.171 221.060 83.688Q220.779 84.205 220.196 84.513Q219.613 84.821 218.700 84.821L218.700 84.821L217.182 84.821L217.182 88ZM221.417 88L220.328 88L218.634 84.557L219.668 84.557L221.417 88ZM217.182 81.081L217.182 84.095L218.678 84.095Q219.558 84.095 219.971 83.666Q220.383 83.237 220.383 82.566L220.383 82.566Q220.383 81.884 219.982 81.483Q219.580 81.081 218.667 81.081L218.667 81.081L217.182 81.081Z M226.898 88L225.930 88L228.768 80.300L229.747 80.300L232.574 88L231.584 88L229.252 81.455L229.252 81.455L226.898 88ZM231.243 86.020L227.228 86.020L227.492 85.272L230.979 85.272L231.243 86.020Z M240.068 88L239.144 88L239.144 81.059L236.845 81.059L236.845 80.300L242.367 80.300L242.367 81.059L240.068 81.059L240.068 88Z M251.918 88L247.155 88L247.155 80.300L251.918 80.300L251.918 81.059L248.079 81.059L248.079 83.743L251.588 83.743L251.588 84.491L248.079 84.491L248.079 87.241L251.918 87.241L251.918 88Z M260.314 88.132L260.314 88.132Q259.236 88.132 258.422 87.632Q257.608 87.131 257.157 86.240Q256.706 85.349 256.706 84.161L256.706 84.161Q256.706 82.984 257.162 82.082Q257.619 81.180 258.460 80.674Q259.302 80.168 260.446 80.168L260.446 80.168Q261.744 80.168 262.613 80.790Q263.482 81.411 263.724 82.522L263.724 82.522L262.657 82.522Q262.503 81.829 261.931 81.422Q261.359 81.015 260.446 81.015L260.446 81.015Q259.599 81.015 258.966 81.394Q258.334 81.774 257.993 82.478Q257.652 83.182 257.652 84.161L257.652 84.161Q257.652 85.140 257.993 85.850Q258.334 86.559 258.944 86.933Q259.555 87.307 260.347 87.307L260.347 87.307Q261.579 87.307 262.206 86.581Q262.833 85.855 262.921 84.612L262.921 84.612L260.699 84.612L260.699 83.886L263.867 83.886L263.867 88L263.020 88L262.943 86.735L262.943 86.735Q262.668 87.186 262.310 87.499Q261.953 87.813 261.469 87.972Q260.985 88.132 260.314 88.132Z M271.812 88L270.888 88L270.888 85.074L268.380 80.300L269.425 80.300L271.350 84.194L271.350 84.194L273.275 80.300L274.309 80.300L271.812 85.074L271.812 88Z M286.008 88L285.040 88L287.878 80.300L288.857 80.300L291.684 88L290.694 88L288.362 81.455L288.362 81.455L286.008 88ZM290.353 86.020L286.338 86.020L286.602 85.272L290.089 85.272L290.353 86.020Z M298.441 88L296.461 88L296.461 80.300L298.441 80.300Q299.783 80.300 300.658 80.767Q301.532 81.235 301.956 82.099Q302.379 82.962 302.379 84.172L302.379 84.172Q302.379 85.360 301.956 86.218Q301.532 87.076 300.658 87.538Q299.783 88 298.441 88L298.441 88ZM297.385 81.070L297.385 87.230L298.419 87.230Q299.530 87.230 300.190 86.862Q300.850 86.493 301.136 85.805Q301.422 85.118 301.422 84.172L301.422 84.172Q301.422 83.204 301.136 82.511Q300.850 81.818 300.190 81.444Q299.530 81.070 298.419 81.070L298.419 81.070L297.385 81.070Z M310.742 88L309.664 88L306.771 80.300L307.772 80.300L310.203 87.021L310.203 87.021L312.656 80.300L313.635 80.300L310.742 88Z M319.259 88L318.335 88L318.335 80.300L319.259 80.300L319.259 88Z M327.017 88.132L327.017 88.132Q326.170 88.132 325.543 87.824Q324.916 87.516 324.575 86.966Q324.234 86.416 324.234 85.690L324.234 85.690L325.202 85.690Q325.202 86.141 325.411 86.520Q325.620 86.900 326.022 87.126Q326.423 87.351 327.017 87.351L327.017 87.351Q327.534 87.351 327.903 87.180Q328.271 87.010 328.464 86.713Q328.656 86.416 328.656 86.042L328.656 86.042Q328.656 85.624 328.475 85.344Q328.293 85.063 327.974 84.882Q327.655 84.700 327.237 84.557Q326.819 84.414 326.335 84.260L326.335 84.260Q325.367 83.952 324.933 83.484Q324.498 83.017 324.498 82.280L324.498 82.280Q324.498 81.653 324.790 81.180Q325.081 80.707 325.626 80.438Q326.170 80.168 326.918 80.168L326.918 80.168Q327.655 80.168 328.200 80.443Q328.744 80.718 329.052 81.197Q329.360 81.675 329.360 82.302L329.360 82.302L328.392 82.302Q328.392 81.983 328.227 81.675Q328.062 81.367 327.727 81.163Q327.391 80.960 326.885 80.960L326.885 80.960Q326.467 80.949 326.143 81.097Q325.818 81.246 325.637 81.521Q325.455 81.796 325.455 82.192L325.455 82.192Q325.455 82.566 325.615 82.797Q325.774 83.028 326.077 83.188Q326.379 83.347 326.786 83.479Q327.193 83.611 327.688 83.776L327.688 83.776Q328.249 83.963 328.684 84.233Q329.118 84.502 329.366 84.920Q329.613 85.338 329.613 85.987L329.613 85.987Q329.613 86.537 329.322 87.026Q329.030 87.516 328.458 87.824Q327.886 88.132 327.017 88.132Z M337.855 88.132L337.855 88.132Q336.799 88.132 335.996 87.632Q335.193 87.131 334.742 86.234Q334.291 85.338 334.291 84.150L334.291 84.150Q334.291 82.973 334.742 82.076Q335.193 81.180 335.996 80.674Q336.799 80.168 337.855 80.168L337.855 80.168Q338.933 80.168 339.736 80.674Q340.539 81.180 340.979 82.076Q341.419 82.973 341.419 84.150L341.419 84.150Q341.419 85.338 340.979 86.234Q340.539 87.131 339.736 87.632Q338.933 88.132 337.855 88.132ZM337.855 87.318L337.855 87.318Q338.647 87.318 339.236 86.939Q339.824 86.559 340.149 85.850Q340.473 85.140 340.473 84.150L340.473 84.150Q340.473 83.160 340.149 82.451Q339.824 81.741 339.236 81.367Q338.647 80.993 337.855 80.993L337.855 80.993Q337.074 80.993 336.486 81.367Q335.897 81.741 335.567 82.451Q335.237 83.160 335.237 84.150L335.237 84.150Q335.237 85.140 335.567 85.850Q335.897 86.559 336.486 86.939Q337.074 87.318 337.855 87.318Z M347.329 88L346.405 88L346.405 80.300L348.891 80.300Q349.793 80.300 350.365 80.603Q350.937 80.905 351.212 81.411Q351.487 81.917 351.487 82.555L351.487 82.555Q351.487 83.171 351.207 83.688Q350.926 84.205 350.343 84.513Q349.760 84.821 348.847 84.821L348.847 84.821L347.329 84.821L347.329 88ZM351.564 88L350.475 88L348.781 84.557L349.815 84.557L351.564 88ZM347.329 81.081L347.329 84.095L348.825 84.095Q349.705 84.095 350.118 83.666Q350.530 83.237 350.530 82.566L350.530 82.566Q350.530 81.884 350.129 81.483Q349.727 81.081 348.814 81.081L348.814 81.081L347.329 81.081Z M359.399 88L358.475 88L358.475 85.074L355.967 80.300L357.012 80.300L358.937 84.194L358.937 84.194L360.862 80.300L361.896 80.300L359.399 85.074L359.399 88Z" fill="#F7F5F2" opacity="0.7"/>
</svg>