<svg xmlns="http://www.w3.org/2000/svg" width="360" height="220" viewBox="0 0 360 220">
  <g transform="translate(180,40)">
    <g transform="scale(0.32)"><path d="M 0 -92 L 15 -15 L 92 0 L 15 15 L 0 92 L -15 15 L -92 0 L -15 -15 Z" fill="#C4622D"/></g>
  </g>
  <path d="M61.005 89.736L61.005 89.736Q57.351 89.736 55.698 91.476Q54.045 93.216 53.407 97.682L53.407 97.682Q53.407 97.798 53.059 97.798Q52.711 97.798 52.711 97.682L52.711 97.682Q52.827 96.986 52.972 95.652Q53.117 94.318 53.233 92.781Q53.349 91.244 53.436 89.823Q53.523 88.402 53.523 87.474L53.523 87.474Q53.523 87.184 53.871 87.184Q54.219 87.184 54.219 87.474L54.219 87.474Q54.219 88.054 54.770 88.315Q55.321 88.576 56.046 88.663Q56.771 88.750 57.293 88.750L57.293 88.750Q62.281 88.924 68.951 88.924L68.951 88.924Q73.069 88.924 75.476 88.837Q77.883 88.750 80.145 88.750L80.145 88.750Q82.059 88.750 83.132 88.489Q84.205 88.228 84.495 87.300L84.495 87.300Q84.553 87.068 84.843 87.068Q85.133 87.068 85.133 87.300L85.133 87.300Q85.075 88.170 84.959 89.620Q84.843 91.070 84.785 92.665Q84.727 94.260 84.669 95.623Q84.611 96.986 84.611 97.682L84.611 97.682Q84.611 97.798 84.263 97.798Q83.915 97.798 83.915 97.682L83.915 97.682Q83.915 93.216 82.407 91.476Q80.899 89.736 76.897 89.736L76.897 89.736Q74.171 89.736 72.808 89.939Q71.445 90.142 71.010 90.925Q70.575 91.708 70.575 93.564L70.575 93.564L70.575 120.302Q70.575 121.984 70.981 122.854Q71.387 123.724 72.634 124.014Q73.881 124.304 76.433 124.304L76.433 124.304Q76.549 124.304 76.549 124.652Q76.549 125 76.433 125L76.433 125Q74.925 125 73.040 124.942Q71.155 124.884 68.951 124.884L68.951 124.884Q66.863 124.884 64.978 124.942Q63.093 125 61.527 125L61.527 125Q61.411 125 61.411 124.652Q61.411 124.304 61.527 124.304L61.527 124.304Q64.021 124.304 65.297 124.014Q66.573 123.724 67.008 122.854Q67.443 121.984 67.443 120.302L67.443 120.302L67.443 93.448Q67.443 91.592 66.979 90.809Q66.515 90.026 65.123 89.881Q63.731 89.736 61.005 89.736Z M94.983 109.282L94.983 109.282L94.751 108.702Q96.897 106.034 98.260 104.613Q99.623 103.192 100.609 102.641Q101.595 102.090 102.523 102.090L102.523 102.090Q103.741 102.090 104.901 102.728Q106.061 103.366 106.061 104.294L106.061 104.294Q106.061 104.874 105.626 105.338Q105.191 105.802 104.379 105.802L104.379 105.802Q103.683 105.802 103.190 105.396Q102.697 104.990 102.117 104.613Q101.537 104.236 100.551 104.236L100.551 104.236Q100.029 104.236 99.420 104.555Q98.811 104.874 97.796 105.947Q96.781 107.020 94.983 109.282ZM89.589 125L89.589 125Q89.415 125 89.415 124.652Q89.415 124.304 89.589 124.304L89.589 124.304Q91.967 124.304 92.663 123.550Q93.359 122.796 93.359 120.302L93.359 120.302L93.359 108.702Q93.359 106.730 92.895 105.831Q92.431 104.932 91.271 104.932L91.271 104.932Q90.691 104.932 89.879 105.164Q89.067 105.396 88.023 105.802L88.023 105.802Q87.791 105.860 87.646 105.570Q87.501 105.280 87.733 105.164L87.733 105.164L94.171 102.148Q94.287 102.090 94.461 102.090L94.461 102.090Q94.867 102.090 95.476 103.279Q96.085 104.468 96.085 106.730L96.085 106.730L96.085 120.302Q96.085 121.984 96.491 122.854Q96.897 123.724 98.144 124.014Q99.391 124.304 101.885 124.304L101.885 124.304Q102.059 124.304 102.059 124.652Q102.059 125 101.885 125L101.885 125Q100.493 125 98.637 124.942Q96.781 124.884 94.751 124.884L94.751 124.884Q93.301 124.884 91.938 124.942Q90.575 125 89.589 125Z M117.941 125.406L117.941 125.406Q115.157 125.406 113.533 123.637Q111.909 121.868 111.909 118.330L111.909 118.330L111.909 109.340Q111.909 106.962 111.561 105.947Q111.213 104.932 110.227 104.932L110.227 104.932Q109.357 104.932 108.139 105.512L108.139 105.512Q107.907 105.628 107.762 105.280Q107.617 104.932 107.849 104.874L107.849 104.874L113.939 102.148Q114.055 102.090 114.171 102.090L114.171 102.090Q114.287 102.090 114.461 102.206Q114.635 102.322 114.635 102.496L114.635 102.496L114.635 116.590Q114.635 120.128 115.853 121.781Q117.071 123.434 119.507 123.434L119.507 123.434Q121.885 123.434 124.263 122.013Q126.641 120.592 128.439 118.098L128.439 118.098L128.729 118.736Q125.887 122.332 123.277 123.869Q120.667 125.406 117.941 125.406ZM130.063 102.496L130.063 102.496L130.063 118.910Q130.063 120.882 130.556 121.781Q131.049 122.680 132.209 122.680L132.209 122.680Q132.847 122.680 133.601 122.448Q134.355 122.216 135.457 121.810L135.457 121.810Q135.747 121.694 135.863 122.013Q135.979 122.332 135.747 122.448L135.747 122.448L129.251 125.464Q129.135 125.522 129.019 125.522L129.019 125.522Q128.613 125.522 128.004 124.333Q127.395 123.144 127.395 120.882L127.395 120.882L127.395 109.340Q127.395 106.962 127.018 105.947Q126.641 104.932 125.655 104.932L125.655 104.932Q124.785 104.932 123.567 105.512L123.567 105.512Q123.335 105.628 123.219 105.280Q123.103 104.932 123.335 104.874L123.335 104.874L129.425 102.148Q129.541 102.090 129.599 102.090L129.599 102.090Q129.715 102.090 129.889 102.206Q130.063 102.322 130.063 102.496Z M148.091 125.696L148.091 125.696Q144.669 125.696 142.378 124.101Q140.087 122.506 138.927 119.954Q137.767 117.402 137.767 114.560L137.767 114.560Q137.767 111.022 139.391 108.209Q141.015 105.396 143.770 103.743Q146.525 102.090 149.773 102.090L149.773 102.090Q153.079 102.090 154.703 103.888Q156.327 105.686 156.327 108.702L156.327 108.702Q156.327 109.456 156.182 109.804Q156.037 110.152 155.631 110.152L155.631 110.152L152.905 110.152Q153.195 106.556 151.774 104.903Q150.353 103.250 147.917 103.250L147.917 103.250Q144.669 103.250 142.871 105.715Q141.073 108.180 141.073 112.472L141.073 112.472Q141.073 115.720 142.117 118.301Q143.161 120.882 145.191 122.361Q147.221 123.840 150.121 123.840L150.121 123.840Q152.151 123.840 153.456 123.231Q154.761 122.622 155.979 121.868L155.979 121.868Q156.095 121.752 156.298 122.013Q156.501 122.274 156.385 122.448L156.385 122.448Q154.355 124.188 152.296 124.942Q150.237 125.696 148.091 125.696ZM153.485 110.152L140.319 110.210L140.261 109.514L153.485 109.282L153.485 110.152Z M180.087 95.768L180.087 95.768Q180.087 98.204 181.276 99.915Q182.465 101.626 184.350 102.902Q186.235 104.178 188.323 105.396L188.323 105.396Q190.469 106.614 192.441 107.977Q194.413 109.340 195.718 111.225Q197.023 113.110 197.023 115.894L197.023 115.894Q197.023 118.562 195.718 120.795Q194.413 123.028 191.803 124.362Q189.193 125.696 185.249 125.696L185.249 125.696Q183.973 125.696 182.726 125.522Q181.479 125.348 180.174 124.913Q178.869 124.478 177.361 123.724L177.361 123.724Q177.071 123.550 176.984 123.289Q176.897 123.028 176.839 122.622L176.839 122.622L175.969 115.082Q175.911 114.792 176.230 114.763Q176.549 114.734 176.607 114.966L176.607 114.966Q176.839 116.706 177.535 118.446Q178.231 120.186 179.420 121.636Q180.609 123.086 182.378 123.985Q184.147 124.884 186.525 124.884L186.525 124.884Q188.323 124.884 190.005 124.217Q191.687 123.550 192.760 122.042Q193.833 120.534 193.833 117.924L193.833 117.924Q193.833 115.082 192.586 113.197Q191.339 111.312 189.425 109.949Q187.511 108.586 185.365 107.368L185.365 107.368Q183.335 106.150 181.421 104.816Q179.507 103.482 178.318 101.655Q177.129 99.828 177.129 97.102L177.129 97.102Q177.129 94.086 178.637 92.085Q180.145 90.084 182.552 89.098Q184.959 88.112 187.569 88.112L187.569 88.112Q189.077 88.112 190.730 88.431Q192.383 88.750 194.181 89.504L194.181 89.504Q194.645 89.678 194.848 89.939Q195.051 90.200 195.051 90.490L195.051 90.490L195.573 96.638Q195.573 96.870 195.254 96.870Q194.935 96.870 194.877 96.638L194.877 96.638Q194.761 95.362 194.268 93.999Q193.775 92.636 192.818 91.476Q191.861 90.316 190.382 89.591Q188.903 88.866 186.815 88.866L186.815 88.866Q184.321 88.866 182.842 89.910Q181.363 90.954 180.725 92.520Q180.087 94.086 180.087 95.768Z M203.219 125L203.219 125Q203.103 125 203.103 124.652Q203.103 124.304 203.219 124.304L203.219 124.304Q205.597 124.304 206.322 123.550Q207.047 122.796 207.047 120.302L207.047 120.302L207.047 109.340Q207.047 107.252 206.641 106.295Q206.235 105.338 205.133 105.338L205.133 105.338Q204.611 105.338 203.944 105.541Q203.277 105.744 202.349 106.208L202.349 106.208Q202.117 106.266 201.972 105.947Q201.827 105.628 202.059 105.512L202.059 105.512L209.251 102.148Q209.425 102.090 209.483 102.090L209.483 102.090Q209.599 102.090 209.744 102.206Q209.889 102.322 209.889 102.496L209.889 102.496Q209.889 102.902 209.831 104.729Q209.773 106.556 209.773 109.282L209.773 109.282L209.773 120.302Q209.773 122.796 210.440 123.550Q211.107 124.304 213.543 124.304L213.543 124.304Q213.717 124.304 213.717 124.652Q213.717 125 213.543 125L213.543 125Q212.557 125 211.223 124.942Q209.889 124.884 208.381 124.884L208.381 124.884Q206.931 124.884 205.597 124.942Q204.263 125 203.219 125ZM207.917 95.072L207.917 95.072Q206.815 95.072 206.206 94.492Q205.597 93.912 205.597 92.868L205.597 92.868Q205.597 91.824 206.206 91.244Q206.815 90.664 207.917 90.664L207.917 90.664Q208.961 90.664 209.541 91.244Q210.121 91.824 210.121 92.868L210.121 92.868Q210.121 95.072 207.917 95.072Z M225.945 141.240L225.945 141.240Q221.885 141.240 219.710 139.413Q217.535 137.586 217.535 134.918L217.535 134.918Q217.535 131.902 220.058 129.263Q222.581 126.624 226.873 124.188L226.873 124.188L227.511 124.942Q225.597 125.870 223.973 126.943Q222.349 128.016 221.363 129.495Q220.377 130.974 220.377 133.236L220.377 133.236Q220.377 135.092 221.218 136.513Q222.059 137.934 223.770 138.717Q225.481 139.500 228.091 139.500L228.091 139.500Q232.325 139.500 235.080 137.354Q237.835 135.208 237.835 131.496L237.835 131.496Q237.835 129.118 236.646 128.074Q235.457 127.030 233.369 126.769Q231.281 126.508 228.497 126.508L228.497 126.508Q225.829 126.508 223.654 126.305Q221.479 126.102 220.203 125.232Q218.927 124.362 218.927 122.448L218.927 122.448Q218.927 120.476 220.145 119.113Q221.363 117.750 223.451 115.952L223.451 115.952L224.089 116.532Q222.639 117.750 222.059 118.707Q221.479 119.664 221.479 120.708L221.479 120.708Q221.479 121.868 222.262 122.564Q223.045 123.260 224.959 123.579Q226.873 123.898 230.237 123.898L230.237 123.898Q231.513 123.898 233.195 123.956Q234.877 124.014 236.501 124.478Q238.125 124.942 239.198 126.160Q240.271 127.378 240.271 129.698L240.271 129.698Q240.271 132.076 239.082 134.164Q237.893 136.252 235.863 137.847Q233.833 139.442 231.252 140.341Q228.671 141.240 225.945 141.240ZM227.801 117.286L227.801 117.286Q225.017 117.286 223.074 116.271Q221.131 115.256 220.087 113.545Q219.043 111.834 219.043 109.804L219.043 109.804Q219.043 107.716 220.116 106.005Q221.189 104.294 223.219 103.250Q225.249 102.206 228.091 102.206L228.091 102.206Q231.281 102.206 233.166 103.366Q235.051 104.526 235.863 106.266Q236.675 108.006 236.675 109.688L236.675 109.688Q236.675 111.602 235.660 113.342Q234.645 115.082 232.673 116.184Q230.701 117.286 227.801 117.286ZM228.845 116.474L228.845 116.474Q230.875 116.474 232.209 115.169Q233.543 113.864 233.543 110.848L233.543 110.848Q233.543 108.412 232.644 106.672Q231.745 104.932 230.237 103.975Q228.729 103.018 226.815 103.018L226.815 103.018Q224.785 103.018 223.451 104.265Q222.117 105.512 222.117 108.528L222.117 108.528Q222.117 111.312 223.161 113.081Q224.205 114.850 225.742 115.662Q227.279 116.474 228.845 116.474ZM233.543 104.758L233.021 106.498L233.021 104.526Q234.819 103.482 236.501 102.815Q238.183 102.148 240.213 102.148L240.213 102.148Q240.329 102.148 240.416 102.554Q240.503 102.960 240.503 103.366L240.503 103.366Q240.503 103.946 240.358 104.613Q240.213 105.280 239.981 105.164L239.981 105.164Q239.575 104.990 238.589 104.671Q237.603 104.352 236.211 104.352L236.211 104.352Q235.457 104.352 234.819 104.468Q234.181 104.584 233.543 104.758L233.543 104.758Z M259.285 125L259.285 125Q259.111 125 259.111 124.652Q259.111 124.304 259.285 124.304L259.285 124.304Q261.663 124.304 262.359 123.550Q263.055 122.796 263.055 120.302L263.055 120.302L263.055 110.616Q263.055 107.078 261.721 105.454Q260.387 103.830 257.545 103.830L257.545 103.830Q255.341 103.830 253.050 105.280Q250.759 106.730 249.077 109.282L249.077 109.282L248.845 108.586Q251.571 104.990 254.065 103.424Q256.559 101.858 259.111 101.858L259.111 101.858Q262.301 101.858 264.041 103.569Q265.781 105.280 265.781 108.876L265.781 108.876L265.781 120.302Q265.781 122.796 266.448 123.550Q267.115 124.304 269.551 124.304L269.551 124.304Q269.725 124.304 269.725 124.652Q269.725 125 269.551 125L269.551 125Q268.565 125 267.231 124.942Q265.897 124.884 264.447 124.884L264.447 124.884Q262.997 124.884 261.634 124.942Q260.271 125 259.285 125ZM243.683 125L243.683 125Q243.509 125 243.509 124.652Q243.509 124.304 243.683 124.304L243.683 124.304Q246.061 124.304 246.757 123.550Q247.453 122.796 247.453 120.302L247.453 120.302L247.453 108.702Q247.453 106.730 246.989 105.831Q246.525 104.932 245.365 104.932L245.365 104.932Q244.785 104.932 243.973 105.164Q243.161 105.396 242.117 105.802L242.117 105.802Q241.885 105.860 241.740 105.570Q241.595 105.280 241.827 105.164L241.827 105.164L248.265 102.148Q248.381 102.090 248.555 102.090L248.555 102.090Q248.961 102.090 249.570 103.279Q250.179 104.468 250.179 106.730L250.179 106.730L250.179 120.302Q250.179 122.796 250.846 123.550Q251.513 124.304 253.949 124.304L253.949 124.304Q254.123 124.304 254.123 124.652Q254.123 125 253.949 125L253.949 125Q252.963 125 251.629 124.942Q250.295 124.884 248.845 124.884L248.845 124.884Q247.395 124.884 246.032 124.942Q244.669 125 243.683 125Z M294.713 122.506L288.739 125.348Q288.507 125.464 288.275 125.464L288.275 125.464Q287.579 125.464 286.999 124.246Q286.419 123.028 286.419 120.708L286.419 120.708L286.419 109.514Q286.419 105.918 285.288 104.526Q284.157 103.134 282.475 103.134L282.475 103.134Q281.025 103.134 280.068 103.801Q279.111 104.468 278.618 105.454Q278.125 106.440 277.893 107.310L277.893 107.310Q277.777 107.890 277.487 108.673Q277.197 109.456 276.037 109.456L276.037 109.456Q275.167 109.456 274.732 108.934Q274.297 108.412 274.297 107.832L274.297 107.832Q274.297 106.846 275.341 105.831Q276.385 104.816 277.980 103.946Q279.575 103.076 281.315 102.554Q283.055 102.032 284.505 102.032L284.505 102.032Q286.883 102.032 287.985 103.569Q289.087 105.106 289.087 107.774L289.087 107.774L289.087 118.736Q289.087 120.824 289.580 121.781Q290.073 122.738 291.291 122.738L291.291 122.738Q292.393 122.738 294.481 121.868L294.481 121.868Q294.771 121.752 294.887 122.071Q295.003 122.390 294.713 122.506L294.713 122.506ZM278.473 125.406L278.473 125.406Q276.327 125.406 275.196 124.217Q274.065 123.028 274.065 121.462L274.065 121.462Q274.065 120.476 274.558 119.548Q275.051 118.620 276.298 117.750Q277.545 116.880 279.749 116.068L279.749 116.068L286.999 113.342L287.115 114.096L280.271 116.706Q279.053 117.170 278.415 117.721Q277.777 118.272 277.545 118.881Q277.313 119.490 277.313 120.128L277.313 120.128Q277.313 121.404 278.154 122.448Q278.995 123.492 280.619 123.492L280.619 123.492Q281.257 123.492 281.953 123.289Q282.649 123.086 283.635 122.506L283.635 122.506L287.521 120.244L287.637 120.940L283.287 123.666Q281.837 124.594 280.735 125Q279.633 125.406 278.473 125.406Z M296.965 125L296.965 125Q296.791 125 296.791 124.652Q296.791 124.304 296.965 124.304L296.965 124.304Q299.343 124.304 300.039 123.550Q300.735 122.796 300.735 120.302L300.735 120.302L300.735 90.200Q300.735 88.112 300.329 87.155Q299.923 86.198 298.879 86.198L298.879 86.198Q297.951 86.198 296.095 87.068L296.095 87.068Q295.863 87.184 295.718 86.836Q295.573 86.488 295.805 86.430L295.805 86.430L302.939 83.008Q303.055 82.950 303.229 82.950L303.229 82.950Q303.345 82.950 303.490 83.066Q303.635 83.182 303.635 83.356L303.635 83.356L303.635 120.302Q303.635 122.738 304.302 123.521Q304.969 124.304 307.405 124.304L307.405 124.304Q307.579 124.304 307.579 124.652Q307.579 125 307.405 125L307.405 125Q306.419 125 305.056 124.942Q303.693 124.884 302.185 124.884L302.185 124.884Q300.735 124.884 299.343 124.942Q297.951 125 296.965 125Z" fill="#1A2235"/>
  <path d="M90.922 172.132L90.922 172.132Q89.833 172.132 89.035 171.631Q88.238 171.131 87.803 170.234Q87.369 169.338 87.369 168.150L87.369 168.150Q87.369 166.962 87.803 166.065Q88.238 165.169 89.035 164.668Q89.833 164.168 90.922 164.168L90.922 164.168Q92.231 164.168 93.045 164.795Q93.859 165.422 94.090 166.566L94.090 166.566L93.089 166.566Q92.902 165.851 92.368 165.417Q91.835 164.982 90.922 164.982L90.922 164.982Q90.130 164.982 89.541 165.362Q88.953 165.741 88.634 166.451Q88.315 167.160 88.315 168.150L88.315 168.150Q88.315 169.140 88.634 169.850Q88.953 170.559 89.541 170.939Q90.130 171.318 90.922 171.318L90.922 171.318Q91.835 171.318 92.368 170.894Q92.902 170.471 93.089 169.767L93.089 169.767L94.090 169.767Q93.859 170.878 93.045 171.505Q92.231 172.132 90.922 172.132Z M103.132 172.132L103.132 172.132Q102.076 172.132 101.273 171.631Q100.470 171.131 100.019 170.234Q99.568 169.338 99.568 168.150L99.568 168.150Q99.568 166.973 100.019 166.077Q100.470 165.180 101.273 164.674Q102.076 164.168 103.132 164.168L103.132 164.168Q104.210 164.168 105.013 164.674Q105.816 165.180 106.256 166.077Q106.696 166.973 106.696 168.150L106.696 168.150Q106.696 169.338 106.256 170.234Q105.816 171.131 105.013 171.631Q104.210 172.132 103.132 172.132ZM103.132 171.318L103.132 171.318Q103.924 171.318 104.512 170.939Q105.101 170.559 105.425 169.850Q105.750 169.140 105.750 168.150L105.750 168.150Q105.750 167.160 105.425 166.451Q105.101 165.741 104.512 165.367Q103.924 164.993 103.132 164.993L103.132 164.993Q102.351 164.993 101.763 165.367Q101.174 165.741 100.844 166.451Q100.514 167.160 100.514 168.150L100.514 168.150Q100.514 169.140 100.844 169.850Q101.174 170.559 101.763 170.939Q102.351 171.318 103.132 171.318Z M113.406 172L112.482 172L112.482 164.300L113.406 164.300L117.509 170.482L117.509 170.482L117.509 164.300L118.433 164.300L118.433 172L117.509 172L113.406 165.818L113.406 165.818L113.406 172Z M126.991 172.132L126.991 172.132Q126.144 172.132 125.517 171.824Q124.890 171.516 124.549 170.966Q124.208 170.416 124.208 169.690L124.208 169.690L125.176 169.690Q125.176 170.141 125.385 170.520Q125.594 170.900 125.995 171.125Q126.397 171.351 126.991 171.351L126.991 171.351Q127.508 171.351 127.876 171.180Q128.245 171.010 128.438 170.713Q128.630 170.416 128.630 170.042L128.630 170.042Q128.630 169.624 128.448 169.344Q128.267 169.063 127.948 168.881Q127.629 168.700 127.211 168.557Q126.793 168.414 126.309 168.260L126.309 168.260Q125.341 167.952 124.906 167.484Q124.472 167.017 124.472 166.280L124.472 166.280Q124.472 165.653 124.763 165.180Q125.055 164.707 125.599 164.438Q126.144 164.168 126.892 164.168L126.892 164.168Q127.629 164.168 128.173 164.443Q128.718 164.718 129.026 165.197Q129.334 165.675 129.334 166.302L129.334 166.302L128.366 166.302Q128.366 165.983 128.201 165.675Q128.036 165.367 127.700 165.163Q127.365 164.960 126.859 164.960L126.859 164.960Q126.441 164.949 126.116 165.097Q125.792 165.246 125.610 165.521Q125.429 165.796 125.429 166.192L125.429 166.192Q125.429 166.566 125.588 166.797Q125.748 167.028 126.050 167.188Q126.353 167.347 126.760 167.479Q127.167 167.611 127.662 167.776L127.662 167.776Q128.223 167.963 128.657 168.232Q129.092 168.502 129.339 168.920Q129.587 169.338 129.587 169.987L129.587 169.987Q129.587 170.537 129.296 171.026Q129.004 171.516 128.432 171.824Q127.860 172.132 126.991 172.132Z M138.112 172.132L138.112 172.132Q137.320 172.132 136.676 171.813Q136.033 171.494 135.648 170.839Q135.263 170.185 135.263 169.162L135.263 169.162L135.263 164.300L136.187 164.300L136.187 169.173Q136.187 169.921 136.434 170.394Q136.682 170.867 137.122 171.087Q137.562 171.307 138.134 171.307L138.134 171.307Q138.717 171.307 139.146 171.087Q139.575 170.867 139.817 170.394Q140.059 169.921 140.059 169.173L140.059 169.173L140.059 164.300L140.983 164.300L140.983 169.162Q140.983 170.185 140.598 170.839Q140.213 171.494 139.564 171.813Q138.915 172.132 138.112 172.132Z M147.891 172L146.967 172L146.967 164.300L148.045 164.300L150.663 169.723L150.663 169.723L153.259 164.300L154.348 164.300L154.348 172L153.424 172L153.424 165.961L153.424 165.961L151.004 170.988L150.311 170.988L147.891 166.005L147.891 166.005L147.891 172Z M165.205 172L160.442 172L160.442 164.300L165.205 164.300L165.205 165.059L161.366 165.059L161.366 167.743L164.875 167.743L164.875 168.491L161.366 168.491L161.366 171.241L165.205 171.241L165.205 172Z M172.025 172L171.101 172L171.101 164.300L173.587 164.300Q174.489 164.300 175.061 164.602Q175.633 164.905 175.908 165.411Q176.183 165.917 176.183 166.555L176.183 166.555Q176.183 167.171 175.902 167.688Q175.622 168.205 175.039 168.513Q174.456 168.821 173.543 168.821L173.543 168.821L172.025 168.821L172.025 172ZM176.260 172L175.171 172L173.477 168.557L174.511 168.557L176.260 172ZM172.025 165.081L172.025 168.095L173.521 168.095Q174.401 168.095 174.813 167.666Q175.226 167.237 175.226 166.566L175.226 166.566Q175.226 165.884 174.824 165.482Q174.423 165.081 173.510 165.081L173.510 165.081L172.025 165.081Z M191.902 172.132L191.902 172.132Q191.055 172.132 190.428 171.824Q189.801 171.516 189.460 170.966Q189.119 170.416 189.119 169.690L189.119 169.690L190.087 169.690Q190.087 170.141 190.296 170.520Q190.505 170.900 190.906 171.125Q191.308 171.351 191.902 171.351L191.902 171.351Q192.419 171.351 192.787 171.180Q193.156 171.010 193.348 170.713Q193.541 170.416 193.541 170.042L193.541 170.042Q193.541 169.624 193.359 169.344Q193.178 169.063 192.859 168.881Q192.540 168.700 192.122 168.557Q191.704 168.414 191.220 168.260L191.220 168.260Q190.252 167.952 189.817 167.484Q189.383 167.017 189.383 166.280L189.383 166.280Q189.383 165.653 189.674 165.180Q189.966 164.707 190.510 164.438Q191.055 164.168 191.803 164.168L191.803 164.168Q192.540 164.168 193.084 164.443Q193.629 164.718 193.937 165.197Q194.245 165.675 194.245 166.302L194.245 166.302L193.277 166.302Q193.277 165.983 193.112 165.675Q192.947 165.367 192.611 165.163Q192.276 164.960 191.770 164.960L191.770 164.960Q191.352 164.949 191.027 165.097Q190.703 165.246 190.521 165.521Q190.340 165.796 190.340 166.192L190.340 166.192Q190.340 166.566 190.499 166.797Q190.659 167.028 190.961 167.188Q191.264 167.347 191.671 167.479Q192.078 167.611 192.573 167.776L192.573 167.776Q193.134 167.963 193.568 168.232Q194.003 168.502 194.250 168.920Q194.498 169.338 194.498 169.987L194.498 169.987Q194.498 170.537 194.206 171.026Q193.915 171.516 193.343 171.824Q192.771 172.132 191.902 172.132Z M203.001 172L202.077 172L202.077 165.059L199.778 165.059L199.778 164.300L205.300 164.300L205.300 165.059L203.001 165.059L203.001 172Z M211.812 172L210.888 172L210.888 164.300L213.374 164.300Q214.276 164.300 214.848 164.602Q215.420 164.905 215.695 165.411Q215.970 165.917 215.970 166.555L215.970 166.555Q215.970 167.171 215.690 167.688Q215.409 168.205 214.826 168.513Q214.243 168.821 213.330 168.821L213.330 168.821L211.812 168.821L211.812 172ZM216.047 172L214.958 172L213.264 168.557L214.298 168.557L216.047 172ZM211.812 165.081L211.812 168.095L213.308 168.095Q214.188 168.095 214.601 167.666Q215.013 167.237 215.013 166.566L215.013 166.566Q215.013 165.884 214.612 165.482Q214.210 165.081 213.297 165.081L213.297 165.081L211.812 165.081Z M222.328 172L221.360 172L224.198 164.300L225.177 164.300L228.004 172L227.014 172L224.682 165.455L224.682 165.455L222.328 172ZM226.673 170.020L222.658 170.020L222.922 169.272L226.409 169.272L226.673 170.020Z M236.298 172L235.374 172L235.374 165.059L233.075 165.059L233.075 164.300L238.597 164.300L238.597 165.059L236.298 165.059L236.298 172Z M248.948 172L244.185 172L244.185 164.300L248.948 164.300L248.948 165.059L245.109 165.059L245.109 167.743L248.618 167.743L248.618 168.491L245.109 168.491L245.109 171.241L248.948 171.241L248.948 172Z M258.144 172.132L258.144 172.132Q257.066 172.132 256.252 171.631Q255.438 171.131 254.987 170.240Q254.536 169.349 254.536 168.161L254.536 168.161Q254.536 166.984 254.993 166.082Q255.449 165.180 256.291 164.674Q257.132 164.168 258.276 164.168L258.276 164.168Q259.574 164.168 260.443 164.790Q261.312 165.411 261.554 166.522L261.554 166.522L260.487 166.522Q260.333 165.829 259.761 165.422Q259.189 165.015 258.276 165.015L258.276 165.015Q257.429 165.015 256.797 165.394Q256.164 165.774 255.823 166.478Q255.482 167.182 255.482 168.161L255.482 168.161Q255.482 169.140 255.823 169.850Q256.164 170.559 256.774 170.933Q257.385 171.307 258.177 171.307L258.177 171.307Q259.409 171.307 260.036 170.581Q260.663 169.855 260.751 168.612L260.751 168.612L258.529 168.612L258.529 167.886L261.697 167.886L261.697 172L260.850 172L260.773 170.735L260.773 170.735Q260.498 171.186 260.141 171.500Q259.783 171.813 259.299 171.972Q258.815 172.132 258.144 172.132Z M270.442 172L269.518 172L269.518 169.074L267.010 164.300L268.055 164.300L269.980 168.194L269.980 168.194L271.905 164.300L272.939 164.300L270.442 169.074L270.442 172Z" fill="#1A2235" opacity="0.7"/>
</svg>