<svg xmlns="http://www.w3.org/2000/svg" width="460" height="110" viewBox="0 0 460 110">
  <g transform="translate(34,55)"><g transform="scale(0.30)"><path d="M 0 -92 L 15 -15 L 92 0 L 15 15 L 0 92 L -15 15 L -92 0 L -15 -15 Z" fill="#C4622D"/></g></g>
  <path d="M103.160 37.304L103.160 37.304Q99.254 37.304 97.487 39.164Q95.720 41.024 95.038 45.798L95.038 45.798Q95.038 45.922 94.666 45.922Q94.294 45.922 94.294 45.798L94.294 45.798Q94.418 45.054 94.573 43.628Q94.728 42.202 94.852 40.559Q94.976 38.916 95.069 37.397Q95.162 35.878 95.162 34.886L95.162 34.886Q95.162 34.576 95.534 34.576Q95.906 34.576 95.906 34.886L95.906 34.886Q95.906 35.506 96.495 35.785Q97.084 36.064 97.859 36.157Q98.634 36.250 99.192 36.250L99.192 36.250Q104.524 36.436 111.654 36.436L111.654 36.436Q116.056 36.436 118.629 36.343Q121.202 36.250 123.620 36.250L123.620 36.250Q125.666 36.250 126.813 35.971Q127.960 35.692 128.270 34.700L128.270 34.700Q128.332 34.452 128.642 34.452Q128.952 34.452 128.952 34.700L128.952 34.700Q128.890 35.630 128.766 37.180Q128.642 38.730 128.580 40.435Q128.518 42.140 128.456 43.597Q128.394 45.054 128.394 45.798L128.394 45.798Q128.394 45.922 128.022 45.922Q127.650 45.922 127.650 45.798L127.650 45.798Q127.650 41.024 126.038 39.164Q124.426 37.304 120.148 37.304L120.148 37.304Q117.234 37.304 115.777 37.521Q114.320 37.738 113.855 38.575Q113.390 39.412 113.390 41.396L113.390 41.396L113.390 69.978Q113.390 71.776 113.824 72.706Q114.258 73.636 115.591 73.946Q116.924 74.256 119.652 74.256L119.652 74.256Q119.776 74.256 119.776 74.628Q119.776 75 119.652 75L119.652 75Q118.040 75 116.025 74.938Q114.010 74.876 111.654 74.876L111.654 74.876Q109.422 74.876 107.407 74.938Q105.392 75 103.718 75L103.718 75Q103.594 75 103.594 74.628Q103.594 74.256 103.718 74.256L103.718 74.256Q106.384 74.256 107.748 73.946Q109.112 73.636 109.577 72.706Q110.042 71.776 110.042 69.978L110.042 69.978L110.042 41.272Q110.042 39.288 109.546 38.451Q109.050 37.614 107.562 37.459Q106.074 37.304 103.160 37.304Z M139.202 58.198L139.202 58.198L138.954 57.578Q141.248 54.726 142.705 53.207Q144.162 51.688 145.216 51.099Q146.270 50.510 147.262 50.510L147.262 50.510Q148.564 50.510 149.804 51.192Q151.044 51.874 151.044 52.866L151.044 52.866Q151.044 53.486 150.579 53.982Q150.114 54.478 149.246 54.478L149.246 54.478Q148.502 54.478 147.975 54.044Q147.448 53.610 146.828 53.207Q146.208 52.804 145.154 52.804L145.154 52.804Q144.596 52.804 143.945 53.145Q143.294 53.486 142.209 54.633Q141.124 55.780 139.202 58.198ZM133.436 75L133.436 75Q133.250 75 133.250 74.628Q133.250 74.256 133.436 74.256L133.436 74.256Q135.978 74.256 136.722 73.450Q137.466 72.644 137.466 69.978L137.466 69.978L137.466 57.578Q137.466 55.470 136.970 54.509Q136.474 53.548 135.234 53.548L135.234 53.548Q134.614 53.548 133.746 53.796Q132.878 54.044 131.762 54.478L131.762 54.478Q131.514 54.540 131.359 54.230Q131.204 53.920 131.452 53.796L131.452 53.796L138.334 50.572Q138.458 50.510 138.644 50.510L138.644 50.510Q139.078 50.510 139.729 51.781Q140.380 53.052 140.380 55.470L140.380 55.470L140.380 69.978Q140.380 71.776 140.814 72.706Q141.248 73.636 142.581 73.946Q143.914 74.256 146.580 74.256L146.580 74.256Q146.766 74.256 146.766 74.628Q146.766 75 146.580 75L146.580 75Q145.092 75 143.108 74.938Q141.124 74.876 138.954 74.876L138.954 74.876Q137.404 74.876 135.947 74.938Q134.490 75 133.436 75Z M163.464 75.434L163.464 75.434Q160.488 75.434 158.752 73.543Q157.016 71.652 157.016 67.870L157.016 67.870L157.016 58.260Q157.016 55.718 156.644 54.633Q156.272 53.548 155.218 53.548L155.218 53.548Q154.288 53.548 152.986 54.168L152.986 54.168Q152.738 54.292 152.583 53.920Q152.428 53.548 152.676 53.486L152.676 53.486L159.186 50.572Q159.310 50.510 159.434 50.510L159.434 50.510Q159.558 50.510 159.744 50.634Q159.930 50.758 159.930 50.944L159.930 50.944L159.930 66.010Q159.930 69.792 161.232 71.559Q162.534 73.326 165.138 73.326L165.138 73.326Q167.680 73.326 170.222 71.807Q172.764 70.288 174.686 67.622L174.686 67.622L174.996 68.304Q171.958 72.148 169.168 73.791Q166.378 75.434 163.464 75.434ZM176.422 50.944L176.422 50.944L176.422 68.490Q176.422 70.598 176.949 71.559Q177.476 72.520 178.716 72.520L178.716 72.520Q179.398 72.520 180.204 72.272Q181.010 72.024 182.188 71.590L182.188 71.590Q182.498 71.466 182.622 71.807Q182.746 72.148 182.498 72.272L182.498 72.272L175.554 75.496Q175.430 75.558 175.306 75.558L175.306 75.558Q174.872 75.558 174.221 74.287Q173.570 73.016 173.570 70.598L173.570 70.598L173.570 58.260Q173.570 55.718 173.167 54.633Q172.764 53.548 171.710 53.548L171.710 53.548Q170.780 53.548 169.478 54.168L169.478 54.168Q169.230 54.292 169.106 53.920Q168.982 53.548 169.230 53.486L169.230 53.486L175.740 50.572Q175.864 50.510 175.926 50.510L175.926 50.510Q176.050 50.510 176.236 50.634Q176.422 50.758 176.422 50.944Z M195.414 75.744L195.414 75.744Q191.756 75.744 189.307 74.039Q186.858 72.334 185.618 69.606Q184.378 66.878 184.378 63.840L184.378 63.840Q184.378 60.058 186.114 57.051Q187.850 54.044 190.795 52.277Q193.740 50.510 197.212 50.510L197.212 50.510Q200.746 50.510 202.482 52.432Q204.218 54.354 204.218 57.578L204.218 57.578Q204.218 58.384 204.063 58.756Q203.908 59.128 203.474 59.128L203.474 59.128L200.560 59.128Q200.870 55.284 199.351 53.517Q197.832 51.750 195.228 51.750L195.228 51.750Q191.756 51.750 189.834 54.385Q187.912 57.020 187.912 61.608L187.912 61.608Q187.912 65.080 189.028 67.839Q190.144 70.598 192.314 72.179Q194.484 73.760 197.584 73.760L197.584 73.760Q199.754 73.760 201.149 73.109Q202.544 72.458 203.846 71.652L203.846 71.652Q203.970 71.528 204.187 71.807Q204.404 72.086 204.280 72.272L204.280 72.272Q202.110 74.132 199.909 74.938Q197.708 75.744 195.414 75.744ZM201.180 59.128L187.106 59.190L187.044 58.446L201.180 58.198L201.180 59.128Z M229.058 43.752L229.058 43.752Q229.058 46.356 230.329 48.185Q231.600 50.014 233.615 51.378Q235.630 52.742 237.862 54.044L237.862 54.044Q240.156 55.346 242.264 56.803Q244.372 58.260 245.767 60.275Q247.162 62.290 247.162 65.266L247.162 65.266Q247.162 68.118 245.767 70.505Q244.372 72.892 241.582 74.318Q238.792 75.744 234.576 75.744L234.576 75.744Q233.212 75.744 231.879 75.558Q230.546 75.372 229.151 74.907Q227.756 74.442 226.144 73.636L226.144 73.636Q225.834 73.450 225.741 73.171Q225.648 72.892 225.586 72.458L225.586 72.458L224.656 64.398Q224.594 64.088 224.935 64.057Q225.276 64.026 225.338 64.274L225.338 64.274Q225.586 66.134 226.330 67.994Q227.074 69.854 228.345 71.404Q229.616 72.954 231.507 73.915Q233.398 74.876 235.940 74.876L235.940 74.876Q237.862 74.876 239.660 74.163Q241.458 73.450 242.605 71.838Q243.752 70.226 243.752 67.436L243.752 67.436Q243.752 64.398 242.419 62.383Q241.086 60.368 239.040 58.911Q236.994 57.454 234.700 56.152L234.700 56.152Q232.530 54.850 230.484 53.424Q228.438 51.998 227.167 50.045Q225.896 48.092 225.896 45.178L225.896 45.178Q225.896 41.954 227.508 39.815Q229.120 37.676 231.693 36.622Q234.266 35.568 237.056 35.568L237.056 35.568Q238.668 35.568 240.435 35.909Q242.202 36.250 244.124 37.056L244.124 37.056Q244.620 37.242 244.837 37.521Q245.054 37.800 245.054 38.110L245.054 38.110L245.612 44.682Q245.612 44.930 245.271 44.930Q244.930 44.930 244.868 44.682L244.868 44.682Q244.744 43.318 244.217 41.861Q243.690 40.404 242.667 39.164Q241.644 37.924 240.063 37.149Q238.482 36.374 236.250 36.374L236.250 36.374Q233.584 36.374 232.003 37.490Q230.422 38.606 229.740 40.280Q229.058 41.954 229.058 43.752Z M253.506 75L253.506 75Q253.382 75 253.382 74.628Q253.382 74.256 253.506 74.256L253.506 74.256Q256.048 74.256 256.823 73.450Q257.598 72.644 257.598 69.978L257.598 69.978L257.598 58.260Q257.598 56.028 257.164 55.005Q256.730 53.982 255.552 53.982L255.552 53.982Q254.994 53.982 254.281 54.199Q253.568 54.416 252.576 54.912L252.576 54.912Q252.328 54.974 252.173 54.633Q252.018 54.292 252.266 54.168L252.266 54.168L259.954 50.572Q260.140 50.510 260.202 50.510L260.202 50.510Q260.326 50.510 260.481 50.634Q260.636 50.758 260.636 50.944L260.636 50.944Q260.636 51.378 260.574 53.331Q260.512 55.284 260.512 58.198L260.512 58.198L260.512 69.978Q260.512 72.644 261.225 73.450Q261.938 74.256 264.542 74.256L264.542 74.256Q264.728 74.256 264.728 74.628Q264.728 75 264.542 75L264.542 75Q263.488 75 262.062 74.938Q260.636 74.876 259.024 74.876L259.024 74.876Q257.474 74.876 256.048 74.938Q254.622 75 253.506 75ZM258.528 43.008L258.528 43.008Q257.350 43.008 256.699 42.388Q256.048 41.768 256.048 40.652L256.048 40.652Q256.048 39.536 256.699 38.916Q257.350 38.296 258.528 38.296L258.528 38.296Q259.644 38.296 260.264 38.916Q260.884 39.536 260.884 40.652L260.884 40.652Q260.884 43.008 258.528 43.008Z M277.520 92.360L277.520 92.360Q273.180 92.360 270.855 90.407Q268.530 88.454 268.530 85.602L268.530 85.602Q268.530 82.378 271.227 79.557Q273.924 76.736 278.512 74.132L278.512 74.132L279.194 74.938Q277.148 75.930 275.412 77.077Q273.676 78.224 272.622 79.805Q271.568 81.386 271.568 83.804L271.568 83.804Q271.568 85.788 272.467 87.307Q273.366 88.826 275.195 89.663Q277.024 90.500 279.814 90.500L279.814 90.500Q284.340 90.500 287.285 88.206Q290.230 85.912 290.230 81.944L290.230 81.944Q290.230 79.402 288.959 78.286Q287.688 77.170 285.456 76.891Q283.224 76.612 280.248 76.612L280.248 76.612Q277.396 76.612 275.071 76.395Q272.746 76.178 271.382 75.248Q270.018 74.318 270.018 72.272L270.018 72.272Q270.018 70.164 271.320 68.707Q272.622 67.250 274.854 65.328L274.854 65.328L275.536 65.948Q273.986 67.250 273.366 68.273Q272.746 69.296 272.746 70.412L272.746 70.412Q272.746 71.652 273.583 72.396Q274.420 73.140 276.466 73.481Q278.512 73.822 282.108 73.822L282.108 73.822Q283.472 73.822 285.270 73.884Q287.068 73.946 288.804 74.442Q290.540 74.938 291.687 76.240Q292.834 77.542 292.834 80.022L292.834 80.022Q292.834 82.564 291.563 84.796Q290.292 87.028 288.122 88.733Q285.952 90.438 283.193 91.399Q280.434 92.360 277.520 92.360ZM279.504 66.754L279.504 66.754Q276.528 66.754 274.451 65.669Q272.374 64.584 271.258 62.755Q270.142 60.926 270.142 58.756L270.142 58.756Q270.142 56.524 271.289 54.695Q272.436 52.866 274.606 51.750Q276.776 50.634 279.814 50.634L279.814 50.634Q283.224 50.634 285.239 51.874Q287.254 53.114 288.122 54.974Q288.990 56.834 288.990 58.632L288.990 58.632Q288.990 60.678 287.905 62.538Q286.820 64.398 284.712 65.576Q282.604 66.754 279.504 66.754ZM280.620 65.886L280.620 65.886Q282.790 65.886 284.216 64.491Q285.642 63.096 285.642 59.872L285.642 59.872Q285.642 57.268 284.681 55.408Q283.720 53.548 282.108 52.525Q280.496 51.502 278.450 51.502L278.450 51.502Q276.280 51.502 274.854 52.835Q273.428 54.168 273.428 57.392L273.428 57.392Q273.428 60.368 274.544 62.259Q275.660 64.150 277.303 65.018Q278.946 65.886 280.620 65.886ZM285.642 53.362L285.084 55.222L285.084 53.114Q287.006 51.998 288.804 51.285Q290.602 50.572 292.772 50.572L292.772 50.572Q292.896 50.572 292.989 51.006Q293.082 51.440 293.082 51.874L293.082 51.874Q293.082 52.494 292.927 53.207Q292.772 53.920 292.524 53.796L292.524 53.796Q292.090 53.610 291.036 53.269Q289.982 52.928 288.494 52.928L288.494 52.928Q287.688 52.928 287.006 53.052Q286.324 53.176 285.642 53.362L285.642 53.362Z M312.880 75L312.880 75Q312.694 75 312.694 74.628Q312.694 74.256 312.880 74.256L312.880 74.256Q315.422 74.256 316.166 73.450Q316.910 72.644 316.910 69.978L316.910 69.978L316.910 59.624Q316.910 55.842 315.484 54.106Q314.058 52.370 311.020 52.370L311.020 52.370Q308.664 52.370 306.215 53.920Q303.766 55.470 301.968 58.198L301.968 58.198L301.720 57.454Q304.634 53.610 307.300 51.936Q309.966 50.262 312.694 50.262L312.694 50.262Q316.104 50.262 317.964 52.091Q319.824 53.920 319.824 57.764L319.824 57.764L319.824 69.978Q319.824 72.644 320.537 73.450Q321.250 74.256 323.854 74.256L323.854 74.256Q324.040 74.256 324.040 74.628Q324.040 75 323.854 75L323.854 75Q322.800 75 321.374 74.938Q319.948 74.876 318.398 74.876L318.398 74.876Q316.848 74.876 315.391 74.938Q313.934 75 312.880 75ZM296.202 75L296.202 75Q296.016 75 296.016 74.628Q296.016 74.256 296.202 74.256L296.202 74.256Q298.744 74.256 299.488 73.450Q300.232 72.644 300.232 69.978L300.232 69.978L300.232 57.578Q300.232 55.470 299.736 54.509Q299.240 53.548 298.000 53.548L298.000 53.548Q297.380 53.548 296.512 53.796Q295.644 54.044 294.528 54.478L294.528 54.478Q294.280 54.540 294.125 54.230Q293.970 53.920 294.218 53.796L294.218 53.796L301.100 50.572Q301.224 50.510 301.410 50.510L301.410 50.510Q301.844 50.510 302.495 51.781Q303.146 53.052 303.146 55.470L303.146 55.470L303.146 69.978Q303.146 72.644 303.859 73.450Q304.572 74.256 307.176 74.256L307.176 74.256Q307.362 74.256 307.362 74.628Q307.362 75 307.176 75L307.176 75Q306.122 75 304.696 74.938Q303.270 74.876 301.720 74.876L301.720 74.876Q300.170 74.876 298.713 74.938Q297.256 75 296.202 75Z M350.472 72.334L344.086 75.372Q343.838 75.496 343.590 75.496L343.590 75.496Q342.846 75.496 342.226 74.194Q341.606 72.892 341.606 70.412L341.606 70.412L341.606 58.446Q341.606 54.602 340.397 53.114Q339.188 51.626 337.390 51.626L337.390 51.626Q335.840 51.626 334.817 52.339Q333.794 53.052 333.267 54.106Q332.740 55.160 332.492 56.090L332.492 56.090Q332.368 56.710 332.058 57.547Q331.748 58.384 330.508 58.384L330.508 58.384Q329.578 58.384 329.113 57.826Q328.648 57.268 328.648 56.648L328.648 56.648Q328.648 55.594 329.764 54.509Q330.880 53.424 332.585 52.494Q334.290 51.564 336.150 51.006Q338.010 50.448 339.560 50.448L339.560 50.448Q342.102 50.448 343.280 52.091Q344.458 53.734 344.458 56.586L344.458 56.586L344.458 68.304Q344.458 70.536 344.985 71.559Q345.512 72.582 346.814 72.582L346.814 72.582Q347.992 72.582 350.224 71.652L350.224 71.652Q350.534 71.528 350.658 71.869Q350.782 72.210 350.472 72.334L350.472 72.334ZM333.112 75.434L333.112 75.434Q330.818 75.434 329.609 74.163Q328.400 72.892 328.400 71.218L328.400 71.218Q328.400 70.164 328.927 69.172Q329.454 68.180 330.787 67.250Q332.120 66.320 334.476 65.452L334.476 65.452L342.226 62.538L342.350 63.344L335.034 66.134Q333.732 66.630 333.050 67.219Q332.368 67.808 332.120 68.459Q331.872 69.110 331.872 69.792L331.872 69.792Q331.872 71.156 332.771 72.272Q333.670 73.388 335.406 73.388L335.406 73.388Q336.088 73.388 336.832 73.171Q337.576 72.954 338.630 72.334L338.630 72.334L342.784 69.916L342.908 70.660L338.258 73.574Q336.708 74.566 335.530 75Q334.352 75.434 333.112 75.434Z M352.600 75L352.600 75Q352.414 75 352.414 74.628Q352.414 74.256 352.600 74.256L352.600 74.256Q355.142 74.256 355.886 73.450Q356.630 72.644 356.630 69.978L356.630 69.978L356.630 37.800Q356.630 35.568 356.196 34.545Q355.762 33.522 354.646 33.522L354.646 33.522Q353.654 33.522 351.670 34.452L351.670 34.452Q351.422 34.576 351.267 34.204Q351.112 33.832 351.360 33.770L351.360 33.770L358.986 30.112Q359.110 30.050 359.296 30.050L359.296 30.050Q359.420 30.050 359.575 30.174Q359.730 30.298 359.730 30.484L359.730 30.484L359.730 69.978Q359.730 72.582 360.443 73.419Q361.156 74.256 363.760 74.256L363.760 74.256Q363.946 74.256 363.946 74.628Q363.946 75 363.760 75L363.760 75Q362.706 75 361.249 74.938Q359.792 74.876 358.180 74.876L358.180 74.876Q356.630 74.876 355.142 74.938Q353.654 75 352.600 75Z" fill="#1A2235"/>
</svg>